<svg width="154" height="130" viewBox="0 0 154 130" fill="none" xmlns="http://www.w3.org/2000/svg">
<g filter="url(#filter0_d_140_99)">
<path d="M30.2377 25.5459C30.0113 19.0188 35.0769 13 41.9239 13H112.085C118.932 13 123.997 19.0188 123.771 25.5459C123.553 31.8158 123.836 39.9376 125.872 46.56C127.914 53.2028 131.359 57.4016 137 57.9412V64.0588C131.359 64.5984 127.914 68.7972 125.872 75.44C123.836 82.0624 123.553 90.1842 123.771 96.4544C123.997 102.981 118.932 109 112.085 109H41.9239C35.0769 109 30.0113 102.981 30.238 96.4544C30.4552 90.1842 30.1728 82.0624 28.1366 75.44C26.0942 68.7972 22.6414 64.5984 17 64.0588V57.9412C22.6412 57.4016 26.0942 53.2028 28.1366 46.56C30.1728 39.9376 30.4552 31.8158 30.2377 25.5459Z" fill="url(#paint0_linear_140_99)"/>
<path d="M79.6023 86.5193C90.6875 86.5193 97.3674 81.0704 97.3674 72.0828C97.3674 65.2892 92.6012 60.3708 85.524 59.5922V59.3092C90.7236 58.46 94.8038 53.6125 94.8038 48.1988C94.8038 40.4852 88.7377 35.4605 79.494 35.4605H58.6955V86.5193H79.6023ZM66.7838 41.9358H77.5442C83.3937 41.9358 86.7155 44.5541 86.7155 49.2955C86.7155 54.3555 82.8521 57.1861 75.8471 57.1861H66.7838V41.9358ZM66.7838 80.0442V63.2369H77.4718C85.1267 63.2369 89.0987 66.0675 89.0987 71.5875C89.0987 77.1073 85.2352 80.0442 77.9412 80.0442H66.7838Z" fill="url(#paint1_linear_140_99)"/>
<path d="M30.2377 25.5459C30.0113 19.0188 35.0769 13 41.9239 13H112.085C118.932 13 123.997 19.0188 123.771 25.5459C123.553 31.8158 123.836 39.9376 125.872 46.56C127.914 53.2028 131.359 57.4016 137 57.9412V64.0588C131.359 64.5984 127.914 68.7972 125.872 75.44C123.836 82.0624 123.553 90.1842 123.771 96.4544C123.997 102.981 118.932 109 112.085 109H41.9239C35.0769 109 30.0113 102.981 30.238 96.4544C30.4552 90.1842 30.1728 82.0624 28.1366 75.44C26.0942 68.7972 22.6414 64.5984 17 64.0588V57.9412C22.6412 57.4016 26.0942 53.2028 28.1366 46.56C30.1728 39.9376 30.4552 31.8158 30.2377 25.5459Z" stroke="white"/>
<path d="M79.6023 86.5193C90.6875 86.5193 97.3674 81.0704 97.3674 72.0828C97.3674 65.2892 92.6012 60.3708 85.524 59.5922V59.3092C90.7236 58.46 94.8038 53.6125 94.8038 48.1988C94.8038 40.4852 88.7377 35.4605 79.494 35.4605H58.6955V86.5193H79.6023ZM66.7838 41.9358H77.5442C83.3937 41.9358 86.7155 44.5541 86.7155 49.2955C86.7155 54.3555 82.8521 57.1861 75.8471 57.1861H66.7838V41.9358ZM66.7838 80.0442V63.2369H77.4718C85.1267 63.2369 89.0987 66.0675 89.0987 71.5875C89.0987 77.1073 85.2352 80.0442 77.9412 80.0442H66.7838Z" stroke="white"/>
</g>
<defs>
<filter id="filter0_d_140_99" x="0.5" y="0.5" width="153" height="129" filterUnits="userSpaceOnUse" color-interpolation-filters="sRGB">
<feFlood flood-opacity="0" result="BackgroundImageFix"/>
<feColorMatrix in="SourceAlpha" type="matrix" values="0 0 0 0 0 0 0 0 0 0 0 0 0 0 0 0 0 0 127 0" result="hardAlpha"/>
<feOffset dy="4"/>
<feGaussianBlur stdDeviation="8"/>
<feColorMatrix type="matrix" values="0 0 0 0 0 0 0 0 0 0 0 0 0 0 0 0 0 0 0.15 0"/>
<feBlend mode="normal" in2="BackgroundImageFix" result="effect1_dropShadow_140_99"/>
<feBlend mode="normal" in="SourceGraphic" in2="effect1_dropShadow_140_99" result="shape"/>
</filter>
<linearGradient id="paint0_linear_140_99" x1="34.831" y1="15.5407" x2="140.008" y2="98.7038" gradientUnits="userSpaceOnUse">
<stop stop-color="#9013FE"/>
<stop offset="1" stop-color="#6610F2"/>
</linearGradient>
<linearGradient id="paint1_linear_140_99" x1="62.3534" y1="38.8212" x2="85.9285" y2="78.5361" gradientUnits="userSpaceOnUse">
<stop stop-color="white"/>
<stop offset="1" stop-color="#F1E5FC"/>
</linearGradient>
</defs>
</svg>
