<svg width="80" height="113" viewBox="0 0 80 113" fill="none" xmlns="http://www.w3.org/2000/svg">
<path d="M80 22.2071L72.7118 103.911L39.951 113L7.28048 103.924L0 22.2071H80Z" fill="#264DE4"/>
<path d="M66.4723 98.7086L72.7005 28.8887H40V106.053L66.4723 98.7086Z" fill="#2965F1"/>
<path d="M16.6904 59.1963L17.588 69.2185H40V59.1963H16.6904Z" fill="#EBEBEB"/>
<path d="M40 38.9111H39.9654H14.8867L15.7971 48.9334H40V38.9111Z" fill="#EBEBEB"/>
<path d="M40 95.6525V85.2252L39.9561 85.2369L28.8022 82.2229L28.0891 74.2297H18.0355L19.4386 89.9661L39.9539 95.6653L40 95.6525Z" fill="#EBEBEB"/>
<path d="M18.8275 0H30.9576V5.07617H23.9V10.1523H30.9576V15.2285H18.8275V0Z" fill="black"/>
<path d="M33.3836 0H45.5137V4.41406H38.4562V5.29688H45.5137V15.4492H33.3836V10.8145H40.4411V9.93164H33.3836V0Z" fill="black"/>
<path d="M47.9397 0H60.0698V4.41406H53.0123V5.29688H60.0698V15.4492H47.9397V10.8145H54.9972V9.93164H47.9397V0Z" fill="black"/>
<path d="M52.2979 69.2185L51.1354 82.2165L39.9654 85.2336V95.6605L60.497 89.9661L63.0011 61.8876L63.2455 59.1963L65.0535 38.9111H39.9654L39.9654 48.9334H54.0778L53.1665 59.1963H39.9654V69.2185H52.2979Z" fill="white"/>
</svg>
