<svg width="79" height="113" viewBox="0 0 79 113" fill="none" xmlns="http://www.w3.org/2000/svg">
<path d="M7.35998 0H12.3682V5.03203H16.9846V0H21.9928V15.2285H16.9846V10.1523H12.4118V15.2285H7.35998M28.6125 5.07617H24.1921V0H38.0628V5.07617H33.6207V15.2285H28.6125M40.2621 0H45.5099L48.7326 5.36309L51.9554 0H57.2031V15.2285H52.1949V7.68047L48.6891 13.1539L45.1833 7.68047V15.2285H40.2621M59.6855 0H64.6938V10.1965H71.7924V15.2285H59.6855" fill="black"/>
<path d="M7.18578 103.951L0 22.2027H79L71.8142 103.907L39.4347 113" fill="#E44D26"/>
<path d="M39.5 106.048V28.9121H71.7924L65.6301 98.6543" fill="#F16529"/>
<path d="M14.6764 38.91H39.5V48.9299H25.5204L26.435 59.1926H39.5V69.1904H17.3765M17.812 74.2225H27.7415L28.4383 82.234L39.5 85.2355V95.6969L19.2056 89.9586" fill="#EBEBEB"/>
<path d="M64.2365 38.91H39.4565V48.9299H63.3219M62.4292 59.1926H39.4565V69.2125H51.6505L50.4964 82.234L39.4565 85.2355V95.6527L59.7073 89.9586" fill="white"/>
</svg>
