<svg width="80" height="113" viewBox="0 0 80 113" fill="none" xmlns="http://www.w3.org/2000/svg">
<path d="M0.268545 22.0813L0.281129 23.0912C0.288063 23.6466 1.89226 42.0357 3.84605 63.9557L7.39838 103.81L23.3644 108.294C32.1457 110.76 39.5117 112.791 39.7332 112.806C39.9546 112.822 47.4179 110.812 56.3182 108.34C70.588 104.377 72.5144 103.78 72.6165 103.289C72.7589 102.606 79.7468 23.5332 79.7397 22.6872L79.7346 22.0813H40.0014H0.268545Z" fill="white"/>
<path d="M23.4908 108.563L7.38284 104.046L7.17233 102.851C6.98522 101.789 0 23.5323 0 22.4983C0 22.1241 4.07829 22.0813 40.0014 22.0813C77.9203 22.0813 80.0029 22.1061 80 22.5529C79.9874 24.4823 72.7571 103.775 72.5794 103.933C72.3549 104.132 41.1776 112.845 40.1358 112.999C39.8405 113.043 32.3502 111.047 23.4908 108.563ZM50.1585 92.6047C55.5726 91.1069 60.0804 89.8042 60.1759 89.7098C60.2714 89.6155 60.905 83.1763 61.5838 75.4006C62.2626 67.6249 62.8866 60.748 62.9703 60.1185L63.1226 58.9741H39.7331V68.9377H52.3612L52.2356 69.5436C52.1666 69.8768 51.898 72.7406 51.6389 75.9075C51.3643 79.2631 51.0388 81.7948 50.8587 81.9755C50.6887 82.146 48.1159 82.9362 45.1414 83.7314L39.7331 85.1774V90.2526C39.7331 93.7167 39.8254 95.3279 40.0239 95.3279C40.1839 95.3279 44.7444 94.1025 50.1585 92.6047ZM62.9687 52.7131C62.7912 51.3936 61.2104 33.6954 61.2104 33.0281C61.2104 32.6228 60.2811 32.5838 50.606 32.5838H40.0015V43.0027L44.7668 43.187C47.3877 43.2883 50.146 43.4425 50.8963 43.5297L52.2605 43.6881L52.5916 47.763C52.7738 50.0042 52.9908 52.2923 53.0739 52.8478L53.225 53.8576H63.1226L62.9687 52.7131Z" fill="#EAEBEC"/>
<path d="M23.3644 108.294L7.39838 103.81L3.84605 63.9557C1.89226 42.0357 0.288063 23.6466 0.281129 23.0912L0.268545 22.0813H40.0014H79.7346L79.7397 22.6872C79.7468 23.5332 72.7589 102.606 72.6165 103.289C72.5144 103.78 70.588 104.377 56.3182 108.34C47.4179 110.812 39.9546 112.822 39.7332 112.806C39.5117 112.791 32.1457 110.76 23.3644 108.294ZM50.1706 92.7951C55.6898 91.256 60.2838 89.8696 60.3796 89.7142C60.4753 89.5588 61.1346 82.7908 61.8448 74.6741C62.5549 66.5575 63.194 59.7045 63.2651 59.4453C63.3872 59.0001 62.4481 58.9741 46.2483 58.9741H29.1022L29.8322 51.232C30.2337 46.9739 30.5719 43.479 30.5837 43.4655C30.5955 43.452 33.112 43.3715 36.1759 43.2866C41.1998 43.1473 51.56 43.5493 51.9066 43.897C52.0361 44.0268 52.8879 52.4099 52.8879 53.5543C52.8879 54.1185 52.9639 54.1269 58.0901 54.1269H63.2922L63.1696 52.9824C63.1022 52.3529 62.6615 47.4755 62.1904 42.1436L61.3337 32.4492L41.2713 32.3802C25.3105 32.3252 21.2084 32.3803 21.2067 32.6494C21.2053 32.8355 21.0885 34.0178 20.9467 35.2767C20.6037 38.3231 17.9873 67.7574 17.9873 68.5703V69.207H52.1297L51.9776 70.2168C51.8939 70.7722 51.6285 73.5896 51.3879 76.4778C51.1472 79.3659 50.8729 81.8035 50.7782 81.8947C50.528 82.1355 40.4853 84.8266 39.859 84.8206C39.5683 84.8178 36.9746 84.1687 34.0953 83.3781L28.8602 81.9408L28.6682 79.6805C28.5626 78.4374 28.402 76.6629 28.3113 75.7372L28.1463 74.0542H17.9873L17.9985 75.064C18.0196 76.9525 19.2404 89.6732 19.4177 89.851C19.6228 90.0567 39.1324 95.5576 39.7331 95.5791C39.9546 95.587 44.6515 94.3342 50.1706 92.7951Z" fill="#F0BE25"/>
<path d="M23.3644 108.294L7.39838 103.81L3.84605 63.9557C1.89226 42.0357 0.288063 23.6466 0.281129 23.0912L0.268545 22.0813H40.0014H79.7346L79.7397 22.6872C79.7468 23.5332 72.7589 102.606 72.6165 103.289C72.5144 103.78 70.588 104.377 56.3182 108.34C47.4179 110.812 39.9546 112.822 39.7332 112.806C39.5117 112.791 32.1457 110.76 23.3644 108.294ZM53.1389 102.296C60.1622 100.352 66.0405 98.6251 66.2018 98.4585C66.4527 98.1991 72.5185 31.516 72.4941 29.2851L72.486 28.5445H40.0016V32.3145H30.6052C23.2683 32.3145 21.2084 32.3883 21.2067 32.6512C21.2053 32.8363 21.0885 34.0178 20.9467 35.2767C20.6037 38.3231 17.9873 67.7574 17.9873 68.5703V69.207H40.0015V77.0163C40.0015 83.087 39.9268 84.8246 39.666 84.8206C39.4814 84.8178 36.9746 84.1687 34.0953 83.3781L28.8602 81.9408L28.6682 79.6805C28.5626 78.4374 28.402 76.6629 28.3113 75.7372L28.1463 74.0542H17.9873L17.9985 75.064C18.0307 77.9524 19.2764 89.7427 19.5685 89.9238C19.7461 90.0339 24.4162 91.3799 29.9465 92.9149L40.0015 95.7059V100.768C40.0015 103.552 40.0843 105.83 40.1854 105.83C40.2865 105.83 46.1156 104.24 53.1389 102.296ZM29.8039 51.3044C30.1899 47.0861 30.5583 43.587 30.6226 43.5286C30.6868 43.4703 32.8234 43.3647 35.3705 43.294L40.0015 43.1655V58.9741H29.1022L29.8039 51.3044Z" fill="#E4A126"/>
<path d="M25.5043 9.96365H32.7529V0H37.8538V15.0801H25.5043V9.96365ZM40.27 11.0408H43.6258C45.4716 11.0408 46.9817 10.9724 46.9817 10.8887C46.9817 10.8051 45.4716 9.09497 43.6258 7.08849L40.27 3.44033V0H54.2303V4.02274L47.6765 4.17396L54.4987 11.5434V15.0801H40.27V11.0408Z" fill="#0E0E0F"/>
</svg>
