<svg width="113" height="113" viewBox="0 0 113 113" fill="none" xmlns="http://www.w3.org/2000/svg">
<g clip-path="url(#clip0_140_95)">
<path d="M101.965 0H11.0352C4.94061 0 0 4.94061 0 11.0352V101.965C0 108.059 4.94061 113 11.0352 113H101.965C108.059 113 113 108.059 113 101.965V11.0352C113 4.94061 108.059 0 101.965 0Z" fill="#3178C6"/>
<path d="M101.965 0H11.0352C4.94061 0 0 4.94061 0 11.0352V101.965C0 108.059 4.94061 113 11.0352 113H101.965C108.059 113 113 108.059 113 101.965V11.0352C113 4.94061 108.059 0 101.965 0Z" fill="#3178C6"/>
<path fill-rule="evenodd" clip-rule="evenodd" d="M69.9494 89.9198V100.968C71.7455 101.889 73.8698 102.58 76.3222 103.04C78.7747 103.5 81.3593 103.73 84.0766 103.73C86.7249 103.73 89.2404 103.477 91.6238 102.971C94.0072 102.465 96.097 101.63 97.8931 100.468C99.6892 99.3054 101.111 97.7861 102.159 95.9101C103.207 94.0341 103.73 91.7152 103.73 88.9531C103.73 86.9504 103.431 85.1954 102.832 83.6878C102.234 82.1801 101.37 80.8394 100.242 79.6654C99.1136 78.4915 97.7607 77.4383 96.1833 76.5061C94.6059 75.5738 92.8271 74.6934 90.8467 73.8649C89.396 73.2664 88.095 72.6853 86.9436 72.1214C85.7922 71.5572 84.8136 70.9819 84.0076 70.395C83.2015 69.808 82.5798 69.1865 82.1424 68.5305C81.705 67.8744 81.486 67.1322 81.486 66.3034C81.486 65.544 81.6818 64.8591 82.0733 64.2491C82.4648 63.6391 83.0175 63.1156 83.7312 62.6781C84.4452 62.2409 85.3201 61.9013 86.3563 61.6596C87.3927 61.4179 88.5439 61.2972 89.8105 61.2972C90.7315 61.2972 91.7044 61.3663 92.7291 61.5042C93.7538 61.6424 94.7843 61.8554 95.8207 62.1429C96.8569 62.4307 97.8642 62.7934 98.843 63.2306C99.8216 63.668 100.725 64.1743 101.554 64.7499V54.4263C99.8735 53.7818 98.037 53.3042 96.0451 52.9935C94.0533 52.6827 91.7677 52.5273 89.1888 52.5273C86.5635 52.5273 84.0766 52.8094 81.7279 53.3733C79.3792 53.9372 77.3125 54.8176 75.5277 56.0145C73.7431 57.2115 72.3328 58.7364 71.2966 60.5894C70.2604 62.4422 69.7422 64.6576 69.7422 67.2357C69.7422 70.5272 70.6921 73.3355 72.5919 75.6603C74.4915 77.985 77.3756 79.953 81.2444 81.5644C82.7641 82.1859 84.1804 82.7957 85.4929 83.3942C86.8054 83.9928 87.9396 84.6143 88.895 85.2587C89.8507 85.9032 90.6048 86.6052 91.1577 87.3649C91.7103 88.1243 91.9866 88.9875 91.9866 89.9544C91.9866 90.6679 91.8138 91.3296 91.4684 91.9396C91.123 92.5496 90.5991 93.0789 89.8968 93.5278C89.1945 93.9767 88.3194 94.3276 87.2718 94.5808C86.2239 94.8341 84.9978 94.9606 83.5931 94.9606C81.1982 94.9606 78.8265 94.5406 76.4776 93.7004C74.1289 92.8604 71.9527 91.6002 69.9494 89.9198ZM51.3753 62.6978H65.5488V53.6309H26.043V62.6978H40.1472V103.068H51.3753V62.6978Z" fill="white"/>
</g>
<defs>
<clipPath id="clip0_140_95">
<rect width="113" height="113" fill="white"/>
</clipPath>
</defs>
</svg>
