<svg width="1747" height="508" viewBox="0 0 1747 508" fill="none" xmlns="http://www.w3.org/2000/svg">
<path d="M327.798 0H85.0393L0 508H242.759L327.798 0Z" fill="#150301"/>
<path d="M602.495 0H359.736L274.697 508H517.456L602.495 0Z" fill="#150301"/>
<path d="M875.599 0H632.84L547.8 508H790.559L875.599 0Z" fill="#150301"/>
<path d="M58.1338 333.794H106.733L160.311 225.571C161.733 222.727 162.918 220.079 163.867 217.63C164.815 215.18 165.605 213.086 166.237 211.347H166.83C166.83 213.086 166.87 215.18 166.949 217.63C167.028 220.079 167.265 222.766 167.66 225.69L184.255 333.794H237.714L206.658 160.852H149.88L58.1338 333.794ZM104.244 304.278H198.834L196.108 269.311H118.824L104.244 304.278Z" fill="white"/>
<path d="M375.925 200.561H421.916L398.446 333.794H450.72L474.309 200.561H520.3L527.175 161.207H382.8L375.925 200.561Z" fill="white"/>
<path d="M637.295 285.313C634.213 302.461 638.638 315.342 650.57 323.955C662.582 332.49 678.9 336.757 699.525 336.757C720.387 336.757 738.089 332.095 752.629 322.77C767.248 313.445 776.138 299.814 779.299 281.875C782.144 265.676 779.339 253.269 770.883 244.655C762.507 236.042 750.179 229.444 733.9 224.86C719.36 220.83 710.47 217.827 707.23 215.852C704.069 213.797 702.884 210.755 703.674 206.724C704.306 202.852 706.242 199.81 709.482 197.597C712.801 195.306 717.503 194.16 723.588 194.16C729.673 194.16 734.019 195.701 736.627 198.783C739.313 201.785 740.183 205.895 739.234 211.11L738.642 214.429H787.478L788.545 208.384C791.311 192.658 787.201 180.37 776.217 171.52C765.233 162.669 749.586 158.244 729.277 158.244C708.969 158.244 691.781 162.867 677.715 172.112C663.649 181.279 655.114 194.278 652.111 211.11C649.504 225.65 652.428 237.188 660.883 245.722C669.338 254.257 682.101 260.974 699.17 265.873C713.078 269.745 721.533 273.025 724.536 275.712C727.618 278.319 728.724 282.112 727.855 287.091C727.065 291.595 724.694 295.151 720.743 297.759C716.871 300.367 711.734 301.671 705.333 301.671C698.696 301.671 693.796 300.09 690.635 296.929C687.474 293.689 686.486 288.869 687.672 282.468L688.383 278.438H638.48L637.295 285.313Z" fill="white"/>
<path d="M925.527 0H1746.29L1744.98 508H842.078L925.527 0Z" fill="#E9EDF1"/>
<path d="M947.47 220H965.154L996.284 131.336C996.936 129.489 997.479 127.724 997.914 126.039C998.403 124.355 998.837 122.644 999.218 120.905H999.869C1000.3 122.644 1000.74 124.355 1001.17 126.039C1001.61 127.724 1002.15 129.489 1002.8 131.336L1033.93 220H1053L1009.32 100.777H990.987L947.47 220ZM968.087 190.418H1031.65L1026.92 176.32H972.814L968.087 190.418Z" fill="#004F77"/>
<path d="M1062.05 243.878C1066.07 247.246 1071.04 250.017 1076.96 252.19C1082.88 254.417 1089.38 255.531 1096.44 255.531C1108.01 255.531 1117.41 252.19 1124.63 245.507C1131.86 238.879 1135.47 229.318 1135.47 216.822V136.226H1119.09L1118.6 146.82H1118.2C1116.08 143.343 1112.82 140.436 1108.42 138.1C1104.02 135.764 1099.02 134.596 1093.42 134.596C1082.67 134.596 1074.11 138.535 1067.75 146.413C1061.4 154.29 1058.22 164.422 1058.22 176.809V179.417C1058.22 191.75 1061.4 201.855 1067.75 209.732C1074.16 217.556 1082.69 221.467 1093.34 221.467C1099.15 221.467 1104.1 220.462 1108.17 218.452C1112.3 216.387 1115.56 213.617 1117.95 210.14V217.311C1117.95 225.243 1115.89 231.219 1111.76 235.239C1107.68 239.26 1102.31 241.27 1095.62 241.27C1090.19 241.27 1085.27 240.265 1080.87 238.255C1076.53 236.244 1073.21 234.044 1070.93 231.654L1062.05 243.878ZM1076.23 179.661V176.483C1076.23 168.443 1077.97 161.76 1081.44 156.436C1084.97 151.112 1090.41 148.45 1097.74 148.45C1102.69 148.45 1106.9 149.808 1110.37 152.524C1113.85 155.241 1116.35 158.419 1117.87 162.059V194.167C1116.4 197.698 1113.93 200.85 1110.45 203.62C1106.98 206.337 1102.77 207.695 1097.82 207.695C1090.43 207.695 1084.97 205.06 1081.44 199.79C1077.97 194.466 1076.23 187.756 1076.23 179.661Z" fill="#004F77"/>
<path d="M1157.72 220H1175.4V162.874C1177.03 159.125 1179.48 156.029 1182.74 153.584C1186.05 151.139 1189.91 149.917 1194.31 149.917C1195.72 149.917 1197 149.998 1198.14 150.161C1199.34 150.27 1200.45 150.433 1201.48 150.65V135.085C1200.94 134.868 1200.04 134.623 1198.79 134.352C1197.54 134.08 1196.32 133.944 1195.13 133.944C1190.56 133.944 1186.6 135.221 1183.23 137.774C1179.86 140.273 1177.14 143.234 1175.08 146.657H1174.67L1174.18 136.226H1157.72V220Z" fill="#004F77"/>
<path d="M1208 179.335C1208 192.157 1211.59 202.534 1218.76 210.466C1225.98 218.398 1236.14 222.364 1249.24 222.364C1257.6 222.364 1264.67 220.652 1270.42 217.23C1276.24 213.807 1280.45 209.868 1283.06 205.413L1270.91 197.101C1268.69 200.198 1265.75 202.887 1262.11 205.169C1258.53 207.45 1254.18 208.591 1249.07 208.591C1241.25 208.591 1235.41 205.875 1231.55 200.442C1227.7 195.009 1225.77 188.11 1225.77 179.743V176.239C1225.77 167.927 1227.59 161.054 1231.23 155.621C1234.87 150.188 1240.3 147.472 1247.53 147.472C1253.72 147.472 1258.42 149.482 1261.62 153.502C1264.83 157.468 1266.43 162.276 1266.43 167.927V169.556H1219.08V182.025H1283.95V175.424C1283.95 162.548 1280.75 152.416 1274.34 145.027C1267.93 137.584 1258.88 133.863 1247.2 133.863C1235.52 133.863 1226.07 137.829 1218.84 145.761C1211.61 153.693 1208 164.015 1208 176.728V179.335Z" fill="#004F77"/>
<path d="M1300.66 220H1318.26V161.815C1320.11 157.903 1322.74 154.752 1326.17 152.361C1329.59 149.971 1333.45 148.776 1337.74 148.776C1342.84 148.776 1346.78 150.134 1349.55 152.85C1352.32 155.513 1353.71 159.995 1353.71 166.297V220H1371.39V166.134C1371.39 154.67 1368.81 146.548 1363.65 141.767C1358.55 136.932 1351.78 134.515 1343.36 134.515C1337.93 134.515 1333.01 135.628 1328.61 137.856C1324.21 140.029 1320.65 143.017 1317.93 146.82H1317.53L1317.04 136.226H1300.66V220Z" fill="#004F77"/>
<path d="M1393.23 220H1410.92V136.226H1393.23V220ZM1391.36 110.556C1391.36 113.381 1392.28 115.771 1394.13 117.727C1395.98 119.683 1398.64 120.661 1402.12 120.661C1405.54 120.661 1408.17 119.683 1410.02 117.727C1411.87 115.771 1412.79 113.381 1412.79 110.556C1412.79 107.676 1411.87 105.286 1410.02 103.384C1408.17 101.429 1405.54 100.451 1402.12 100.451C1398.64 100.451 1395.98 101.429 1394.13 103.384C1392.28 105.286 1391.36 107.676 1391.36 110.556Z" fill="#004F77"/>
<path d="M1427.3 253.901C1428.87 254.444 1430.53 254.852 1432.27 255.124C1434.01 255.395 1436.04 255.531 1438.38 255.531C1445.17 255.531 1450.85 253.412 1455.41 249.175C1460.03 244.937 1463.86 238.716 1466.9 230.513L1501.29 136.226H1484.91L1466.58 189.685C1465.93 191.804 1465.33 193.733 1464.78 195.471C1464.24 197.21 1463.75 198.894 1463.32 200.524H1462.83C1462.45 198.894 1461.99 197.21 1461.44 195.471C1460.95 193.733 1460.36 191.831 1459.65 189.767L1440.5 136.226H1422.98L1454.84 219.756L1455.09 219.837C1452.32 228.476 1449.55 234.207 1446.77 237.032C1444 239.912 1440.74 241.351 1437 241.351C1435.42 241.351 1433.76 241.216 1432.02 240.944C1430.34 240.727 1428.79 240.401 1427.38 239.966L1427.3 253.901Z" fill="#004F77"/>
<path d="M1553.37 220H1571.62V101.347H1553.37V220Z" fill="#004F77"/>
<path d="M1584.82 115.934H1621.25V220H1639.5V115.934H1675.93V101.347H1584.82V115.934Z" fill="#004F77"/>
<path d="M955.049 361.886C955.049 372.915 959.015 381.499 966.946 387.638C974.878 393.723 985.309 396.765 998.24 396.765C1011.17 396.765 1021.46 393.668 1029.13 387.475C1036.79 381.281 1040.62 373.105 1040.62 362.946C1040.62 353.004 1037.65 345.289 1031.73 339.802C1025.81 334.26 1016.74 329.724 1004.51 326.192C992.617 322.715 984.766 319.592 980.963 316.821C977.215 314.05 975.34 310.22 975.34 305.33C975.34 300.061 977.133 295.904 980.719 292.862C984.304 289.765 989.9 288.217 997.506 288.217C1005.06 288.217 1010.74 290.037 1014.54 293.677C1018.4 297.263 1020.32 302.044 1020.32 308.02V309.731H1038.33V307.775C1038.33 297.561 1034.61 289.304 1027.17 283.001C1019.78 276.699 1009.87 273.548 997.425 273.548C984.929 273.548 975.096 276.618 967.924 282.757C960.807 288.842 957.249 296.665 957.249 306.227C957.249 315.68 960.074 322.987 965.724 328.148C971.429 333.31 980.501 337.71 992.943 341.35C1004.68 344.827 1012.53 348.087 1016.49 351.129C1020.51 354.172 1022.52 358.328 1022.52 363.598C1022.52 369.193 1020.43 373.703 1016.25 377.125C1012.07 380.494 1006.04 382.178 998.158 382.178C990.28 382.178 984.141 380.467 979.741 377.044C975.395 373.621 973.221 368.487 973.221 361.642V359.686H955.049V361.886Z" fill="#004F77"/>
<path d="M1053 353.818C1053 366.64 1056.59 377.017 1063.76 384.949C1070.99 392.881 1081.14 396.847 1094.24 396.847C1102.6 396.847 1109.67 395.135 1115.43 391.713C1121.24 388.29 1125.45 384.351 1128.06 379.896L1115.91 371.584C1113.69 374.681 1110.75 377.37 1107.11 379.652C1103.53 381.933 1099.18 383.074 1094.07 383.074C1086.25 383.074 1080.41 380.358 1076.55 374.925C1072.7 369.492 1070.77 362.593 1070.77 354.226V350.722C1070.77 342.41 1072.59 335.537 1076.23 330.104C1079.87 324.671 1085.3 321.955 1092.53 321.955C1098.72 321.955 1103.42 323.965 1106.62 327.985C1109.83 331.951 1111.43 336.759 1111.43 342.41V344.039H1064.09V356.508H1128.95V349.907C1128.95 337.031 1125.75 326.899 1119.34 319.51C1112.93 312.067 1103.88 308.346 1092.2 308.346C1080.52 308.346 1071.07 312.312 1063.84 320.244C1056.62 328.175 1053 338.498 1053 351.211V353.818Z" fill="#004F77"/>
<path d="M1145.66 394.483H1163.34V337.357C1164.97 333.608 1167.42 330.512 1170.68 328.067C1173.99 325.622 1177.85 324.4 1182.25 324.4C1183.66 324.4 1184.94 324.481 1186.08 324.644C1187.28 324.753 1188.39 324.916 1189.42 325.133V309.568C1188.88 309.351 1187.98 309.106 1186.73 308.835C1185.48 308.563 1184.26 308.427 1183.06 308.427C1178.5 308.427 1174.54 309.704 1171.17 312.257C1167.8 314.756 1165.08 317.717 1163.02 321.14H1162.61L1162.12 310.709H1145.66V394.483Z" fill="#004F77"/>
<path d="M1193.09 310.709L1225.03 394.483H1240.03L1271.89 310.709H1255.51L1236.12 364.738C1235.41 366.803 1234.81 368.759 1234.32 370.606C1233.83 372.399 1233.48 373.866 1233.26 375.007H1232.78C1232.56 373.866 1232.2 372.399 1231.72 370.606C1231.23 368.759 1230.63 366.803 1229.92 364.738L1210.53 310.709H1193.09Z" fill="#004F77"/>
<path d="M1283.22 394.483H1300.9V310.709H1283.22V394.483ZM1281.34 285.039C1281.34 287.864 1282.27 290.254 1284.12 292.21C1285.96 294.166 1288.62 295.144 1292.1 295.144C1295.52 295.144 1298.16 294.166 1300.01 292.21C1301.85 290.254 1302.78 287.864 1302.78 285.039C1302.78 282.159 1301.85 279.769 1300.01 277.867C1298.16 275.912 1295.52 274.934 1292.1 274.934C1288.62 274.934 1285.96 275.912 1284.12 277.867C1282.27 279.769 1281.34 282.159 1281.34 285.039Z" fill="#004F77"/>
<path d="M1318.67 353.9C1318.67 366.776 1322.25 377.153 1329.43 385.03C1336.6 392.853 1346.32 396.765 1358.6 396.765C1370.12 396.765 1378.92 393.75 1385 387.719C1391.14 381.689 1394.21 374.653 1394.21 366.613V365.879H1377.1V366.531C1377.1 371.041 1375.63 374.925 1372.7 378.185C1369.76 381.39 1365.06 382.993 1358.6 382.993C1351.16 382.993 1345.64 380.304 1342.06 374.925C1338.47 369.492 1336.68 362.62 1336.68 354.307V350.803C1336.68 342.382 1338.5 335.51 1342.14 330.186C1345.78 324.861 1351.27 322.199 1358.6 322.199C1364.9 322.199 1369.55 323.775 1372.53 326.926C1375.52 330.077 1377.02 333.934 1377.02 338.498V339.231H1394.21L1394.13 338.335C1394.02 330.294 1390.95 323.286 1384.92 317.31C1378.89 311.334 1370.12 308.346 1358.6 308.346C1346.32 308.346 1336.6 312.284 1329.43 320.162C1322.25 327.985 1318.67 338.335 1318.67 351.211V353.9Z" fill="#004F77"/>
<path d="M1405.21 353.818C1405.21 366.64 1408.8 377.017 1415.97 384.949C1423.2 392.881 1433.36 396.847 1446.45 396.847C1454.82 396.847 1461.88 395.135 1467.64 391.713C1473.45 388.29 1477.66 384.351 1480.27 379.896L1468.13 371.584C1465.9 374.681 1462.96 377.37 1459.32 379.652C1455.74 381.933 1451.39 383.074 1446.29 383.074C1438.46 383.074 1432.62 380.358 1428.76 374.925C1424.91 369.492 1422.98 362.593 1422.98 354.226V350.722C1422.98 342.41 1424.8 335.537 1428.44 330.104C1432.08 324.671 1437.51 321.955 1444.74 321.955C1450.93 321.955 1455.63 323.965 1458.84 327.985C1462.04 331.951 1463.64 336.759 1463.64 342.41V344.039H1416.3V356.508H1481.16V349.907C1481.16 337.031 1477.96 326.899 1471.55 319.51C1465.14 312.067 1456.09 308.346 1444.41 308.346C1432.73 308.346 1423.28 312.312 1416.05 320.244C1408.83 328.175 1405.21 338.498 1405.21 351.211V353.818Z" fill="#004F77"/>
<path d="M1492.9 369.058V369.791C1492.95 378.158 1496 384.758 1502.03 389.594C1508.11 394.375 1516.86 396.765 1528.27 396.765C1539.78 396.765 1548.45 394.402 1554.26 389.675C1560.08 384.894 1562.98 378.565 1562.98 370.687C1562.98 363.407 1560.57 357.784 1555.73 353.818C1550.89 349.798 1543.83 346.729 1534.54 344.61C1525.58 342.6 1519.63 340.725 1516.7 338.987C1513.82 337.194 1512.38 334.804 1512.38 331.815C1512.38 328.773 1513.6 326.328 1516.04 324.481C1518.54 322.58 1522.45 321.629 1527.78 321.629C1533.16 321.629 1537.15 322.688 1539.76 324.807C1542.42 326.872 1543.75 329.86 1543.75 333.771V334.831H1560.95V334.097C1560.95 326.111 1557.93 319.836 1551.9 315.272C1545.87 310.655 1537.86 308.346 1527.86 308.346C1517.86 308.346 1509.9 310.6 1503.98 315.11C1498.06 319.619 1495.1 325.541 1495.1 332.875C1495.1 339.72 1497.57 345.126 1502.52 349.092C1507.51 353.004 1514.69 356.019 1524.03 358.138C1532.94 360.202 1538.75 362.158 1541.47 364.005C1544.19 365.798 1545.54 368.46 1545.54 371.991C1545.54 375.523 1544.02 378.348 1540.98 380.467C1537.94 382.585 1533.67 383.645 1528.19 383.645C1522.75 383.645 1518.41 382.531 1515.15 380.304C1511.89 378.076 1510.26 374.626 1510.26 369.954V369.058H1492.9Z" fill="#004F77"/>
</svg>
