<svg width="220" height="220" viewBox="0 0 220 220" fill="none" xmlns="http://www.w3.org/2000/svg">
<path d="M100 5.7735C106.188 2.20085 113.812 2.20085 120 5.7735L195.263 49.2265C201.451 52.7992 205.263 59.4017 205.263 66.547V153.453C205.263 160.598 201.451 167.201 195.263 170.773L120 214.227C113.812 217.799 106.188 217.799 100 214.227L24.7372 170.773C18.5492 167.201 14.7372 160.598 14.7372 153.453V66.547C14.7372 59.4017 18.5492 52.7992 24.7372 49.2265L100 5.7735Z" fill="url(#paint0_linear_201_14)"/>
<path d="M73.9906 116.358C72.1497 116.358 70.5133 116.043 69.0815 115.412C67.6582 114.781 66.5332 113.903 65.7065 112.778C64.8798 111.653 64.4409 110.354 64.3897 108.879H69.1966C69.2392 109.587 69.4735 110.205 69.8997 110.733C70.3258 111.253 70.8926 111.658 71.6 111.947C72.3074 112.237 73.1 112.382 73.9778 112.382C74.9153 112.382 75.7463 112.22 76.4707 111.896C77.1951 111.564 77.7619 111.104 78.171 110.516C78.5801 109.928 78.7804 109.25 78.7718 108.483C78.7804 107.69 78.5758 106.991 78.1582 106.386C77.7406 105.781 77.1355 105.308 76.3429 104.967C75.5588 104.626 74.6127 104.456 73.5048 104.456H71.1909V100.8H73.5048C74.4167 100.8 75.2136 100.642 75.8954 100.327C76.5858 100.011 77.127 99.5682 77.519 98.9972C77.911 98.4176 78.1028 97.7486 78.0943 96.9901C78.1028 96.2486 77.9366 95.6051 77.5957 95.0597C77.2633 94.5057 76.7903 94.0753 76.1767 93.7685C75.5716 93.4616 74.8599 93.3082 74.0417 93.3082C73.2406 93.3082 72.4991 93.4531 71.8173 93.7429C71.1355 94.0327 70.5858 94.446 70.1681 94.983C69.7505 95.5114 69.5289 96.142 69.5034 96.875H64.9395C64.9735 95.4091 65.3954 94.1222 66.2051 93.0142C67.0233 91.8977 68.1142 91.0284 69.4778 90.4062C70.8414 89.7756 72.3713 89.4602 74.0673 89.4602C75.8145 89.4602 77.3315 89.7884 78.6184 90.4446C79.9139 91.0923 80.9153 91.9659 81.6227 93.0653C82.3301 94.1648 82.6838 95.3793 82.6838 96.7088C82.6923 98.1832 82.2576 99.419 81.3798 100.416C80.5105 101.413 79.3684 102.065 77.9537 102.372V102.577C79.7946 102.832 81.2051 103.514 82.1852 104.622C83.1738 105.722 83.6639 107.089 83.6554 108.726C83.6554 110.192 83.2377 111.504 82.4025 112.663C81.5758 113.814 80.4338 114.717 78.9764 115.374C77.5275 116.03 75.8656 116.358 73.9906 116.358ZM97.1458 116.358C95.4412 116.358 93.9157 116.038 92.5691 115.399C91.2225 114.751 90.1529 113.865 89.3603 112.74C88.5762 111.615 88.1586 110.328 88.1074 108.879H92.7097C92.7949 109.953 93.2594 110.831 94.1032 111.513C94.9469 112.186 95.9611 112.523 97.1458 112.523C98.0748 112.523 98.9015 112.31 99.6259 111.884C100.35 111.457 100.921 110.865 101.339 110.107C101.757 109.348 101.961 108.483 101.953 107.511C101.961 106.523 101.752 105.645 101.326 104.878C100.9 104.111 100.316 103.51 99.5748 103.075C98.8333 102.632 97.981 102.411 97.0179 102.411C96.2338 102.402 95.4625 102.547 94.704 102.845C93.9455 103.143 93.3446 103.536 92.9015 104.021L88.6188 103.318L89.9867 89.8182H105.174V93.7812H93.9114L93.1571 100.723H93.3105C93.7963 100.152 94.4824 99.679 95.3688 99.304C96.2551 98.9205 97.2267 98.7287 98.2836 98.7287C99.8688 98.7287 101.284 99.1037 102.528 99.8537C103.772 100.595 104.752 101.618 105.468 102.922C106.184 104.226 106.542 105.717 106.542 107.396C106.542 109.126 106.142 110.669 105.34 112.024C104.548 113.371 103.444 114.432 102.029 115.207C100.623 115.974 98.9952 116.358 97.1458 116.358ZM120.502 116.499C118.397 116.499 116.59 115.966 115.082 114.901C113.582 113.827 112.427 112.28 111.617 110.26C110.816 108.232 110.416 105.79 110.416 102.935C110.424 100.08 110.829 97.6506 111.63 95.6477C112.44 93.6364 113.595 92.1023 115.095 91.0455C116.603 89.9886 118.406 89.4602 120.502 89.4602C122.599 89.4602 124.401 89.9886 125.91 91.0455C127.419 92.1023 128.573 93.6364 129.374 95.6477C130.184 97.6591 130.589 100.088 130.589 102.935C130.589 105.798 130.184 108.244 129.374 110.273C128.573 112.293 127.419 113.835 125.91 114.901C124.41 115.966 122.607 116.499 120.502 116.499ZM120.502 112.497C122.139 112.497 123.43 111.692 124.376 110.081C125.33 108.462 125.808 106.08 125.808 102.935C125.808 100.855 125.59 99.108 125.156 97.6932C124.721 96.2784 124.107 95.2131 123.315 94.4972C122.522 93.7727 121.585 93.4105 120.502 93.4105C118.874 93.4105 117.588 94.2202 116.642 95.8395C115.695 97.4503 115.218 99.8153 115.21 102.935C115.201 105.023 115.41 106.778 115.836 108.202C116.271 109.625 116.884 110.699 117.677 111.423C118.47 112.139 119.411 112.497 120.502 112.497ZM142.609 111.807V94.1136H146.623V111.807H142.609ZM135.77 104.967V100.953H153.463V104.967H135.77Z" fill="white"/>
<path d="M43.4091 137V125.364H44.8182V130.545H51.0227V125.364H52.4318V137H51.0227V131.795H44.8182V137H43.4091ZM57.6392 137.205C57.0862 137.205 56.5843 137.1 56.1335 136.892C55.6828 136.68 55.3248 136.375 55.0597 135.977C54.7945 135.576 54.6619 135.091 54.6619 134.523C54.6619 134.023 54.7604 133.617 54.9574 133.307C55.1544 132.992 55.4176 132.746 55.7472 132.568C56.0767 132.39 56.4403 132.258 56.8381 132.17C57.2396 132.08 57.643 132.008 58.0483 131.955C58.5786 131.886 59.0085 131.835 59.3381 131.801C59.6714 131.763 59.9138 131.701 60.0653 131.614C60.2206 131.527 60.2983 131.375 60.2983 131.159V131.114C60.2983 130.553 60.1449 130.117 59.8381 129.807C59.535 129.496 59.0748 129.341 58.4574 129.341C57.8172 129.341 57.3153 129.481 56.9517 129.761C56.5881 130.042 56.3324 130.341 56.1847 130.659L54.9119 130.205C55.1392 129.674 55.4422 129.261 55.821 128.966C56.2036 128.667 56.6203 128.458 57.071 128.341C57.5256 128.22 57.9725 128.159 58.4119 128.159C58.6922 128.159 59.0142 128.193 59.3778 128.261C59.7453 128.326 60.0994 128.46 60.4403 128.665C60.785 128.869 61.071 129.178 61.2983 129.591C61.5256 130.004 61.6392 130.557 61.6392 131.25V137H60.2983V135.818H60.2301C60.1392 136.008 59.9877 136.21 59.7756 136.426C59.5634 136.642 59.2813 136.826 58.929 136.977C58.5767 137.129 58.1468 137.205 57.6392 137.205ZM57.8438 136C58.3741 136 58.821 135.896 59.1847 135.688C59.5521 135.479 59.8286 135.21 60.0142 134.881C60.2036 134.551 60.2983 134.205 60.2983 133.841V132.614C60.2415 132.682 60.1165 132.744 59.9233 132.801C59.7339 132.854 59.5142 132.902 59.2642 132.943C59.018 132.981 58.7775 133.015 58.5426 133.045C58.3116 133.072 58.1241 133.095 57.9801 133.114C57.6316 133.159 57.3059 133.233 57.0028 133.335C56.7036 133.434 56.4612 133.583 56.2756 133.784C56.0938 133.981 56.0028 134.25 56.0028 134.591C56.0028 135.057 56.1752 135.409 56.5199 135.648C56.8684 135.883 57.3097 136 57.8438 136ZM64.0866 140.273V128.273H65.3821V129.659H65.5412C65.6397 129.508 65.776 129.314 65.9503 129.08C66.1283 128.841 66.3821 128.629 66.7116 128.443C67.045 128.254 67.4957 128.159 68.0639 128.159C68.7988 128.159 69.4465 128.343 70.0071 128.71C70.5677 129.078 71.0052 129.598 71.3196 130.273C71.634 130.947 71.7912 131.742 71.7912 132.659C71.7912 133.583 71.634 134.384 71.3196 135.062C71.0052 135.737 70.5696 136.259 70.0128 136.631C69.456 136.998 68.8139 137.182 68.0866 137.182C67.526 137.182 67.0772 137.089 66.7401 136.903C66.4029 136.714 66.1435 136.5 65.9616 136.261C65.7798 136.019 65.6397 135.818 65.5412 135.659H65.4276V140.273H64.0866ZM65.4048 132.636C65.4048 133.295 65.5014 133.877 65.6946 134.381C65.8878 134.881 66.17 135.273 66.5412 135.557C66.9124 135.837 67.367 135.977 67.9048 135.977C68.4654 135.977 68.9332 135.83 69.3082 135.534C69.687 135.235 69.9711 134.833 70.1605 134.33C70.3537 133.822 70.4503 133.258 70.4503 132.636C70.4503 132.023 70.3556 131.47 70.1662 130.977C69.9806 130.481 69.6984 130.089 69.3196 129.801C68.9446 129.509 68.473 129.364 67.9048 129.364C67.3594 129.364 66.901 129.502 66.5298 129.778C66.1586 130.051 65.8783 130.434 65.6889 130.926C65.4995 131.415 65.4048 131.985 65.4048 132.636ZM73.8366 140.273V128.273H75.1321V129.659H75.2912C75.3897 129.508 75.526 129.314 75.7003 129.08C75.8783 128.841 76.1321 128.629 76.4616 128.443C76.795 128.254 77.2457 128.159 77.8139 128.159C78.5488 128.159 79.1965 128.343 79.7571 128.71C80.3177 129.078 80.7552 129.598 81.0696 130.273C81.384 130.947 81.5412 131.742 81.5412 132.659C81.5412 133.583 81.384 134.384 81.0696 135.062C80.7552 135.737 80.3196 136.259 79.7628 136.631C79.206 136.998 78.5639 137.182 77.8366 137.182C77.276 137.182 76.8272 137.089 76.4901 136.903C76.1529 136.714 75.8935 136.5 75.7116 136.261C75.5298 136.019 75.3897 135.818 75.2912 135.659H75.1776V140.273H73.8366ZM75.1548 132.636C75.1548 133.295 75.2514 133.877 75.4446 134.381C75.6378 134.881 75.92 135.273 76.2912 135.557C76.6624 135.837 77.117 135.977 77.6548 135.977C78.2154 135.977 78.6832 135.83 79.0582 135.534C79.437 135.235 79.7211 134.833 79.9105 134.33C80.1037 133.822 80.2003 133.258 80.2003 132.636C80.2003 132.023 80.1056 131.47 79.9162 130.977C79.7306 130.481 79.4484 130.089 79.0696 129.801C78.6946 129.509 78.223 129.364 77.6548 129.364C77.1094 129.364 76.651 129.502 76.2798 129.778C75.9086 130.051 75.6283 130.434 75.4389 130.926C75.2495 131.415 75.1548 131.985 75.1548 132.636ZM84.1378 140.273C83.9105 140.273 83.7079 140.254 83.5298 140.216C83.3518 140.182 83.2287 140.148 83.1605 140.114L83.5014 138.932C83.8272 139.015 84.1151 139.045 84.3651 139.023C84.6151 139 84.8366 138.888 85.0298 138.688C85.2268 138.491 85.4067 138.17 85.5696 137.727L85.8196 137.045L82.5923 128.273H84.0469L86.456 135.227H86.5469L88.956 128.273H90.4105L86.706 138.273C86.5393 138.723 86.3329 139.097 86.0866 139.392C85.8404 139.691 85.5545 139.913 85.2287 140.057C84.9067 140.201 84.5431 140.273 84.1378 140.273ZM106.226 129H104.817C104.733 128.595 104.588 128.239 104.379 127.932C104.175 127.625 103.925 127.367 103.629 127.159C103.338 126.947 103.014 126.788 102.658 126.682C102.302 126.576 101.93 126.523 101.544 126.523C100.839 126.523 100.201 126.701 99.6293 127.057C99.0611 127.413 98.6084 127.938 98.2713 128.631C97.938 129.324 97.7713 130.174 97.7713 131.182C97.7713 132.189 97.938 133.04 98.2713 133.733C98.6084 134.426 99.0611 134.951 99.6293 135.307C100.201 135.663 100.839 135.841 101.544 135.841C101.93 135.841 102.302 135.788 102.658 135.682C103.014 135.576 103.338 135.419 103.629 135.21C103.925 134.998 104.175 134.739 104.379 134.432C104.588 134.121 104.733 133.765 104.817 133.364H106.226C106.12 133.958 105.927 134.491 105.646 134.96C105.366 135.43 105.018 135.83 104.601 136.159C104.184 136.485 103.716 136.733 103.197 136.903C102.682 137.074 102.131 137.159 101.544 137.159C100.552 137.159 99.669 136.917 98.8963 136.432C98.1236 135.947 97.5156 135.258 97.0724 134.364C96.6293 133.47 96.4077 132.409 96.4077 131.182C96.4077 129.955 96.6293 128.894 97.0724 128C97.5156 127.106 98.1236 126.417 98.8963 125.932C99.669 125.447 100.552 125.205 101.544 125.205C102.131 125.205 102.682 125.29 103.197 125.46C103.716 125.631 104.184 125.881 104.601 126.21C105.018 126.536 105.366 126.934 105.646 127.403C105.927 127.869 106.12 128.402 106.226 129ZM113.821 133.432V128.273H115.162V137H113.821V135.523H113.73C113.526 135.966 113.207 136.343 112.776 136.653C112.344 136.96 111.798 137.114 111.139 137.114C110.594 137.114 110.109 136.994 109.685 136.756C109.26 136.513 108.927 136.15 108.685 135.665C108.442 135.176 108.321 134.561 108.321 133.818V128.273H109.662V133.727C109.662 134.364 109.84 134.871 110.196 135.25C110.556 135.629 111.014 135.818 111.571 135.818C111.904 135.818 112.243 135.733 112.588 135.562C112.937 135.392 113.228 135.131 113.463 134.778C113.702 134.426 113.821 133.977 113.821 133.432ZM123.8 130.227L122.595 130.568C122.519 130.367 122.408 130.172 122.26 129.983C122.116 129.79 121.919 129.631 121.669 129.506C121.419 129.381 121.099 129.318 120.709 129.318C120.175 129.318 119.73 129.441 119.374 129.688C119.021 129.93 118.845 130.239 118.845 130.614C118.845 130.947 118.966 131.21 119.209 131.403C119.451 131.597 119.83 131.758 120.345 131.886L121.641 132.205C122.421 132.394 123.002 132.684 123.385 133.074C123.768 133.46 123.959 133.958 123.959 134.568C123.959 135.068 123.815 135.515 123.527 135.909C123.243 136.303 122.845 136.614 122.334 136.841C121.822 137.068 121.228 137.182 120.55 137.182C119.66 137.182 118.923 136.989 118.339 136.602C117.756 136.216 117.387 135.652 117.232 134.909L118.504 134.591C118.625 135.061 118.855 135.413 119.192 135.648C119.533 135.883 119.978 136 120.527 136C121.152 136 121.648 135.867 122.016 135.602C122.387 135.333 122.572 135.011 122.572 134.636C122.572 134.333 122.466 134.08 122.254 133.875C122.042 133.667 121.716 133.511 121.277 133.409L119.822 133.068C119.023 132.879 118.436 132.585 118.061 132.188C117.69 131.786 117.504 131.284 117.504 130.682C117.504 130.189 117.643 129.754 117.919 129.375C118.199 128.996 118.58 128.699 119.061 128.483C119.546 128.267 120.095 128.159 120.709 128.159C121.572 128.159 122.25 128.348 122.743 128.727C123.239 129.106 123.591 129.606 123.8 130.227ZM129.773 128.273V129.409H125.25V128.273H129.773ZM126.568 126.182H127.909V134.5C127.909 134.879 127.964 135.163 128.074 135.352C128.188 135.538 128.331 135.663 128.506 135.727C128.684 135.788 128.871 135.818 129.068 135.818C129.216 135.818 129.337 135.811 129.432 135.795C129.527 135.777 129.602 135.761 129.659 135.75L129.932 136.955C129.841 136.989 129.714 137.023 129.551 137.057C129.388 137.095 129.182 137.114 128.932 137.114C128.553 137.114 128.182 137.032 127.818 136.869C127.458 136.706 127.159 136.458 126.92 136.125C126.686 135.792 126.568 135.371 126.568 134.864V126.182ZM135.241 137.182C134.454 137.182 133.762 136.994 133.168 136.619C132.577 136.244 132.115 135.72 131.781 135.045C131.452 134.371 131.287 133.583 131.287 132.682C131.287 131.773 131.452 130.979 131.781 130.301C132.115 129.623 132.577 129.097 133.168 128.722C133.762 128.347 134.454 128.159 135.241 128.159C136.029 128.159 136.719 128.347 137.31 128.722C137.904 129.097 138.366 129.623 138.696 130.301C139.029 130.979 139.196 131.773 139.196 132.682C139.196 133.583 139.029 134.371 138.696 135.045C138.366 135.72 137.904 136.244 137.31 136.619C136.719 136.994 136.029 137.182 135.241 137.182ZM135.241 135.977C135.84 135.977 136.332 135.824 136.719 135.517C137.105 135.21 137.391 134.807 137.577 134.307C137.762 133.807 137.855 133.265 137.855 132.682C137.855 132.098 137.762 131.555 137.577 131.051C137.391 130.547 137.105 130.14 136.719 129.83C136.332 129.519 135.84 129.364 135.241 129.364C134.643 129.364 134.151 129.519 133.764 129.83C133.378 130.14 133.092 130.547 132.906 131.051C132.721 131.555 132.628 132.098 132.628 132.682C132.628 133.265 132.721 133.807 132.906 134.307C133.092 134.807 133.378 135.21 133.764 135.517C134.151 135.824 134.643 135.977 135.241 135.977ZM141.243 137V128.273H142.538V129.636H142.652C142.834 129.17 143.127 128.809 143.533 128.551C143.938 128.29 144.425 128.159 144.993 128.159C145.569 128.159 146.048 128.29 146.43 128.551C146.817 128.809 147.118 129.17 147.334 129.636H147.425C147.648 129.186 147.983 128.828 148.43 128.562C148.877 128.294 149.413 128.159 150.038 128.159C150.819 128.159 151.457 128.403 151.953 128.892C152.449 129.377 152.697 130.133 152.697 131.159V137H151.357V131.159C151.357 130.515 151.18 130.055 150.828 129.778C150.476 129.502 150.061 129.364 149.584 129.364C148.97 129.364 148.495 129.549 148.158 129.92C147.821 130.288 147.652 130.754 147.652 131.318V137H146.288V131.023C146.288 130.527 146.127 130.127 145.805 129.824C145.483 129.517 145.069 129.364 144.561 129.364C144.213 129.364 143.887 129.456 143.584 129.642C143.285 129.828 143.042 130.085 142.857 130.415C142.675 130.741 142.584 131.117 142.584 131.545V137H141.243ZM158.808 137.182C157.967 137.182 157.242 136.996 156.632 136.625C156.026 136.25 155.558 135.727 155.229 135.057C154.903 134.383 154.74 133.598 154.74 132.705C154.74 131.811 154.903 131.023 155.229 130.341C155.558 129.655 156.017 129.121 156.604 128.739C157.195 128.352 157.884 128.159 158.672 128.159C159.126 128.159 159.575 128.235 160.018 128.386C160.462 128.538 160.865 128.784 161.229 129.125C161.592 129.462 161.882 129.909 162.098 130.466C162.314 131.023 162.422 131.708 162.422 132.523V133.091H155.695V131.932H161.058C161.058 131.439 160.96 131 160.763 130.614C160.57 130.227 160.293 129.922 159.933 129.699C159.577 129.475 159.157 129.364 158.672 129.364C158.138 129.364 157.676 129.496 157.286 129.761C156.899 130.023 156.602 130.364 156.393 130.784C156.185 131.205 156.081 131.655 156.081 132.136V132.909C156.081 133.568 156.195 134.127 156.422 134.585C156.653 135.04 156.973 135.386 157.382 135.625C157.791 135.86 158.267 135.977 158.808 135.977C159.161 135.977 159.479 135.928 159.763 135.83C160.051 135.727 160.299 135.576 160.507 135.375C160.715 135.17 160.876 134.917 160.99 134.614L162.286 134.977C162.149 135.417 161.92 135.803 161.598 136.136C161.276 136.466 160.878 136.723 160.405 136.909C159.931 137.091 159.399 137.182 158.808 137.182ZM164.462 137V128.273H165.757V129.591H165.848C166.007 129.159 166.295 128.809 166.712 128.54C167.128 128.271 167.598 128.136 168.121 128.136C168.219 128.136 168.342 128.138 168.49 128.142C168.638 128.146 168.75 128.152 168.825 128.159V129.523C168.78 129.511 168.676 129.494 168.513 129.472C168.354 129.445 168.185 129.432 168.007 129.432C167.583 129.432 167.204 129.521 166.871 129.699C166.541 129.873 166.28 130.116 166.087 130.426C165.897 130.733 165.803 131.083 165.803 131.477V137H164.462ZM176.597 130.227L175.392 130.568C175.316 130.367 175.205 130.172 175.057 129.983C174.913 129.79 174.716 129.631 174.466 129.506C174.216 129.381 173.896 129.318 173.506 129.318C172.972 129.318 172.527 129.441 172.17 129.688C171.818 129.93 171.642 130.239 171.642 130.614C171.642 130.947 171.763 131.21 172.006 131.403C172.248 131.597 172.627 131.758 173.142 131.886L174.438 132.205C175.218 132.394 175.799 132.684 176.182 133.074C176.564 133.46 176.756 133.958 176.756 134.568C176.756 135.068 176.612 135.515 176.324 135.909C176.04 136.303 175.642 136.614 175.131 136.841C174.619 137.068 174.025 137.182 173.347 137.182C172.456 137.182 171.72 136.989 171.136 136.602C170.553 136.216 170.184 135.652 170.028 134.909L171.301 134.591C171.422 135.061 171.652 135.413 171.989 135.648C172.33 135.883 172.775 136 173.324 136C173.949 136 174.445 135.867 174.812 135.602C175.184 135.333 175.369 135.011 175.369 134.636C175.369 134.333 175.263 134.08 175.051 133.875C174.839 133.667 174.513 133.511 174.074 133.409L172.619 133.068C171.82 132.879 171.233 132.585 170.858 132.188C170.487 131.786 170.301 131.284 170.301 130.682C170.301 130.189 170.439 129.754 170.716 129.375C170.996 128.996 171.377 128.699 171.858 128.483C172.343 128.267 172.892 128.159 173.506 128.159C174.369 128.159 175.047 128.348 175.54 128.727C176.036 129.106 176.388 129.606 176.597 130.227Z" fill="white"/>
<defs>
<linearGradient id="paint0_linear_201_14" x1="114.706" y1="-21.151" x2="109.633" y2="242.97" gradientUnits="userSpaceOnUse">
<stop stop-color="#04AEED"/>
<stop offset="1" stop-color="#635BFF"/>
</linearGradient>
</defs>
</svg>
