<svg width="225" height="225" viewBox="0 0 225 225" fill="none" xmlns="http://www.w3.org/2000/svg">
<path d="M102.5 5.7735C108.688 2.20085 116.312 2.20085 122.5 5.7735L199.928 50.4765C206.116 54.0492 209.928 60.6517 209.928 67.797V157.203C209.928 164.348 206.116 170.951 199.928 174.523L122.5 219.227C116.312 222.799 108.688 222.799 102.5 219.227L25.0721 174.523C18.8841 170.951 15.0721 164.348 15.0721 157.203V67.797C15.0721 60.6517 18.8841 54.0492 25.0721 50.4765L102.5 5.7735Z" fill="url(#paint0_linear_201_15)"/>
<path d="M87.9212 119.358C86.2166 119.358 84.6911 119.038 83.3445 118.399C81.9979 117.751 80.9283 116.865 80.1357 115.74C79.3516 114.615 78.9339 113.328 78.8828 111.879H83.4851C83.5703 112.953 84.0348 113.831 84.8786 114.513C85.7223 115.186 86.7365 115.523 87.9212 115.523C88.8501 115.523 89.6768 115.31 90.4013 114.884C91.1257 114.457 91.6967 113.865 92.1143 113.107C92.532 112.348 92.7365 111.483 92.728 110.511C92.7365 109.523 92.5277 108.645 92.1016 107.878C91.6754 107.111 91.0916 106.51 90.3501 106.075C89.6087 105.632 88.7564 105.411 87.7933 105.411C87.0092 105.402 86.2379 105.547 85.4794 105.845C84.7209 106.143 84.12 106.536 83.6768 107.021L79.3942 106.318L80.7621 92.8182H95.9496V96.7812H84.6868L83.9325 103.723H84.0859C84.5717 103.152 85.2578 102.679 86.1442 102.304C87.0305 101.92 88.0021 101.729 89.0589 101.729C90.6442 101.729 92.0589 102.104 93.3033 102.854C94.5476 103.595 95.5277 104.618 96.2436 105.922C96.9595 107.226 97.3175 108.717 97.3175 110.396C97.3175 112.126 96.9169 113.669 96.1158 115.024C95.3232 116.371 94.2195 117.432 92.8047 118.207C91.3984 118.974 89.7706 119.358 87.9212 119.358ZM111.278 119.499C109.173 119.499 107.366 118.966 105.857 117.901C104.357 116.827 103.202 115.28 102.393 113.26C101.592 111.232 101.191 108.79 101.191 105.935C101.2 103.08 101.604 100.651 102.406 98.6477C103.215 96.6364 104.37 95.1023 105.87 94.0455C107.379 92.9886 109.181 92.4602 111.278 92.4602C113.374 92.4602 115.177 92.9886 116.685 94.0455C118.194 95.1023 119.349 96.6364 120.15 98.6477C120.96 100.659 121.364 103.088 121.364 105.935C121.364 108.798 120.96 111.244 120.15 113.273C119.349 115.293 118.194 116.835 116.685 117.901C115.185 118.966 113.383 119.499 111.278 119.499ZM111.278 115.497C112.914 115.497 114.205 114.692 115.151 113.081C116.106 111.462 116.583 109.08 116.583 105.935C116.583 103.855 116.366 102.108 115.931 100.693C115.496 99.2784 114.883 98.2131 114.09 97.4972C113.298 96.7727 112.36 96.4105 111.278 96.4105C109.65 96.4105 108.363 97.2202 107.417 98.8395C106.471 100.45 105.994 102.815 105.985 105.935C105.977 108.023 106.185 109.778 106.612 111.202C107.046 112.625 107.66 113.699 108.452 114.423C109.245 115.139 110.187 115.497 111.278 115.497ZM133.385 114.807V97.1136H137.399V114.807H133.385ZM126.545 107.967V103.953H144.238V107.967H126.545Z" fill="white"/>
<path d="M60.4091 140V128.364H64.3409C65.2538 128.364 66 128.528 66.5795 128.858C67.1629 129.184 67.5947 129.625 67.875 130.182C68.1553 130.739 68.2955 131.36 68.2955 132.045C68.2955 132.731 68.1553 133.354 67.875 133.915C67.5985 134.475 67.1705 134.922 66.5909 135.256C66.0114 135.585 65.2689 135.75 64.3636 135.75H61.5455V134.5H64.3182C64.9432 134.5 65.4451 134.392 65.8239 134.176C66.2027 133.96 66.4773 133.669 66.6477 133.301C66.822 132.93 66.9091 132.511 66.9091 132.045C66.9091 131.58 66.822 131.163 66.6477 130.795C66.4773 130.428 66.2008 130.14 65.8182 129.932C65.4356 129.72 64.928 129.614 64.2955 129.614H61.8182V140H60.4091ZM70.3835 140V131.273H71.679V132.591H71.7699C71.929 132.159 72.2169 131.809 72.6335 131.54C73.0502 131.271 73.5199 131.136 74.0426 131.136C74.1411 131.136 74.2642 131.138 74.4119 131.142C74.5597 131.146 74.6714 131.152 74.7472 131.159V132.523C74.7017 132.511 74.5975 132.494 74.4347 132.472C74.2756 132.445 74.107 132.432 73.929 132.432C73.5047 132.432 73.1259 132.521 72.7926 132.699C72.4631 132.873 72.2017 133.116 72.0085 133.426C71.8191 133.733 71.7244 134.083 71.7244 134.477V140H70.3835ZM79.6165 140.182C78.8286 140.182 78.1373 139.994 77.5426 139.619C76.9517 139.244 76.4896 138.72 76.1562 138.045C75.8267 137.371 75.6619 136.583 75.6619 135.682C75.6619 134.773 75.8267 133.979 76.1562 133.301C76.4896 132.623 76.9517 132.097 77.5426 131.722C78.1373 131.347 78.8286 131.159 79.6165 131.159C80.4044 131.159 81.0938 131.347 81.6847 131.722C82.2794 132.097 82.7415 132.623 83.071 133.301C83.4044 133.979 83.571 134.773 83.571 135.682C83.571 136.583 83.4044 137.371 83.071 138.045C82.7415 138.72 82.2794 139.244 81.6847 139.619C81.0938 139.994 80.4044 140.182 79.6165 140.182ZM79.6165 138.977C80.215 138.977 80.7074 138.824 81.0938 138.517C81.4801 138.21 81.7661 137.807 81.9517 137.307C82.1373 136.807 82.2301 136.265 82.2301 135.682C82.2301 135.098 82.1373 134.555 81.9517 134.051C81.7661 133.547 81.4801 133.14 81.0938 132.83C80.7074 132.519 80.215 132.364 79.6165 132.364C79.018 132.364 78.5256 132.519 78.1392 132.83C77.7528 133.14 77.4669 133.547 77.2812 134.051C77.0956 134.555 77.0028 135.098 77.0028 135.682C77.0028 136.265 77.0956 136.807 77.2812 137.307C77.4669 137.807 77.7528 138.21 78.1392 138.517C78.5256 138.824 79.018 138.977 79.6165 138.977ZM85.6179 131.273H86.9588V140.636C86.9588 141.174 86.866 141.64 86.6804 142.034C86.4986 142.428 86.2221 142.733 85.8509 142.949C85.4834 143.165 85.0194 143.273 84.4588 143.273C84.4134 143.273 84.3679 143.273 84.3224 143.273C84.277 143.273 84.2315 143.273 84.1861 143.273V142.023C84.2315 142.023 84.2732 142.023 84.3111 142.023C84.349 142.023 84.3906 142.023 84.4361 142.023C84.8452 142.023 85.1444 141.902 85.3338 141.659C85.5232 141.42 85.6179 141.08 85.6179 140.636V131.273ZM86.277 129.818C86.0156 129.818 85.7902 129.729 85.6009 129.551C85.4152 129.373 85.3224 129.159 85.3224 128.909C85.3224 128.659 85.4152 128.445 85.6009 128.267C85.7902 128.089 86.0156 128 86.277 128C86.5384 128 86.7618 128.089 86.9474 128.267C87.1368 128.445 87.2315 128.659 87.2315 128.909C87.2315 129.159 87.1368 129.373 86.9474 129.551C86.7618 129.729 86.5384 129.818 86.277 129.818ZM93.0739 140.182C92.233 140.182 91.5076 139.996 90.8977 139.625C90.2917 139.25 89.8239 138.727 89.4943 138.057C89.1686 137.383 89.0057 136.598 89.0057 135.705C89.0057 134.811 89.1686 134.023 89.4943 133.341C89.8239 132.655 90.2822 132.121 90.8693 131.739C91.4602 131.352 92.1496 131.159 92.9375 131.159C93.392 131.159 93.8409 131.235 94.2841 131.386C94.7273 131.538 95.1307 131.784 95.4943 132.125C95.858 132.462 96.1477 132.909 96.3636 133.466C96.5795 134.023 96.6875 134.708 96.6875 135.523V136.091H89.9602V134.932H95.3239C95.3239 134.439 95.2254 134 95.0284 133.614C94.8352 133.227 94.5587 132.922 94.1989 132.699C93.8428 132.475 93.4223 132.364 92.9375 132.364C92.4034 132.364 91.9413 132.496 91.5511 132.761C91.1648 133.023 90.8674 133.364 90.6591 133.784C90.4508 134.205 90.3466 134.655 90.3466 135.136V135.909C90.3466 136.568 90.4602 137.127 90.6875 137.585C90.9186 138.04 91.2386 138.386 91.6477 138.625C92.0568 138.86 92.5322 138.977 93.0739 138.977C93.4261 138.977 93.7443 138.928 94.0284 138.83C94.3163 138.727 94.5644 138.576 94.7727 138.375C94.9811 138.17 95.142 137.917 95.2557 137.614L96.5511 137.977C96.4148 138.417 96.1856 138.803 95.8636 139.136C95.5417 139.466 95.1439 139.723 94.6705 139.909C94.197 140.091 93.6648 140.182 93.0739 140.182ZM102.273 140.182C101.455 140.182 100.75 139.989 100.159 139.602C99.5682 139.216 99.1136 138.684 98.7955 138.006C98.4773 137.328 98.3182 136.553 98.3182 135.682C98.3182 134.795 98.4811 134.013 98.8068 133.335C99.1364 132.653 99.5947 132.121 100.182 131.739C100.773 131.352 101.462 131.159 102.25 131.159C102.864 131.159 103.417 131.273 103.909 131.5C104.402 131.727 104.805 132.045 105.119 132.455C105.434 132.864 105.629 133.341 105.705 133.886H104.364C104.261 133.489 104.034 133.136 103.682 132.83C103.333 132.519 102.864 132.364 102.273 132.364C101.75 132.364 101.292 132.5 100.898 132.773C100.508 133.042 100.203 133.422 99.983 133.915C99.767 134.403 99.6591 134.977 99.6591 135.636C99.6591 136.311 99.7652 136.898 99.9773 137.398C100.193 137.898 100.496 138.286 100.886 138.562C101.28 138.839 101.742 138.977 102.273 138.977C102.621 138.977 102.938 138.917 103.222 138.795C103.506 138.674 103.746 138.5 103.943 138.273C104.14 138.045 104.28 137.773 104.364 137.455H105.705C105.629 137.97 105.441 138.434 105.142 138.847C104.847 139.256 104.455 139.581 103.966 139.824C103.481 140.062 102.917 140.182 102.273 140.182ZM111.46 131.273V132.409H106.938V131.273H111.46ZM108.256 129.182H109.597V137.5C109.597 137.879 109.652 138.163 109.761 138.352C109.875 138.538 110.019 138.663 110.193 138.727C110.371 138.788 110.559 138.818 110.756 138.818C110.903 138.818 111.025 138.811 111.119 138.795C111.214 138.777 111.29 138.761 111.347 138.75L111.619 139.955C111.528 139.989 111.402 140.023 111.239 140.057C111.076 140.095 110.869 140.114 110.619 140.114C110.241 140.114 109.869 140.032 109.506 139.869C109.146 139.706 108.847 139.458 108.608 139.125C108.373 138.792 108.256 138.371 108.256 137.864V129.182ZM119.503 133.227L118.298 133.568C118.223 133.367 118.111 133.172 117.963 132.983C117.819 132.79 117.622 132.631 117.372 132.506C117.122 132.381 116.802 132.318 116.412 132.318C115.878 132.318 115.433 132.441 115.077 132.688C114.724 132.93 114.548 133.239 114.548 133.614C114.548 133.947 114.67 134.21 114.912 134.403C115.154 134.597 115.533 134.758 116.048 134.886L117.344 135.205C118.124 135.394 118.705 135.684 119.088 136.074C119.471 136.46 119.662 136.958 119.662 137.568C119.662 138.068 119.518 138.515 119.23 138.909C118.946 139.303 118.548 139.614 118.037 139.841C117.526 140.068 116.931 140.182 116.253 140.182C115.363 140.182 114.626 139.989 114.043 139.602C113.459 139.216 113.09 138.652 112.935 137.909L114.207 137.591C114.329 138.061 114.558 138.413 114.895 138.648C115.236 138.883 115.681 139 116.23 139C116.855 139 117.351 138.867 117.719 138.602C118.09 138.333 118.276 138.011 118.276 137.636C118.276 137.333 118.17 137.08 117.957 136.875C117.745 136.667 117.42 136.511 116.98 136.409L115.526 136.068C114.726 135.879 114.139 135.585 113.764 135.188C113.393 134.786 113.207 134.284 113.207 133.682C113.207 133.189 113.346 132.754 113.622 132.375C113.902 131.996 114.283 131.699 114.764 131.483C115.249 131.267 115.798 131.159 116.412 131.159C117.276 131.159 117.954 131.348 118.446 131.727C118.942 132.106 119.295 132.606 119.503 133.227ZM129.953 140H126.362V128.364H130.112C131.241 128.364 132.207 128.597 133.01 129.062C133.813 129.525 134.429 130.189 134.857 131.057C135.285 131.92 135.499 132.955 135.499 134.159C135.499 135.371 135.283 136.415 134.851 137.29C134.419 138.161 133.79 138.831 132.964 139.301C132.139 139.767 131.135 140 129.953 140ZM127.771 138.75H129.862C130.824 138.75 131.622 138.564 132.254 138.193C132.887 137.822 133.358 137.294 133.669 136.608C133.98 135.922 134.135 135.106 134.135 134.159C134.135 133.22 133.982 132.411 133.675 131.733C133.368 131.051 132.91 130.528 132.3 130.165C131.69 129.797 130.93 129.614 130.021 129.614H127.771V138.75ZM141.226 140.182C140.438 140.182 139.747 139.994 139.152 139.619C138.561 139.244 138.099 138.72 137.766 138.045C137.436 137.371 137.271 136.583 137.271 135.682C137.271 134.773 137.436 133.979 137.766 133.301C138.099 132.623 138.561 132.097 139.152 131.722C139.747 131.347 140.438 131.159 141.226 131.159C142.014 131.159 142.703 131.347 143.294 131.722C143.889 132.097 144.351 132.623 144.68 133.301C145.014 133.979 145.18 134.773 145.18 135.682C145.18 136.583 145.014 137.371 144.68 138.045C144.351 138.72 143.889 139.244 143.294 139.619C142.703 139.994 142.014 140.182 141.226 140.182ZM141.226 138.977C141.824 138.977 142.317 138.824 142.703 138.517C143.089 138.21 143.375 137.807 143.561 137.307C143.747 136.807 143.839 136.265 143.839 135.682C143.839 135.098 143.747 134.555 143.561 134.051C143.375 133.547 143.089 133.14 142.703 132.83C142.317 132.519 141.824 132.364 141.226 132.364C140.627 132.364 140.135 132.519 139.749 132.83C139.362 133.14 139.076 133.547 138.891 134.051C138.705 134.555 138.612 135.098 138.612 135.682C138.612 136.265 138.705 136.807 138.891 137.307C139.076 137.807 139.362 138.21 139.749 138.517C140.135 138.824 140.627 138.977 141.226 138.977ZM148.568 134.75V140H147.227V131.273H148.523V132.636H148.636C148.841 132.193 149.152 131.837 149.568 131.568C149.985 131.295 150.523 131.159 151.182 131.159C151.773 131.159 152.29 131.28 152.733 131.523C153.176 131.761 153.521 132.125 153.767 132.614C154.013 133.098 154.136 133.712 154.136 134.455V140H152.795V134.545C152.795 133.86 152.617 133.326 152.261 132.943C151.905 132.557 151.417 132.364 150.795 132.364C150.367 132.364 149.985 132.456 149.648 132.642C149.314 132.828 149.051 133.098 148.858 133.455C148.665 133.811 148.568 134.242 148.568 134.75ZM160.246 140.182C159.405 140.182 158.679 139.996 158.07 139.625C157.464 139.25 156.996 138.727 156.666 138.057C156.34 137.383 156.178 136.598 156.178 135.705C156.178 134.811 156.34 134.023 156.666 133.341C156.996 132.655 157.454 132.121 158.041 131.739C158.632 131.352 159.321 131.159 160.109 131.159C160.564 131.159 161.013 131.235 161.456 131.386C161.899 131.538 162.303 131.784 162.666 132.125C163.03 132.462 163.32 132.909 163.536 133.466C163.751 134.023 163.859 134.708 163.859 135.523V136.091H157.132V134.932H162.496C162.496 134.439 162.397 134 162.2 133.614C162.007 133.227 161.731 132.922 161.371 132.699C161.015 132.475 160.594 132.364 160.109 132.364C159.575 132.364 159.113 132.496 158.723 132.761C158.337 133.023 158.039 133.364 157.831 133.784C157.623 134.205 157.518 134.655 157.518 135.136V135.909C157.518 136.568 157.632 137.127 157.859 137.585C158.09 138.04 158.411 138.386 158.82 138.625C159.229 138.86 159.704 138.977 160.246 138.977C160.598 138.977 160.916 138.928 161.2 138.83C161.488 138.727 161.736 138.576 161.945 138.375C162.153 138.17 162.314 137.917 162.428 137.614L163.723 137.977C163.587 138.417 163.357 138.803 163.036 139.136C162.714 139.466 162.316 139.723 161.842 139.909C161.369 140.091 160.837 140.182 160.246 140.182Z" fill="white"/>
<defs>
<linearGradient id="paint0_linear_201_15" x1="117.313" y1="-21.6317" x2="112.124" y2="248.492" gradientUnits="userSpaceOnUse">
<stop stop-color="#04AEED"/>
<stop offset="1" stop-color="#635BFF"/>
</linearGradient>
</defs>
</svg>
