<svg width="225" height="225" viewBox="0 0 225 225" fill="none" xmlns="http://www.w3.org/2000/svg">
<path d="M102.5 5.7735C108.688 2.20085 116.312 2.20085 122.5 5.7735L199.928 50.4765C206.116 54.0492 209.928 60.6517 209.928 67.797V157.203C209.928 164.348 206.116 170.951 199.928 174.523L122.5 219.227C116.312 222.799 108.688 222.799 102.5 219.227L25.0721 174.523C18.8841 170.951 15.0721 164.348 15.0721 157.203V67.797C15.0721 60.6517 18.8841 54.0492 25.0721 50.4765L102.5 5.7735Z" fill="url(#paint0_linear_201_16)"/>
<path d="M93.3255 89.8182V116H88.5826V94.4332H88.4292L82.3056 98.3452V93.9986L88.8127 89.8182H93.3255ZM109.075 116.358C107.371 116.358 105.845 116.038 104.499 115.399C103.152 114.751 102.083 113.865 101.29 112.74C100.506 111.615 100.088 110.328 100.037 108.879H104.639C104.725 109.953 105.189 110.831 106.033 111.513C106.877 112.186 107.891 112.523 109.075 112.523C110.004 112.523 110.831 112.31 111.556 111.884C112.28 111.457 112.851 110.865 113.269 110.107C113.686 109.348 113.891 108.483 113.882 107.511C113.891 106.523 113.682 105.645 113.256 104.878C112.83 104.111 112.246 103.51 111.504 103.075C110.763 102.632 109.911 102.411 108.948 102.411C108.164 102.402 107.392 102.547 106.634 102.845C105.875 103.143 105.274 103.536 104.831 104.021L100.548 103.318L101.916 89.8182H117.104V93.7812H105.841L105.087 100.723H105.24C105.726 100.152 106.412 99.679 107.298 99.304C108.185 98.9205 109.156 98.7287 110.213 98.7287C111.798 98.7287 113.213 99.1037 114.458 99.8537C115.702 100.595 116.682 101.618 117.398 102.922C118.114 104.226 118.472 105.717 118.472 107.396C118.472 109.126 118.071 110.669 117.27 112.024C116.477 113.371 115.374 114.432 113.959 115.207C112.553 115.974 110.925 116.358 109.075 116.358ZM130.527 111.807V94.1136H134.541V111.807H130.527ZM123.688 104.967V100.953H141.381V104.967H123.688Z" fill="white"/>
<path d="M54.4091 137V125.364H58.3409C59.25 125.364 59.9962 125.519 60.5795 125.83C61.1629 126.136 61.5947 126.559 61.875 127.097C62.1553 127.634 62.2955 128.246 62.2955 128.932C62.2955 129.617 62.1553 130.225 61.875 130.756C61.5947 131.286 61.1648 131.703 60.5852 132.006C60.0057 132.305 59.2652 132.455 58.3636 132.455H55.1818V131.182H58.3182C58.9394 131.182 59.4394 131.091 59.8182 130.909C60.2008 130.727 60.4773 130.47 60.6477 130.136C60.822 129.799 60.9091 129.398 60.9091 128.932C60.9091 128.466 60.822 128.059 60.6477 127.71C60.4735 127.362 60.1951 127.093 59.8125 126.903C59.4299 126.71 58.9242 126.614 58.2955 126.614H55.8182V137H54.4091ZM59.8864 131.773L62.75 137H61.1136L58.2955 131.773H59.8864ZM69.9616 133.432V128.273H71.3026V137H69.9616V135.523H69.8707C69.6662 135.966 69.348 136.343 68.9162 136.653C68.4844 136.96 67.9389 137.114 67.2798 137.114C66.7344 137.114 66.2495 136.994 65.8253 136.756C65.401 136.513 65.0677 136.15 64.8253 135.665C64.5829 135.176 64.4616 134.561 64.4616 133.818V128.273H65.8026V133.727C65.8026 134.364 65.9806 134.871 66.3366 135.25C66.6965 135.629 67.1548 135.818 67.7116 135.818C68.045 135.818 68.384 135.733 68.7287 135.562C69.0772 135.392 69.3688 135.131 69.6037 134.778C69.8423 134.426 69.9616 133.977 69.9616 133.432ZM75.0994 131.75V137H73.7585V128.273H75.054V129.636H75.1676C75.3722 129.193 75.6828 128.837 76.0994 128.568C76.5161 128.295 77.054 128.159 77.7131 128.159C78.304 128.159 78.821 128.28 79.2642 128.523C79.7074 128.761 80.0521 129.125 80.2983 129.614C80.5445 130.098 80.6676 130.712 80.6676 131.455V137H79.3267V131.545C79.3267 130.86 79.1487 130.326 78.7926 129.943C78.4366 129.557 77.9479 129.364 77.3267 129.364C76.8987 129.364 76.5161 129.456 76.179 129.642C75.8456 129.828 75.5824 130.098 75.3892 130.455C75.196 130.811 75.0994 131.242 75.0994 131.75ZM84.4588 131.75V137H83.1179V128.273H84.4134V129.636H84.527C84.7315 129.193 85.0421 128.837 85.4588 128.568C85.8755 128.295 86.4134 128.159 87.0724 128.159C87.6634 128.159 88.1804 128.28 88.6236 128.523C89.0668 128.761 89.4115 129.125 89.6577 129.614C89.9039 130.098 90.027 130.712 90.027 131.455V137H88.6861V131.545C88.6861 130.86 88.508 130.326 88.152 129.943C87.7959 129.557 87.3073 129.364 86.6861 129.364C86.258 129.364 85.8755 129.456 85.5384 129.642C85.205 129.828 84.9418 130.098 84.7486 130.455C84.5554 130.811 84.4588 131.242 84.4588 131.75ZM92.4773 137V128.273H93.8182V137H92.4773ZM93.1591 126.818C92.8977 126.818 92.6723 126.729 92.483 126.551C92.2973 126.373 92.2045 126.159 92.2045 125.909C92.2045 125.659 92.2973 125.445 92.483 125.267C92.6723 125.089 92.8977 125 93.1591 125C93.4205 125 93.6439 125.089 93.8295 125.267C94.0189 125.445 94.1136 125.659 94.1136 125.909C94.1136 126.159 94.0189 126.373 93.8295 126.551C93.6439 126.729 93.4205 126.818 93.1591 126.818ZM97.6151 131.75V137H96.2741V128.273H97.5696V129.636H97.6832C97.8878 129.193 98.1984 128.837 98.6151 128.568C99.0317 128.295 99.5696 128.159 100.229 128.159C100.82 128.159 101.337 128.28 101.78 128.523C102.223 128.761 102.568 129.125 102.814 129.614C103.06 130.098 103.183 130.712 103.183 131.455V137H101.842V131.545C101.842 130.86 101.664 130.326 101.308 129.943C100.952 129.557 100.464 129.364 99.8423 129.364C99.4143 129.364 99.0317 129.456 98.6946 129.642C98.3613 129.828 98.098 130.098 97.9048 130.455C97.7116 130.811 97.6151 131.242 97.6151 131.75ZM109.156 140.455C108.509 140.455 107.952 140.371 107.486 140.205C107.02 140.042 106.632 139.826 106.321 139.557C106.014 139.292 105.77 139.008 105.588 138.705L106.656 137.955C106.777 138.114 106.931 138.295 107.116 138.5C107.302 138.708 107.556 138.888 107.878 139.04C108.204 139.195 108.63 139.273 109.156 139.273C109.861 139.273 110.442 139.102 110.901 138.761C111.359 138.42 111.588 137.886 111.588 137.159V135.386H111.474C111.376 135.545 111.236 135.742 111.054 135.977C110.876 136.208 110.618 136.415 110.281 136.597C109.948 136.775 109.497 136.864 108.929 136.864C108.224 136.864 107.592 136.697 107.031 136.364C106.474 136.03 106.033 135.545 105.707 134.909C105.385 134.273 105.224 133.5 105.224 132.591C105.224 131.697 105.382 130.919 105.696 130.256C106.01 129.589 106.448 129.074 107.009 128.71C107.569 128.343 108.217 128.159 108.952 128.159C109.52 128.159 109.971 128.254 110.304 128.443C110.641 128.629 110.899 128.841 111.077 129.08C111.259 129.314 111.399 129.508 111.497 129.659H111.634V128.273H112.929V137.25C112.929 138 112.759 138.61 112.418 139.08C112.08 139.553 111.626 139.9 111.054 140.119C110.486 140.343 109.853 140.455 109.156 140.455ZM109.111 135.659C109.649 135.659 110.103 135.536 110.474 135.29C110.846 135.044 111.128 134.689 111.321 134.227C111.514 133.765 111.611 133.212 111.611 132.568C111.611 131.939 111.516 131.384 111.327 130.903C111.137 130.422 110.857 130.045 110.486 129.773C110.115 129.5 109.656 129.364 109.111 129.364C108.543 129.364 108.069 129.508 107.69 129.795C107.315 130.083 107.033 130.47 106.844 130.955C106.658 131.439 106.565 131.977 106.565 132.568C106.565 133.174 106.66 133.71 106.849 134.176C107.043 134.638 107.327 135.002 107.702 135.267C108.08 135.528 108.55 135.659 109.111 135.659ZM120.065 137V125.364H123.997C124.91 125.364 125.656 125.528 126.236 125.858C126.819 126.184 127.251 126.625 127.531 127.182C127.812 127.739 127.952 128.36 127.952 129.045C127.952 129.731 127.812 130.354 127.531 130.915C127.255 131.475 126.827 131.922 126.247 132.256C125.668 132.585 124.925 132.75 124.02 132.75H121.202V131.5H123.974C124.599 131.5 125.101 131.392 125.48 131.176C125.859 130.96 126.134 130.669 126.304 130.301C126.478 129.93 126.565 129.511 126.565 129.045C126.565 128.58 126.478 128.163 126.304 127.795C126.134 127.428 125.857 127.14 125.474 126.932C125.092 126.72 124.584 126.614 123.952 126.614H121.474V137H120.065ZM130.04 137V128.273H131.335V129.591H131.426C131.585 129.159 131.873 128.809 132.29 128.54C132.706 128.271 133.176 128.136 133.699 128.136C133.797 128.136 133.92 128.138 134.068 128.142C134.216 128.146 134.328 128.152 134.403 128.159V129.523C134.358 129.511 134.254 129.494 134.091 129.472C133.932 129.445 133.763 129.432 133.585 129.432C133.161 129.432 132.782 129.521 132.449 129.699C132.119 129.873 131.858 130.116 131.665 130.426C131.475 130.733 131.381 131.083 131.381 131.477V137H130.04ZM139.273 137.182C138.485 137.182 137.794 136.994 137.199 136.619C136.608 136.244 136.146 135.72 135.812 135.045C135.483 134.371 135.318 133.583 135.318 132.682C135.318 131.773 135.483 130.979 135.812 130.301C136.146 129.623 136.608 129.097 137.199 128.722C137.794 128.347 138.485 128.159 139.273 128.159C140.061 128.159 140.75 128.347 141.341 128.722C141.936 129.097 142.398 129.623 142.727 130.301C143.061 130.979 143.227 131.773 143.227 132.682C143.227 133.583 143.061 134.371 142.727 135.045C142.398 135.72 141.936 136.244 141.341 136.619C140.75 136.994 140.061 137.182 139.273 137.182ZM139.273 135.977C139.871 135.977 140.364 135.824 140.75 135.517C141.136 135.21 141.422 134.807 141.608 134.307C141.794 133.807 141.886 133.265 141.886 132.682C141.886 132.098 141.794 131.555 141.608 131.051C141.422 130.547 141.136 130.14 140.75 129.83C140.364 129.519 139.871 129.364 139.273 129.364C138.674 129.364 138.182 129.519 137.795 129.83C137.409 130.14 137.123 130.547 136.938 131.051C136.752 131.555 136.659 132.098 136.659 132.682C136.659 133.265 136.752 133.807 136.938 134.307C137.123 134.807 137.409 135.21 137.795 135.517C138.182 135.824 138.674 135.977 139.273 135.977ZM145.274 128.273H146.615V137.636C146.615 138.174 146.522 138.64 146.337 139.034C146.155 139.428 145.878 139.733 145.507 139.949C145.14 140.165 144.676 140.273 144.115 140.273C144.07 140.273 144.024 140.273 143.979 140.273C143.933 140.273 143.888 140.273 143.842 140.273V139.023C143.888 139.023 143.929 139.023 143.967 139.023C144.005 139.023 144.047 139.023 144.092 139.023C144.501 139.023 144.801 138.902 144.99 138.659C145.179 138.42 145.274 138.08 145.274 137.636V128.273ZM145.933 126.818C145.672 126.818 145.446 126.729 145.257 126.551C145.071 126.373 144.979 126.159 144.979 125.909C144.979 125.659 145.071 125.445 145.257 125.267C145.446 125.089 145.672 125 145.933 125C146.195 125 146.418 125.089 146.604 125.267C146.793 125.445 146.888 125.659 146.888 125.909C146.888 126.159 146.793 126.373 146.604 126.551C146.418 126.729 146.195 126.818 145.933 126.818ZM152.73 137.182C151.889 137.182 151.164 136.996 150.554 136.625C149.948 136.25 149.48 135.727 149.151 135.057C148.825 134.383 148.662 133.598 148.662 132.705C148.662 131.811 148.825 131.023 149.151 130.341C149.48 129.655 149.938 129.121 150.526 128.739C151.116 128.352 151.806 128.159 152.594 128.159C153.048 128.159 153.497 128.235 153.94 128.386C154.384 128.538 154.787 128.784 155.151 129.125C155.514 129.462 155.804 129.909 156.02 130.466C156.236 131.023 156.344 131.708 156.344 132.523V133.091H149.616V131.932H154.98C154.98 131.439 154.882 131 154.685 130.614C154.491 130.227 154.215 129.922 153.855 129.699C153.499 129.475 153.079 129.364 152.594 129.364C152.06 129.364 151.598 129.496 151.207 129.761C150.821 130.023 150.524 130.364 150.315 130.784C150.107 131.205 150.003 131.655 150.003 132.136V132.909C150.003 133.568 150.116 134.127 150.344 134.585C150.575 135.04 150.895 135.386 151.304 135.625C151.713 135.86 152.188 135.977 152.73 135.977C153.082 135.977 153.401 135.928 153.685 135.83C153.973 135.727 154.221 135.576 154.429 135.375C154.637 135.17 154.798 134.917 154.912 134.614L156.207 134.977C156.071 135.417 155.842 135.803 155.52 136.136C155.198 136.466 154.8 136.723 154.327 136.909C153.853 137.091 153.321 137.182 152.73 137.182ZM161.929 137.182C161.111 137.182 160.406 136.989 159.815 136.602C159.224 136.216 158.77 135.684 158.452 135.006C158.134 134.328 157.974 133.553 157.974 132.682C157.974 131.795 158.137 131.013 158.463 130.335C158.793 129.653 159.251 129.121 159.838 128.739C160.429 128.352 161.118 128.159 161.906 128.159C162.52 128.159 163.073 128.273 163.565 128.5C164.058 128.727 164.461 129.045 164.776 129.455C165.09 129.864 165.285 130.341 165.361 130.886H164.02C163.918 130.489 163.69 130.136 163.338 129.83C162.99 129.519 162.52 129.364 161.929 129.364C161.406 129.364 160.948 129.5 160.554 129.773C160.164 130.042 159.859 130.422 159.639 130.915C159.423 131.403 159.315 131.977 159.315 132.636C159.315 133.311 159.421 133.898 159.634 134.398C159.849 134.898 160.152 135.286 160.543 135.562C160.937 135.839 161.399 135.977 161.929 135.977C162.277 135.977 162.594 135.917 162.878 135.795C163.162 135.674 163.402 135.5 163.599 135.273C163.796 135.045 163.937 134.773 164.02 134.455H165.361C165.285 134.97 165.098 135.434 164.798 135.847C164.503 136.256 164.111 136.581 163.622 136.824C163.137 137.062 162.573 137.182 161.929 137.182ZM171.116 128.273V129.409H166.594V128.273H171.116ZM167.912 126.182H169.253V134.5C169.253 134.879 169.308 135.163 169.418 135.352C169.531 135.538 169.675 135.663 169.849 135.727C170.027 135.788 170.215 135.818 170.412 135.818C170.56 135.818 170.681 135.811 170.776 135.795C170.87 135.777 170.946 135.761 171.003 135.75L171.276 136.955C171.185 136.989 171.058 137.023 170.895 137.057C170.732 137.095 170.526 137.114 170.276 137.114C169.897 137.114 169.526 137.032 169.162 136.869C168.802 136.706 168.503 136.458 168.264 136.125C168.029 135.792 167.912 135.371 167.912 134.864V126.182Z" fill="white"/>
<defs>
<linearGradient id="paint0_linear_201_16" x1="117.313" y1="-21.6317" x2="112.124" y2="248.492" gradientUnits="userSpaceOnUse">
<stop stop-color="#04AEED"/>
<stop offset="1" stop-color="#635BFF"/>
</linearGradient>
</defs>
</svg>
