<svg width="219" height="219" viewBox="0 0 219 219" fill="none" xmlns="http://www.w3.org/2000/svg">
<path d="M99.5 5.7735C105.688 2.20085 113.312 2.20085 119.5 5.7735L194.33 48.9765C200.518 52.5492 204.33 59.1517 204.33 66.297V152.703C204.33 159.848 200.518 166.451 194.33 170.023L119.5 213.227C113.312 216.799 105.688 216.799 99.5 213.227L24.6702 170.023C18.4822 166.451 14.6702 159.848 14.6702 152.703V66.297C14.6702 59.1517 18.4822 52.5492 24.6702 48.9765L99.5 5.7735Z" fill="url(#paint0_linear_201_17)"/>
<path d="M85.9759 92.8182V119H81.233V97.4332H81.0795L74.956 101.345V96.9986L81.4631 92.8182H85.9759ZM94.0842 119.281C93.3086 119.281 92.6438 119.009 92.0898 118.463C91.5359 117.918 91.2631 117.253 91.2717 116.469C91.2631 115.702 91.5359 115.045 92.0898 114.5C92.6438 113.955 93.3086 113.682 94.0842 113.682C94.8342 113.682 95.4862 113.955 96.0401 114.5C96.6026 115.045 96.8881 115.702 96.8967 116.469C96.8881 116.989 96.7518 117.462 96.4876 117.888C96.2319 118.314 95.891 118.655 95.4648 118.911C95.0472 119.158 94.587 119.281 94.0842 119.281ZM101.624 119V115.574L110.713 106.663C111.582 105.786 112.307 105.006 112.886 104.324C113.466 103.642 113.901 102.982 114.19 102.342C114.48 101.703 114.625 101.021 114.625 100.297C114.625 99.4702 114.438 98.7628 114.062 98.1747C113.688 97.5781 113.172 97.1179 112.516 96.794C111.859 96.4702 111.114 96.3082 110.278 96.3082C109.418 96.3082 108.663 96.4872 108.016 96.8452C107.368 97.1946 106.865 97.6932 106.507 98.3409C106.158 98.9886 105.983 99.7599 105.983 100.655H101.47C101.47 98.9929 101.849 97.5483 102.608 96.321C103.366 95.0937 104.411 94.1435 105.74 93.4702C107.078 92.7969 108.612 92.4602 110.342 92.4602C112.098 92.4602 113.641 92.7884 114.97 93.4446C116.3 94.1009 117.331 95 118.064 96.142C118.805 97.2841 119.176 98.5881 119.176 100.054C119.176 101.034 118.989 101.997 118.614 102.943C118.239 103.889 117.578 104.937 116.632 106.088C115.695 107.239 114.378 108.632 112.682 110.268L108.169 114.858V115.037H119.572V119H101.624ZM124.239 119V92.8182H128.982V104.848H129.301L139.516 92.8182H145.307L135.182 104.567L145.396 119H139.695L131.884 107.776L128.982 111.202V119H124.239Z" fill="white"/>
<path d="M47.4091 140V128.364H51.3409C52.2538 128.364 53 128.528 53.5795 128.858C54.1629 129.184 54.5947 129.625 54.875 130.182C55.1553 130.739 55.2955 131.36 55.2955 132.045C55.2955 132.731 55.1553 133.354 54.875 133.915C54.5985 134.475 54.1705 134.922 53.5909 135.256C53.0114 135.585 52.2689 135.75 51.3636 135.75H48.5455V134.5H51.3182C51.9432 134.5 52.4451 134.392 52.8239 134.176C53.2027 133.96 53.4773 133.669 53.6477 133.301C53.822 132.93 53.9091 132.511 53.9091 132.045C53.9091 131.58 53.822 131.163 53.6477 130.795C53.4773 130.428 53.2008 130.14 52.8182 129.932C52.4356 129.72 51.928 129.614 51.2955 129.614H48.8182V140H47.4091ZM60.8352 140.182C60.0473 140.182 59.3561 139.994 58.7614 139.619C58.1705 139.244 57.7083 138.72 57.375 138.045C57.0455 137.371 56.8807 136.583 56.8807 135.682C56.8807 134.773 57.0455 133.979 57.375 133.301C57.7083 132.623 58.1705 132.097 58.7614 131.722C59.3561 131.347 60.0473 131.159 60.8352 131.159C61.6231 131.159 62.3125 131.347 62.9034 131.722C63.4981 132.097 63.9602 132.623 64.2898 133.301C64.6231 133.979 64.7898 134.773 64.7898 135.682C64.7898 136.583 64.6231 137.371 64.2898 138.045C63.9602 138.72 63.4981 139.244 62.9034 139.619C62.3125 139.994 61.6231 140.182 60.8352 140.182ZM60.8352 138.977C61.4337 138.977 61.9261 138.824 62.3125 138.517C62.6989 138.21 62.9848 137.807 63.1705 137.307C63.3561 136.807 63.4489 136.265 63.4489 135.682C63.4489 135.098 63.3561 134.555 63.1705 134.051C62.9848 133.547 62.6989 133.14 62.3125 132.83C61.9261 132.519 61.4337 132.364 60.8352 132.364C60.2367 132.364 59.7443 132.519 59.358 132.83C58.9716 133.14 58.6856 133.547 58.5 134.051C58.3144 134.555 58.2216 135.098 58.2216 135.682C58.2216 136.265 58.3144 136.807 58.5 137.307C58.6856 137.807 58.9716 138.21 59.358 138.517C59.7443 138.824 60.2367 138.977 60.8352 138.977ZM73.0185 133.227L71.8139 133.568C71.7382 133.367 71.6264 133.172 71.4787 132.983C71.3348 132.79 71.1378 132.631 70.8878 132.506C70.6378 132.381 70.3177 132.318 69.9276 132.318C69.3935 132.318 68.9484 132.441 68.5923 132.688C68.2401 132.93 68.0639 133.239 68.0639 133.614C68.0639 133.947 68.1851 134.21 68.4276 134.403C68.67 134.597 69.0488 134.758 69.5639 134.886L70.8594 135.205C71.6397 135.394 72.2211 135.684 72.6037 136.074C72.9863 136.46 73.1776 136.958 73.1776 137.568C73.1776 138.068 73.0336 138.515 72.7457 138.909C72.4616 139.303 72.0639 139.614 71.5526 139.841C71.0412 140.068 70.4465 140.182 69.7685 140.182C68.8783 140.182 68.1416 139.989 67.5582 139.602C66.9749 139.216 66.6056 138.652 66.4503 137.909L67.723 137.591C67.8442 138.061 68.0734 138.413 68.4105 138.648C68.7514 138.883 69.1965 139 69.7457 139C70.3707 139 70.867 138.867 71.2344 138.602C71.6056 138.333 71.7912 138.011 71.7912 137.636C71.7912 137.333 71.6851 137.08 71.473 136.875C71.2609 136.667 70.9351 136.511 70.4957 136.409L69.0412 136.068C68.242 135.879 67.6548 135.585 67.2798 135.188C66.9086 134.786 66.723 134.284 66.723 133.682C66.723 133.189 66.8613 132.754 67.1378 132.375C67.4181 131.996 67.7988 131.699 68.2798 131.483C68.7647 131.267 69.3139 131.159 69.9276 131.159C70.7912 131.159 71.4692 131.348 71.9616 131.727C72.4579 132.106 72.8101 132.606 73.0185 133.227ZM75.196 140V131.273H76.5369V140H75.196ZM75.8778 129.818C75.6165 129.818 75.3911 129.729 75.2017 129.551C75.0161 129.373 74.9233 129.159 74.9233 128.909C74.9233 128.659 75.0161 128.445 75.2017 128.267C75.3911 128.089 75.6165 128 75.8778 128C76.1392 128 76.3627 128.089 76.5483 128.267C76.7377 128.445 76.8324 128.659 76.8324 128.909C76.8324 129.159 76.7377 129.373 76.5483 129.551C76.3627 129.729 76.1392 129.818 75.8778 129.818ZM82.7884 131.273V132.409H78.2656V131.273H82.7884ZM79.5838 129.182H80.9247V137.5C80.9247 137.879 80.9796 138.163 81.0895 138.352C81.2031 138.538 81.3471 138.663 81.5213 138.727C81.6993 138.788 81.8868 138.818 82.0838 138.818C82.2315 138.818 82.3527 138.811 82.4474 138.795C82.5421 138.777 82.6179 138.761 82.6747 138.75L82.9474 139.955C82.8565 139.989 82.7296 140.023 82.5668 140.057C82.4039 140.095 82.1974 140.114 81.9474 140.114C81.5687 140.114 81.1974 140.032 80.8338 139.869C80.474 139.706 80.1747 139.458 79.9361 139.125C79.7012 138.792 79.5838 138.371 79.5838 137.864V129.182ZM84.8054 140V131.273H86.1463V140H84.8054ZM85.4872 129.818C85.2259 129.818 85.0005 129.729 84.8111 129.551C84.6255 129.373 84.5327 129.159 84.5327 128.909C84.5327 128.659 84.6255 128.445 84.8111 128.267C85.0005 128.089 85.2259 128 85.4872 128C85.7486 128 85.9721 128.089 86.1577 128.267C86.3471 128.445 86.4418 128.659 86.4418 128.909C86.4418 129.159 86.3471 129.373 86.1577 129.551C85.9721 129.729 85.7486 129.818 85.4872 129.818ZM95.7386 131.273L92.5114 140H91.1477L87.9205 131.273H89.375L91.7841 138.227H91.875L94.2841 131.273H95.7386ZM100.855 140.182C100.014 140.182 99.2888 139.996 98.679 139.625C98.0729 139.25 97.6051 138.727 97.2756 138.057C96.9498 137.383 96.7869 136.598 96.7869 135.705C96.7869 134.811 96.9498 134.023 97.2756 133.341C97.6051 132.655 98.0634 132.121 98.6506 131.739C99.2415 131.352 99.9309 131.159 100.719 131.159C101.173 131.159 101.622 131.235 102.065 131.386C102.509 131.538 102.912 131.784 103.276 132.125C103.639 132.462 103.929 132.909 104.145 133.466C104.361 134.023 104.469 134.708 104.469 135.523V136.091H97.7415V134.932H103.105C103.105 134.439 103.007 134 102.81 133.614C102.616 133.227 102.34 132.922 101.98 132.699C101.624 132.475 101.204 132.364 100.719 132.364C100.185 132.364 99.7225 132.496 99.3324 132.761C98.946 133.023 98.6487 133.364 98.4403 133.784C98.232 134.205 98.1278 134.655 98.1278 135.136V135.909C98.1278 136.568 98.2415 137.127 98.4688 137.585C98.6998 138.04 99.0199 138.386 99.429 138.625C99.8381 138.86 100.313 138.977 100.855 138.977C101.207 138.977 101.526 138.928 101.81 138.83C102.098 138.727 102.346 138.576 102.554 138.375C102.762 138.17 102.923 137.917 103.037 137.614L104.332 137.977C104.196 138.417 103.967 138.803 103.645 139.136C103.323 139.466 102.925 139.723 102.452 139.909C101.978 140.091 101.446 140.182 100.855 140.182ZM111.19 140V128.364H115.122C116.031 128.364 116.777 128.519 117.361 128.83C117.944 129.136 118.376 129.559 118.656 130.097C118.937 130.634 119.077 131.246 119.077 131.932C119.077 132.617 118.937 133.225 118.656 133.756C118.376 134.286 117.946 134.703 117.366 135.006C116.787 135.305 116.046 135.455 115.145 135.455H111.963V134.182H115.099C115.721 134.182 116.221 134.091 116.599 133.909C116.982 133.727 117.259 133.47 117.429 133.136C117.603 132.799 117.69 132.398 117.69 131.932C117.69 131.466 117.603 131.059 117.429 130.71C117.255 130.362 116.976 130.093 116.594 129.903C116.211 129.71 115.705 129.614 115.077 129.614H112.599V140H111.19ZM116.668 134.773L119.531 140H117.895L115.077 134.773H116.668ZM124.808 140.182C123.967 140.182 123.242 139.996 122.632 139.625C122.026 139.25 121.558 138.727 121.229 138.057C120.903 137.383 120.74 136.598 120.74 135.705C120.74 134.811 120.903 134.023 121.229 133.341C121.558 132.655 122.017 132.121 122.604 131.739C123.195 131.352 123.884 131.159 124.672 131.159C125.126 131.159 125.575 131.235 126.018 131.386C126.462 131.538 126.865 131.784 127.229 132.125C127.592 132.462 127.882 132.909 128.098 133.466C128.314 134.023 128.422 134.708 128.422 135.523V136.091H121.695V134.932H127.058C127.058 134.439 126.96 134 126.763 133.614C126.57 133.227 126.293 132.922 125.933 132.699C125.577 132.475 125.157 132.364 124.672 132.364C124.138 132.364 123.676 132.496 123.286 132.761C122.899 133.023 122.602 133.364 122.393 133.784C122.185 134.205 122.081 134.655 122.081 135.136V135.909C122.081 136.568 122.195 137.127 122.422 137.585C122.653 138.04 122.973 138.386 123.382 138.625C123.791 138.86 124.267 138.977 124.808 138.977C125.161 138.977 125.479 138.928 125.763 138.83C126.051 138.727 126.299 138.576 126.507 138.375C126.715 138.17 126.876 137.917 126.99 137.614L128.286 137.977C128.149 138.417 127.92 138.803 127.598 139.136C127.276 139.466 126.878 139.723 126.405 139.909C125.931 140.091 125.399 140.182 124.808 140.182ZM137.332 131.273L134.105 140H132.741L129.514 131.273H130.969L133.378 138.227H133.469L135.878 131.273H137.332ZM139.102 140V131.273H140.443V140H139.102ZM139.784 129.818C139.523 129.818 139.297 129.729 139.108 129.551C138.922 129.373 138.83 129.159 138.83 128.909C138.83 128.659 138.922 128.445 139.108 128.267C139.297 128.089 139.523 128 139.784 128C140.045 128 140.269 128.089 140.455 128.267C140.644 128.445 140.739 128.659 140.739 128.909C140.739 129.159 140.644 129.373 140.455 129.551C140.269 129.729 140.045 129.818 139.784 129.818ZM146.558 140.182C145.717 140.182 144.992 139.996 144.382 139.625C143.776 139.25 143.308 138.727 142.979 138.057C142.653 137.383 142.49 136.598 142.49 135.705C142.49 134.811 142.653 134.023 142.979 133.341C143.308 132.655 143.767 132.121 144.354 131.739C144.945 131.352 145.634 131.159 146.422 131.159C146.876 131.159 147.325 131.235 147.768 131.386C148.212 131.538 148.615 131.784 148.979 132.125C149.342 132.462 149.632 132.909 149.848 133.466C150.064 134.023 150.172 134.708 150.172 135.523V136.091H143.445V134.932H148.808C148.808 134.439 148.71 134 148.513 133.614C148.32 133.227 148.043 132.922 147.683 132.699C147.327 132.475 146.907 132.364 146.422 132.364C145.888 132.364 145.426 132.496 145.036 132.761C144.649 133.023 144.352 133.364 144.143 133.784C143.935 134.205 143.831 134.655 143.831 135.136V135.909C143.831 136.568 143.945 137.127 144.172 137.585C144.403 138.04 144.723 138.386 145.132 138.625C145.541 138.86 146.017 138.977 146.558 138.977C146.911 138.977 147.229 138.928 147.513 138.83C147.801 138.727 148.049 138.576 148.257 138.375C148.465 138.17 148.626 137.917 148.74 137.614L150.036 137.977C149.899 138.417 149.67 138.803 149.348 139.136C149.026 139.466 148.628 139.723 148.155 139.909C147.681 140.091 147.149 140.182 146.558 140.182ZM154.189 140L151.53 131.273H152.939L154.825 137.955H154.916L156.78 131.273H158.212L160.053 137.932H160.143L162.03 131.273H163.439L160.78 140H159.462L157.553 133.295H157.416L155.507 140H154.189ZM171.393 133.227L170.189 133.568C170.113 133.367 170.001 133.172 169.854 132.983C169.71 132.79 169.513 132.631 169.263 132.506C169.013 132.381 168.693 132.318 168.303 132.318C167.768 132.318 167.323 132.441 166.967 132.688C166.615 132.93 166.439 133.239 166.439 133.614C166.439 133.947 166.56 134.21 166.803 134.403C167.045 134.597 167.424 134.758 167.939 134.886L169.234 135.205C170.015 135.394 170.596 135.684 170.979 136.074C171.361 136.46 171.553 136.958 171.553 137.568C171.553 138.068 171.409 138.515 171.121 138.909C170.837 139.303 170.439 139.614 169.928 139.841C169.416 140.068 168.821 140.182 168.143 140.182C167.253 140.182 166.517 139.989 165.933 139.602C165.35 139.216 164.981 138.652 164.825 137.909L166.098 137.591C166.219 138.061 166.448 138.413 166.786 138.648C167.126 138.883 167.571 139 168.121 139C168.746 139 169.242 138.867 169.609 138.602C169.981 138.333 170.166 138.011 170.166 137.636C170.166 137.333 170.06 137.08 169.848 136.875C169.636 136.667 169.31 136.511 168.871 136.409L167.416 136.068C166.617 135.879 166.03 135.585 165.655 135.188C165.284 134.786 165.098 134.284 165.098 133.682C165.098 133.189 165.236 132.754 165.513 132.375C165.793 131.996 166.174 131.699 166.655 131.483C167.14 131.267 167.689 131.159 168.303 131.159C169.166 131.159 169.844 131.348 170.337 131.727C170.833 132.106 171.185 132.606 171.393 133.227Z" fill="white"/>
<defs>
<linearGradient id="paint0_linear_201_17" x1="114.184" y1="-21.0549" x2="109.134" y2="241.865" gradientUnits="userSpaceOnUse">
<stop stop-color="#04AEED"/>
<stop offset="1" stop-color="#635BFF"/>
</linearGradient>
</defs>
</svg>
