<?xml version="1.0" encoding="UTF-8"?>
<svg id="Layer_2" data-name="Layer 2" xmlns="http://www.w3.org/2000/svg" viewBox="0 0 500 372.61">
  <defs>
    <style>
      .cls-1 {
        fill: #f0f0f0;
      }

      .cls-2, .cls-3, .cls-4, .cls-5 {
        fill: #fff;
      }

      .cls-6 {
        fill: #fafafa;
      }

      .cls-7 {
        opacity: .4;
      }

      .cls-7, .cls-8, .cls-9, .cls-10, .cls-11 {
        fill: #407bff;
      }

      .cls-12 {
        fill: #f5f5f5;
      }

      .cls-3 {
        fill-rule: evenodd;
      }

      .cls-3, .cls-5, .cls-13 {
        opacity: .8;
      }

      .cls-14, .cls-11 {
        opacity: .2;
      }

      .cls-4, .cls-15, .cls-10 {
        opacity: .5;
      }

      .cls-16 {
        fill: #e0e0e0;
      }

      .cls-17 {
        fill: #b55b52;
      }

      .cls-15, .cls-18 {
        fill: #ebebeb;
      }

      .cls-19 {
        fill: #b65b52;
      }

      .cls-9 {
        opacity: .3;
      }

      .cls-20 {
        fill: #a02724;
      }

      .cls-21 {
        fill: #263238;
      }
    </style>
  </defs>
  <g id="Background_Complete" data-name="Background Complete">
    <g>
      <rect class="cls-18" y="327.45" width="500" height=".25"/>
      <rect class="cls-18" x="52.46" y="336.97" width="33.12" height=".25"/>
      <rect class="cls-18" x="171.14" y="334.26" width="55.42" height=".25"/>
      <rect class="cls-18" x="91" y="342.91" width="19.19" height=".25"/>
      <rect class="cls-18" x="385.46" y="336.84" width="43.19" height=".25"/>
      <rect class="cls-18" x="437.56" y="336.84" width="6.33" height=".25"/>
      <rect class="cls-18" x="277.21" y="340.35" width="46.84" height=".25"/>
      <path class="cls-18" d="m237.01,282.85H43.91c-3.15,0-5.71-2.56-5.71-5.71V5.71c0-3.15,2.56-5.71,5.71-5.71h193.1c3.15,0,5.71,2.56,5.71,5.71v271.43c0,3.15-2.56,5.71-5.71,5.71ZM43.91.25c-3.01,0-5.46,2.45-5.46,5.46v271.43c0,3.01,2.45,5.46,5.46,5.46h193.1c3.01,0,5.46-2.45,5.46-5.46V5.71c0-3.01-2.45-5.46-5.46-5.46H43.91Z"/>
      <path class="cls-18" d="m453.31,282.85h-193.1c-3.15,0-5.71-2.56-5.71-5.71V5.71c0-3.15,2.56-5.71,5.71-5.71h193.1c3.15,0,5.71,2.56,5.71,5.71v271.43c0,3.15-2.56,5.71-5.71,5.71ZM260.21.25c-3.01,0-5.46,2.45-5.46,5.46v271.43c0,3.01,2.45,5.46,5.46,5.46h193.1c3.01,0,5.46-2.45,5.46-5.46V5.71c0-3.01-2.45-5.46-5.46-5.46h-193.1Z"/>
    </g>
    <g>
      <g>
        <g>
          <rect class="cls-6" x="104.78" y="19.44" width="193.06" height="138.59"/>
          <polygon class="cls-2" points="286.85 158.03 237.75 19.44 200.9 19.44 250 158.03 286.85 158.03"/>
          <polygon class="cls-2" points="187.76 158.03 138.66 19.44 125.22 19.44 174.32 158.03 187.76 158.03"/>
          <g>
            <path class="cls-16" d="m95.58,14.68h211.47c.47,0,.86.39.86.86h0c0,.47-.39.86-.86.86H95.58c-.47,0-.86-.39-.86-.86h0c0-.47.39-.86.86-.86Z"/>
            <rect class="cls-1" x="200.17" y="19.14" width="2.29" height="139.19"/>
            <rect class="cls-16" x="199.02" y="19.14" width="1.14" height="139.19"/>
            <rect class="cls-1" x="200.17" y="-9.13" width="2.29" height="195.73" transform="translate(112.57 290.05) rotate(-90)"/>
            <path class="cls-1" d="m103.45,157.08h0V18.11h195.73v138.97h0v2.29H103.45v-2.29Zm193.44,0V20.39H105.74v136.69h191.15Z"/>
            <rect class="cls-16" x="102.3" y="18.11" width="1.14" height="141.26"/>
          </g>
        </g>
        <g>
          <polygon class="cls-15" points="131.83 12.58 131.83 175.34 90.51 175.34 98.09 12.58 131.83 12.58"/>
          <polygon class="cls-15" points="269.65 12.58 269.65 175.34 310.97 175.34 303.39 12.58 269.65 12.58"/>
        </g>
      </g>
      <g>
        <rect class="cls-1" x="61.92" y="194.84" width="15.76" height="127.83"/>
        <rect class="cls-1" x="64.95" y="322.67" width="173.63" height="4.78"/>
        <rect class="cls-12" x="77.68" y="194.84" width="163.92" height="127.83" transform="translate(319.29 517.5) rotate(180)"/>
        <rect class="cls-1" x="59.94" y="190.67" width="16.11" height="4.17"/>
        <rect class="cls-6" x="76.05" y="190.67" width="167.54" height="4.17" transform="translate(319.63 385.5) rotate(180)"/>
        <path class="cls-16" d="m235.94,266.77H83.35v-63.18h152.59v63.18Zm-151.53-1.06h150.47v-61.06H84.41v61.06Z"/>
        <path class="cls-16" d="m235.94,313.91H83.35v-40.81h152.59v40.81Zm-151.53-1.06h150.47v-38.69H84.41v38.69Z"/>
        <rect class="cls-16" x="103.91" y="204.12" width="111.47" height="3.39" rx="1.4" ry="1.4"/>
        <rect class="cls-16" x="103.91" y="273.63" width="111.47" height="3.39" rx="1.4" ry="1.4"/>
      </g>
      <g>
        <rect class="cls-1" x="347.86" y="41.6" width="91.68" height="279.72" transform="translate(787.4 362.91) rotate(180)"/>
        <rect class="cls-16" x="344.95" y="41.6" width="2.91" height="279.72"/>
        <rect class="cls-6" x="362.73" y="52.27" width="61.93" height="258.38" transform="translate(787.4 362.91) rotate(180)"/>
      </g>
    </g>
  </g>
  <g id="Shadow">
    <ellipse id="_Path_" data-name="&amp;lt;Path&amp;gt;" class="cls-12" cx="250" cy="361.29" rx="193.89" ry="11.32"/>
  </g>
  <g id="Character">
    <g>
      <polygon class="cls-17" points="143.36 352.58 151.19 349.61 146.39 330.69 138.56 333.66 143.36 352.58"/>
      <polygon class="cls-17" points="84.53 352.73 92.9 352.73 94.16 333.34 85.78 333.34 84.53 352.73"/>
      <path class="cls-21" d="m93.74,351.76h-10.21c-.34,0-.63.24-.68.57l-1.28,7.44c-.13.77.51,1.5,1.3,1.49,3.28-.06,5.67-.25,9.81-.25,2.55,0,10.23.26,13.75.26s3.8-3.48,2.35-3.79c-6.52-1.41-11.48-3.36-13.64-5.21-.39-.33-.88-.51-1.38-.51Z"/>
      <path class="cls-21" d="m150.79,348.72l-8.55,3.24c-.32.12-.51.45-.46.79l1.09,7.55c.11.78.92,1.26,1.65.97,3.06-1.22,5.67-2.77,9.57-4.17,4.56-1.64,9.09-3.39,12.78-5.74,2.9-1.85,1.68-5.34.31-4.79-6.22,2.5-7.75,3.32-14.28,2.06-.71-.14-1.44-.15-2.12.11Z"/>
      <path class="cls-19" d="m128.7,97.54c2.64,4.66,5.41,9.46,8.21,14.1,2.8,4.67,5.67,9.27,8.72,13.6.74,1.1,1.56,2.14,2.29,3.16.31.45.44.58.65.75.22.16.73.31,1.52.24.78-.05,1.77-.28,2.8-.66,2.07-.76,4.29-2,6.46-3.38,1.08-.71,2.17-1.44,3.25-2.22,1.06-.77,2.15-1.63,3.13-2.38l4.7,4.18c-.9,1.31-1.78,2.42-2.75,3.57-.96,1.14-1.95,2.26-3.03,3.31-1.07,1.07-2.21,2.1-3.44,3.07-1.23.98-2.55,1.92-4.03,2.74-1.49.82-3.12,1.59-5.08,2.07-1.94.46-4.3.64-6.76-.02-2.47-.63-4.69-2.21-6.16-3.89-1-1.16-1.98-2.25-2.9-3.4-3.71-4.55-6.99-9.26-10.1-14.05-3.09-4.82-5.95-9.66-8.65-14.79l11.18-6Z"/>
      <g>
        <path class="cls-8" d="m113.84,97.92c-2.26,7.68,13.64,28.62,13.64,28.62l16.03-10.31s-4.71-10.68-11.11-18.83c-6.57-8.37-16.08-7.91-18.56.52Z"/>
        <path class="cls-14" d="m113.84,97.92c-2.26,7.68,13.64,28.62,13.64,28.62l16.03-10.31s-4.71-10.68-11.11-18.83c-6.57-8.37-16.08-7.91-18.56.52Z"/>
      </g>
      <path class="cls-14" d="m123.61,106.94c3.3,1.41,8.15,9.35,10.67,15.23l-6.8,4.37s-6.12-8.06-10.22-16.02c2.15-2.36,4.61-4.32,6.35-3.58Z"/>
      <path class="cls-17" d="m164.73,123.35l2.94-8.22,8.33,3.98s-1.73,7.33-7.83,7.32l-3.44-3.08Z"/>
      <polygon class="cls-17" points="175.08 109.71 178.61 113.61 176 119.11 167.67 115.13 175.08 109.71"/>
      <polygon class="cls-14" points="146.39 330.69 148.86 340.45 141.03 343.42 138.56 333.67 146.39 330.69"/>
      <polygon class="cls-14" points="85.78 333.35 94.16 333.35 93.51 343.34 85.13 343.34 85.78 333.35"/>
      <g>
        <path class="cls-8" d="m76.52,94.53c9.02,31.81,7.54,65.56,8.11,72.42,6.56-.24,31.28-1.17,44.76-1.68,7.6-47.41-6.05-73.81-6.05-73.81,0,0-2.87-.56-6.78-.96-1.23-.13-2.55-.24-3.92-.31-.76-.05-1.53-.07-2.31-.09-5.05-.08-13.31.72-18.99,1.42-1.19.15-2.4.33-3.57.52-1.09.19-2.15.38-3.16.58-4.56.91-8.08,1.9-8.08,1.9Z"/>
        <path class="cls-14" d="m76.52,94.53c9.02,31.81,7.54,65.56,8.11,72.42,6.56-.24,31.28-1.17,44.76-1.68,7.6-47.41-6.05-73.81-6.05-73.81,0,0-2.87-.56-6.78-.96-1.23-.13-2.55-.24-3.92-.31-.76-.05-1.53-.07-2.31-.09-5.05-.08-13.31.72-18.99,1.42-1.19.15-2.4.33-3.57.52-1.09.19-2.15.38-3.16.58-4.56.91-8.08,1.9-8.08,1.9Z"/>
      </g>
      <path class="cls-14" d="m86.05,108.17c.8,3.08-.11,17.12-3.33,20.58-.44-4.5-1.02-9.19-1.79-13.99l5.12-6.59Z"/>
      <path class="cls-17" d="m91.62,70c1.65,6.02,3.68,17.12-.29,21.52,3.57,3.05,8.19,6.54,15.46,6.26,7.27-.28,5.63-5.18,3.52-7.67-6.93-1.12-7.13-6.19-6.3-11.02l-12.4-9.08Z"/>
      <g>
        <polygon class="cls-8" points="106.98 96.75 108.3 97.64 103.48 99.04 104.72 96.81 106.98 96.75"/>
        <polygon class="cls-8" points="108.8 96.28 108.3 97.64 113.14 99.04 112.81 96.45 108.8 96.28"/>
        <path class="cls-2" d="m88.44,91.06l1.91-.96c.62-.31,1.36-.25,1.91.16,2,1.49,7.32,4.99,14.72,6.48-3.83,1.83-2.88,6.72-2.88,6.72,0,0-12.15-4.01-16.05-11.26-.22-.42-.03-.94.39-1.15Z"/>
        <path class="cls-2" d="m112.44,89.8l-2.79-.42c-.32-.05-.55.31-.36.58.98,1.38,2.6,4.44-.49,6.32,3.83,1.83,5.01,6.29,5.01,6.29,0,0,4.98-5.37-.83-12.46-.14-.17-.33-.28-.55-.31Z"/>
      </g>
      <path class="cls-14" d="m96.67,73.71l7.34,5.37c-.2,1.14-.34,2.3-.33,3.41-2.63-.18-6.42-2.77-6.9-5.48-.24-1.35-.28-2.66-.1-3.31Z"/>
      <path class="cls-21" d="m112.87,57.66c-.34,2.9-3.12,5.41-4.93,6.04l-2.25-12.66c5.05-3.56,7.65,2.54,7.18,6.62Z"/>
      <path class="cls-17" d="m89.09,61.15c1.46,8.18,1.89,13.05,6.54,16.8,6.99,5.64,16.73.69,17.75-7.76.92-7.61-1.62-19.71-10.06-22.06-8.32-2.32-15.68,4.84-14.23,13.02Z"/>
      <path class="cls-21" d="m90.65,66.67c3.79,2.01,5.46-2.51,5.49-4.35.05-2.92-1.21-6.13-2.72-7.3,7.32-.04,21.79-.36,18.14-7.33-3.65-6.97-10.96-6.17-16.47-2.36-2.91,2.01-12.33.26-10,5.69-4.91,2.61-.65,12.34,5.56,15.65Z"/>
      <path class="cls-21" d="m85.88,50.57s-1.61.15-3.61-1.23c.58,2.59,3.2,2.65,3.2,2.65l.41-1.42Z"/>
      <path class="cls-17" d="m86.01,67.88c.99,2.01,2.81,3.38,4.57,3.94,2.64.85,3.24-1.56,2.6-4.11-.58-2.29-1.82-5.41-4.51-5.15-2.65.25-3.79,3.02-2.66,5.32Z"/>
      <path class="cls-21" d="m139.13,253.8c-3.4-25.33-9.75-88.53-9.75-88.53l-29.42,1.1s13.88,63.15,18.9,88.76c5.02,25.61,18.99,87.41,18.99,87.41l13.26-5.02s-8.44-57.39-11.98-83.73Z"/>
      <path class="cls-14" d="m110.95,183.4c-1.84.46-4.74,1.59-6.54,3.35,2.78,12.77,6.41,29.58,9.52,44.39,2.13-12.83,2.19-37.05-2.98-47.74Z"/>
      <path class="cls-21" d="m113.51,165.87s-6.24,68.56-9.1,92.92c-3.13,26.69-7.04,82.61-7.04,82.61h-15.34s-.64-49.47,1.36-75.59c2.27-29.76,1.24-98.87,1.24-98.87l28.88-1.09Z"/>
      <polygon class="cls-8" points="99.4 341.74 81.34 341.74 80.96 336.34 101.12 335.99 99.4 341.74"/>
      <polygon class="cls-8" points="152.89 337.2 137.1 343.2 135.16 338.09 152.72 331.12 152.89 337.2"/>
      <path class="cls-21" d="m101.86,62.01c.08.67.5,1.17.93,1.12s.73-.64.65-1.31-.5-1.17-.93-1.12c-.44.05-.73.64-.65,1.31Z"/>
      <path class="cls-21" d="m109.44,61.14c.08.67.5,1.17.93,1.12.44-.05.73-.64.65-1.31-.08-.67-.5-1.17-.93-1.12s-.73.64-.65,1.31Z"/>
      <path class="cls-20" d="m107.07,61.75s1.97,3.7,3.87,5.37c-1.06,1.24-3.14.97-3.14.97l-.73-6.34Z"/>
      <path class="cls-21" d="m105.18,70.21c-2.59-.05-3.98-1.69-4.04-1.76-.07-.08-.06-.21.03-.28.08-.07.21-.06.28.03.02.02,1.64,1.92,4.57,1.58.11-.01.21.07.22.17.01.11-.07.21-.17.22-.31.04-.6.05-.88.04Z"/>
      <path class="cls-21" d="m99.24,59.83c-.07,0-.13-.02-.19-.05-.19-.11-.25-.35-.14-.54,1.11-1.89,2.94-1.99,3.02-2,.22,0,.4.16.41.38,0,.22-.16.4-.38.41h0c-.06,0-1.49.1-2.37,1.61-.08.13-.21.2-.35.2Z"/>
      <path class="cls-21" d="m112.41,58.15c-.13,0-.25-.07-.33-.18-.94-1.48-2.37-1.52-2.43-1.53-.22,0-.39-.18-.39-.4,0-.22.18-.39.4-.39.08,0,1.91.04,3.09,1.89.12.18.06.43-.12.55-.07.04-.15.06-.22.06Z"/>
      <g>
        <path class="cls-8" d="m96.58,353.23c-.77,0-1.62-.16-2.21-.3-.08-.02-.14-.08-.16-.16-.02-.08.02-.16.08-.2.3-.19,2.91-1.85,3.86-1.37.15.07.33.23.37.56.05.44-.07.8-.36,1.05-.36.32-.95.43-1.59.43Zm-1.65-.58c1.44.29,2.53.23,2.97-.15.19-.17.27-.4.23-.72-.02-.15-.08-.21-.14-.23-.49-.25-2,.47-3.06,1.1Z"/>
        <path class="cls-8" d="m94.42,352.93s-.08-.01-.11-.03c-.06-.04-.1-.11-.1-.18,0-.1.08-2.52,1.02-3.31.24-.21.52-.29.83-.25h0c.48.06.62.35.66.52.22.93-1.36,2.77-2.2,3.24-.03.02-.06.02-.09.02Zm1.52-3.39c-.16,0-.31.06-.45.17-.6.51-.8,1.92-.86,2.62.83-.65,1.83-2.04,1.7-2.59-.01-.05-.04-.17-.3-.2h0s-.06,0-.09,0Z"/>
        <path class="cls-8" d="m151.97,349.51c-.07,0-.14-.04-.18-.1-.04-.07-.03-.17.03-.23.29-.32,2.83-3.11,3.98-2.94.22.03.39.16.49.38,0,0,0,0,0,0,.17.36.17.71,0,1.03-.57,1.09-2.93,1.63-4.29,1.86,0,0-.02,0-.03,0Zm3.69-2.88c-.67.02-2.13,1.32-3.14,2.38,1.84-.37,3.1-.93,3.42-1.54.11-.21.11-.44,0-.68-.04-.09-.1-.14-.19-.15-.02,0-.05,0-.08,0Z"/>
        <path class="cls-8" d="m151.97,349.51s-.04,0-.06,0c-.07-.02-.12-.07-.14-.14-.03-.09-.61-2.28.07-3.48.21-.36.51-.6.91-.71h0c.53-.14.77.06.89.26.48.83-.75,3.23-1.54,4.02-.04.04-.08.06-.13.06Zm1.09-3.98c-.05,0-.12.01-.2.03h0c-.29.08-.51.25-.67.52-.45.79-.25,2.15-.12,2.81.74-.95,1.51-2.76,1.23-3.26-.02-.03-.06-.11-.24-.1Zm-.26-.16h0s0,0,0,0Z"/>
      </g>
      <g>
        <path class="cls-19" d="m85.72,106.36c-2.51,5.18-5.07,10.52-7.55,15.78-1.23,2.65-2.47,5.28-3.63,7.93l-1.74,3.97-.83,1.99-.21.5-.15.37c-.1.24-.17.48-.26.71-.6,1.91-.76,3.92-.33,6.08.39,2.16,1.34,4.44,2.64,6.65,1.3,2.22,2.93,4.39,4.76,6.45.91,1.04,1.86,2.06,2.86,3.03.5.49,1.01.97,1.53,1.43.5.47,1.06.96,1.5,1.35l-3.34,5.33c-1.55-.79-2.85-1.56-4.19-2.45-1.33-.88-2.63-1.8-3.89-2.8-2.51-2.01-4.88-4.29-6.99-6.96-2.09-2.66-3.93-5.76-5.05-9.36-1.11-3.58-1.39-7.72-.48-11.58.12-.48.23-.96.38-1.43l.39-1.24.71-2.2c.49-1.45.98-2.91,1.52-4.34,1.05-2.87,2.15-5.71,3.33-8.51,2.34-5.62,4.87-11.05,7.72-16.5l11.29,5.79Z"/>
        <g>
          <path class="cls-8" d="m76.52,94.53c-7.64,2.39-15.15,28.3-15.15,28.3l17.68,7.74s5.72-12.52,9.01-22.33c3.58-10.69-2.28-16.6-11.53-13.71Z"/>
          <path class="cls-14" d="m76.52,94.53c-7.64,2.39-15.15,28.3-15.15,28.3l17.68,7.74s5.72-12.52,9.01-22.33c3.58-10.69-2.28-16.6-11.53-13.71Z"/>
        </g>
        <path class="cls-17" d="m82.46,160.96l7.31,4.35-7.11,7.08s-6.18-4.75-4.33-8.47l4.13-2.95Z"/>
        <polygon class="cls-17" points="94.66 172.24 87.32 177.38 82.66 172.39 89.77 165.31 94.66 172.24"/>
      </g>
    </g>
  </g>
  <g id="Screen">
    <g>
      <g>
        <rect class="cls-8" x="446.3" y="161.04" width="4.83" height="1" transform="translate(255.18 597.42) rotate(-85.86)"/>
        <rect class="cls-8" x="442.69" y="147.38" width="14.01" height="1" transform="translate(269.71 585.72) rotate(-85.86)"/>
        <path class="cls-8" d="m422.32,298.01h-244.94c-7.48,0-13.17-6.12-12.63-13.61l12.96-180.8c.54-7.48,7.1-13.61,14.58-13.61h244.94c7.48,0,13.17,6.12,12.63,13.61l-12.96,180.8c-.54,7.48-7.1,13.61-14.58,13.61Z"/>
        <polygon class="cls-8" points="365.35 361.29 285.84 361.29 271.67 263.04 351.18 263.04 365.35 361.29"/>
        <polygon class="cls-8" points="352.72 355.43 266.72 355.43 265.01 361.29 351.02 361.29 352.72 355.43"/>
        <polygon class="cls-21" points="355.37 310.34 277.88 306.1 271.67 263.04 348.55 263.04 355.37 310.34"/>
        <path class="cls-21" d="m419.56,298.01h-244.94c-7.48,0-13.17-6.12-12.63-13.61l12.96-180.8c.54-7.48,7.1-13.61,14.58-13.61h244.94c7.48,0,13.17,6.12,12.63,13.61l-12.96,180.8c-.54,7.48-7.1,13.61-14.58,13.61Z"/>
        <rect class="cls-2" x="391.26" y="156.77" width="103.98" height=".96" transform="translate(254.68 588.11) rotate(-85.9)"/>
        <rect class="cls-2" x="419.6" y="235.6" width="36.01" height=".96" transform="translate(170.85 655.69) rotate(-85.9)"/>
      </g>
      <g>
        <g>
          <path class="cls-2" d="m419.04,294.62h-243.42c-5.83,0-10.25-4.77-9.83-10.59l12.91-180.06c.42-5.83,5.53-10.59,11.35-10.59h243.42c5.83,0,10.25,4.77,9.83,10.59l-12.91,180.06c-.42,5.83-5.53,10.59-11.35,10.59Z"/>
          <path class="cls-11" d="m419.04,294.62h-243.42c-5.83,0-10.25-4.77-9.83-10.59l12.91-180.06c.42-5.83,5.53-10.59,11.35-10.59h243.42c5.83,0,10.25,4.77,9.83,10.59l-12.91,180.06c-.42,5.83-5.53,10.59-11.35,10.59Z"/>
          <path class="cls-4" d="m238.06,286.64h-56.85c-2.81,0-4.95-2.3-4.75-5.12l12.55-175.05c.2-2.81,2.67-5.12,5.48-5.12h56.85c2.81,0,4.95,2.3,4.75,5.12l-12.55,175.05c-.2,2.81-2.67,5.12-5.48,5.12Z"/>
        </g>
        <path class="cls-7" d="m235.86,126.04h-29.42c-2.54,0-4.46-2.07-4.28-4.61l.32-4.51c.18-2.54,2.4-4.61,4.94-4.61h29.42c2.54,0,4.46,2.07,4.28,4.61l-.32,4.51c-.18,2.54-2.4,4.61-4.94,4.61Z"/>
        <g>
          <path class="cls-8" d="m217.15,196.85h-44.92c-4.42,0-7.78-3.62-7.47-8.04l3.22-44.92c.32-4.42,4.2-8.04,8.62-8.04h44.92c4.42,0,7.78,3.62,7.47,8.04l-3.22,44.92c-.32,4.42-4.2,8.04-8.62,8.04Z"/>
          <path class="cls-2" d="m223.59,160.02c-1.69,0-3.16,1.38-3.28,3.06l-.47,6.52c-.12,1.69,1.16,3.06,2.85,3.06h4.56c.42,0,.78-.34.81-.76l.8-11.13c.03-.42-.29-.76-.71-.76h-4.56Z"/>
          <path class="cls-2" d="m206.26,147.27h-28.31c-.68,0-1.19-.55-1.14-1.23h0c.05-.68.64-1.23,1.32-1.23h28.31c.68,0,1.19.55,1.14,1.23h0c-.05.68-.64,1.23-1.32,1.23Z"/>
          <path class="cls-2" d="m205.82,153.53h-28.31c-.68,0-1.19-.55-1.14-1.23h0c.05-.68.64-1.23,1.32-1.23h28.31c.68,0,1.19.55,1.14,1.23h0c-.05.68-.64,1.23-1.32,1.23Z"/>
          <path class="cls-2" d="m195.58,159.78h-18.53c-.68,0-1.19-.55-1.14-1.23h0c.05-.68.64-1.23,1.32-1.23h18.53c.68,0,1.19.55,1.14,1.23h0c-.05.68-.64,1.23-1.32,1.23Z"/>
          <path class="cls-4" d="m206.34,189.59h-27.39c-2.89,0-5.09-2.37-4.88-5.26l1.03-14.39c.21-2.89,2.74-5.26,5.63-5.26h27.39c2.89,0,5.09,2.37,4.88,5.26l-1.03,14.39c-.21,2.89-2.74,5.26-5.63,5.26Z"/>
        </g>
        <g>
          <path class="cls-7" d="m231.91,213.67h-34.08c-1.25,0-2.21-1.03-2.12-2.28h0c.09-1.25,1.19-2.28,2.44-2.28h34.08c1.25,0,2.21,1.03,2.12,2.28h0c-.09,1.25-1.19,2.28-2.44,2.28Z"/>
          <path class="cls-5" d="m225.04,222.61h-21.63c-1.25,0-2.21-1.03-2.12-2.28h0c.09-1.25,1.19-2.28,2.44-2.28h21.63c1.25,0,2.21,1.03,2.12,2.28h0c-.09,1.25-1.19,2.28-2.44,2.28Z"/>
          <path class="cls-7" d="m230.14,238.36h-34.08c-1.25,0-2.21-1.03-2.12-2.28h0c.09-1.25,1.19-2.28,2.44-2.28h34.08c1.25,0,2.21,1.03,2.12,2.28h0c-.09,1.25-1.19,2.28-2.44,2.28Z"/>
          <path class="cls-5" d="m223.27,247.3h-21.63c-1.25,0-2.21-1.03-2.12-2.28h0c.09-1.25,1.19-2.28,2.44-2.28h21.63c1.25,0,2.21,1.03,2.12,2.28h0c-.09,1.25-1.19,2.28-2.44,2.28Z"/>
          <path class="cls-7" d="m228.37,263.04h-34.08c-1.25,0-2.21-1.03-2.12-2.28h0c.09-1.25,1.19-2.28,2.44-2.28h34.08c1.25,0,2.21,1.03,2.12,2.28h0c-.09,1.25-1.19,2.28-2.44,2.28Z"/>
          <path class="cls-5" d="m221.5,271.99h-21.63c-1.25,0-2.21-1.03-2.12-2.28h0c.09-1.25,1.19-2.28,2.44-2.28h21.63c1.25,0,2.21,1.03,2.12,2.28h0c-.09,1.25-1.19,2.28-2.44,2.28Z"/>
        </g>
        <g>
          <path class="cls-10" d="m421.68,235.31c1.48-2.25,4.86-1.3,4.68,1.31l-3.28,45.75c-.17,2.36-1.95,4.27-3.97,4.27h-164.84c-2.02,0-3.53-1.92-3.36-4.27l1.95-27.18c.26-3.67,3.99-6.31,7.42-5.24,9.29,2.9,17.25,1.2,24.65-2.47,15.82-7.86,29.06-24.71,47.25-24.71.7,0,1.38.02,2.05.06,27.06,1.63,35.3,35.24,56.27,35.24,6.2,0,11.85-2.67,16.78-6.49,6.03-4.67,10.96-11.03,14.39-16.27Z"/>
          <path class="cls-10" d="m425.1,254.16l-2.02,28.21c-.17,2.36-1.95,4.27-3.97,4.27h-164.84c-2.02,0-3.53-1.92-3.36-4.27l4.02-56.06c.28-3.84,5.31-5.45,7.34-2.35,5.26,8.02,13.35,18.39,22.66,23.51,3.57,1.96,7.3,3.15,11.13,3.15,13.32,0,24.65-15.8,38.17-27.8,8.3-7.36,17.41-13.3,28.32-13.3,22.77,0,26.13,37,44.72,42.06,3.58.98,7.73.77,12.69-1.13,2.66-1.01,5.32.93,5.12,3.71Z"/>
          <g class="cls-13">
            <path class="cls-2" d="m425.91,243.23c-.09,0-.17-.04-.24-.1-.03-.03-.06-.07-.07-.11-.02-.04-.03-.09-.03-.13,0-.1.04-.18.1-.24.12-.13.35-.14.48,0,.07.06.1.15.1.24,0,.04,0,.09-.02.13-.02.04-.05.08-.08.11-.06.06-.15.1-.24.1Z"/>
            <path class="cls-2" d="m265.64,266.66c-.19,0-.34-.15-.34-.34h0c0-.18.15-.33.34-.33h0c.19,0,.34.15.34.33h0c0,.19-.15.35-.34.35h0Zm-3.43-.2h0c-.19,0-.33-.18-.31-.37h0c.02-.19.19-.32.38-.3h0c.19.02.32.19.3.37h0c-.02.18-.17.31-.34.31h0s-.02,0-.04,0Zm6.47-.3c-.02-.19.11-.36.3-.38h0c.19-.02.36.11.38.3h0c.02.19-.11.36-.3.38h-.04c-.17,0-.32-.13-.34-.3Zm-9.85-.22c-.18-.04-.3-.22-.27-.41h0c.04-.18.22-.3.41-.27h0c.18.04.3.22.27.41h0c-.04.16-.18.27-.34.27h-.07Zm13.19-.34c-.05-.19.06-.37.25-.42h0c.18-.04.36.07.41.25h0c.05.18-.07.37-.25.42h-.08c-.16,0-.3-.1-.33-.25Zm109.37.14c-.19,0-.34-.15-.34-.34h0c0-.19.16-.34.34-.34h0c.19,0,.34.15.34.34h0c0,.19-.15.34-.34.34h0Zm3.05-.48c-.02-.19.12-.36.3-.37h0c.19-.03.36.11.38.3h0c.02.19-.12.36-.31.38h-.03c-.17,0-.32-.13-.34-.31Zm-6.47.27c-.18-.02-.32-.19-.29-.38h0c.02-.19.19-.32.38-.3h0c.19.03.32.2.3.38h0c-.03.18-.17.31-.34.31h0s-.03,0-.05,0Zm-122.46-.41c-.18-.05-.29-.24-.24-.42h0c.06-.18.24-.29.43-.24h0c.18.06.28.24.23.43h0c-.04.15-.18.24-.33.24h0s-.06,0-.09,0Zm132.29-.33c-.04-.19.08-.37.27-.4h0c.18-.04.36.08.4.27h0c.04.18-.08.36-.27.4h0s-.04,0-.06,0h0c-.16,0-.31-.12-.34-.28Zm-13.19.12c-.19-.04-.3-.22-.25-.41h0c.04-.18.22-.29.41-.25h0c.18.04.29.23.25.41h0c-.04.16-.18.26-.33.26h0s-.06,0-.08,0Zm-99.35-.28c-.07-.18.02-.38.2-.44h0c.17-.07.37.02.44.19h0c.06.18-.02.38-.2.44h0s-.08.03-.12.03h0c-.14,0-.27-.09-.32-.22Zm115.85-.59c-.05-.19.05-.38.24-.43h0c.18-.05.37.06.42.24h0c.05.18-.06.37-.24.42h0s-.06.02-.09.02h0c-.15,0-.29-.1-.33-.25Zm-19.78-.12h0c-.18-.06-.27-.26-.21-.43h0c.07-.18.26-.27.44-.21h0c.18.07.27.26.21.44h0c-.05.14-.19.22-.33.22h0s-.08,0-.11-.02Zm-92.96-.64c-.09-.16-.02-.37.15-.46h0c.17-.08.37,0,.46.16h0c.08.16.02.37-.15.45h0s-.1.04-.16.04h0c-.12,0-.24-.07-.3-.19Zm115.99-.24c-.07-.18.03-.37.2-.43h0c.17-.07.37.03.43.2h0c.06.18-.03.38-.21.44h0s-.07.02-.11.02h0c-.14,0-.27-.09-.32-.23Zm-26.19-.42h0c-.17-.07-.25-.28-.17-.45h0c.08-.17.28-.24.45-.17h0c.18.08.25.28.17.46h0c-.06.12-.18.2-.31.2h0s-.1-.01-.14-.04Zm29.36-.78c-.07-.17,0-.37.19-.44h0c.17-.08.37,0,.44.18h0c.08.17,0,.37-.18.45h0s-.09.02-.13.02h0c-.14,0-.26-.08-.32-.21Zm-116.2-.2c-.1-.16-.05-.38.11-.48h0c.16-.1.37-.05.47.11h0c.1.16.05.37-.11.47h0s-.12.06-.18.06h0c-.11,0-.22-.06-.29-.16Zm83.79-.55h0c-.17-.09-.23-.3-.14-.47h0c.09-.16.3-.22.47-.13h0c.16.09.22.29.13.46h0c-.06.11-.18.18-.3.18h0c-.05,0-.11-.02-.16-.04Zm35.52-.62c-.08-.17,0-.37.16-.45h0c.17-.08.38,0,.46.16h0c.08.17,0,.37-.17.45h0s-.1.04-.15.04h0c-.13,0-.25-.07-.31-.2Zm-116.49-.71c-.11-.16-.07-.37.08-.48h0c.15-.11.37-.08.48.07h0c.11.15.07.37-.08.48h0c-.06.04-.13.07-.2.07h0c-.11,0-.21-.05-.28-.14Zm78.02-.38h0c-.16-.1-.21-.31-.11-.47h0c.09-.17.3-.22.46-.12h0c.17.1.22.31.12.47h0c-.07.11-.18.17-.29.17h0c-.06,0-.13-.02-.18-.05Zm41.51-.43c-.09-.16-.03-.37.14-.46h0c.16-.09.37-.02.46.14h0c.09.17.03.37-.14.47h0s-.11.04-.16.04h0c-.12,0-.24-.07-.3-.19Zm-116.81-1.24c-.12-.15-.1-.36.05-.48h0c.15-.12.36-.09.48.05h0c.12.15.09.37-.05.49h0c-.07.05-.14.07-.22.07h0c-.1,0-.2-.04-.26-.13Zm72.42-.15h0c-.16-.11-.2-.32-.1-.48h0c.11-.16.32-.2.48-.1h0c.15.1.2.32.1.47h0c-.07.11-.18.16-.29.16h0c-.07,0-.13-.02-.19-.05Zm47.36-.25c-.1-.17-.04-.37.12-.47h0c.16-.09.37-.04.47.12h0c.09.16.04.37-.12.47h0c-.06.03-.12.05-.18.05h0c-.11,0-.23-.06-.29-.17Zm-50.19-1.64c-.15-.11-.2-.32-.09-.48h0c.11-.15.32-.19.48-.09h0c.15.11.19.32.09.48h0c-.07.1-.18.15-.29.15h0c-.06,0-.13-.02-.19-.06Zm53.09-.12c-.1-.16-.05-.37.11-.48h0c.16-.1.37-.05.47.11h0c.1.16.05.37-.11.47h0s-.11.06-.18.06h0c-.11,0-.22-.06-.29-.16Zm-120.05.02c-.12-.14-.1-.36.04-.48h0c.15-.12.37-.1.49.04h0c.12.15.1.36-.05.48h0c-.06.06-.14.08-.22.08h0c-.09,0-.19-.04-.26-.12Zm122.9-1.88c-.11-.16-.07-.37.08-.48h0c.16-.11.37-.07.48.09h0c.1.15.07.37-.09.47h0c-.06.04-.13.06-.19.06h0c-.11,0-.22-.05-.28-.14Zm-58.75.08c-.16-.11-.2-.32-.09-.47h0c.1-.16.31-.2.47-.1h0c.16.11.2.32.09.48h0c-.06.1-.17.15-.28.15h0c-.06,0-.13-.02-.19-.06Zm-61.54-.38c-.13-.14-.11-.36.04-.48h0c.14-.12.36-.1.48.04h0c.12.15.1.36-.04.48h0c-.07.06-.14.08-.22.08h0c-.1,0-.2-.04-.26-.12Zm58.72-1.5c-.16-.11-.21-.32-.1-.47h0c.1-.16.32-.21.47-.1h0c.16.1.2.31.1.47h0c-.06.1-.17.15-.28.15h0c-.07,0-.13,0-.19-.05Zm64.35-.16c-.12-.15-.08-.36.07-.47h0c.15-.11.37-.08.48.07h0c.11.15.07.37-.08.48h0c-.06.04-.13.06-.2.06h0c-.1,0-.21-.04-.27-.14Zm-120.46-.51c-.12-.14-.1-.36.05-.48h0c.15-.12.36-.09.48.05h0c.12.15.1.37-.05.48h0c-.06.06-.14.08-.22.08h0c-.09,0-.19-.04-.26-.13Zm53.26-1.16c-.16-.1-.21-.31-.11-.47h0c.1-.16.31-.21.47-.11h0c.16.1.21.31.11.47h0c-.07.11-.18.17-.29.17h0c-.06,0-.13-.02-.18-.06Zm69.92-.36c-.12-.15-.09-.37.06-.48h0c.15-.12.36-.09.48.06h0c.11.15.08.36-.06.48h0c-.06.05-.13.07-.2.07h0c-.11,0-.21-.05-.27-.13Zm-120.52-.58c-.11-.15-.08-.37.07-.48h0c.15-.11.36-.08.48.07h0c.11.15.08.36-.07.48h0c-.06.04-.13.07-.2.07h0c-.11,0-.21-.05-.28-.14Zm47.69-.79c-.16-.09-.22-.3-.12-.47h0c.09-.16.3-.22.46-.12h0c.17.09.23.3.13.46h0c-.06.11-.18.18-.3.18h0c-.05,0-.11-.02-.17-.05Zm75.48-.75c-.12-.14-.1-.36.05-.48h0c.15-.12.36-.1.48.05h0c.12.14.1.36-.04.48h0c-.07.05-.15.08-.22.08h0c-.1,0-.2-.04-.27-.13Zm-120.41-.44c-.11-.16-.07-.37.09-.48h0c.16-.1.37-.06.48.1h0c.1.15.06.37-.1.47h0c-.06.04-.12.06-.19.06h0c-.11,0-.22-.06-.28-.15Zm41.96-.42c-.16-.08-.23-.29-.14-.46h0c.08-.17.29-.23.46-.15h0c.16.09.23.3.15.47h0c-.06.11-.19.18-.31.18h0s-.11,0-.16-.04Zm81.05-1.33c-.12-.14-.11-.36.03-.48h0c.14-.12.35-.11.48.03h0c.12.14.1.36-.04.48h0c-.06.06-.14.09-.22.09h0c-.1,0-.19-.04-.26-.12Zm-120.14-.06c-.1-.16-.04-.37.13-.47h0c.16-.09.37-.03.46.13h0c.09.17.04.37-.13.47h0c-.06.03-.12.04-.17.04h0c-.12,0-.24-.06-.3-.17Zm36.05-.06h0c-.17-.08-.25-.28-.17-.45h0c.07-.17.28-.25.45-.17h0c.17.07.25.27.17.45h0c-.05.12-.18.2-.31.2h0c-.05,0-.09,0-.14-.03Zm-3.12-1.27c-.18-.06-.27-.26-.2-.44h0c.06-.17.26-.26.44-.2h0c.17.07.26.26.2.44h0c-.05.14-.18.22-.32.22h0s-.08,0-.12-.02Zm-29.93-.24c-.07-.17,0-.38.17-.45h0c.17-.08.38,0,.46.17h0c.07.17,0,.37-.18.45h0s-.09.03-.14.03h0c-.13,0-.25-.07-.31-.2Zm26.73-.81c-.18-.06-.28-.24-.23-.43h0c.05-.18.25-.28.43-.23h0c.18.05.28.24.23.43h0c-.05.14-.18.24-.33.24h0s-.06,0-.1,0Zm-23.59-.47c-.06-.18.04-.37.22-.43h0c.18-.06.37.04.43.22h0c.06.18-.04.37-.22.43h0s-.07.02-.11.02h0c-.14,0-.27-.09-.32-.24Zm20.33-.36c-.18-.04-.3-.22-.26-.4h0c.04-.19.22-.31.41-.26h0c.18.03.3.21.26.4h0c-.03.16-.18.27-.34.27h0s-.04,0-.07,0Zm-17.08-.57c-.04-.19.08-.37.27-.41h0c.18-.04.36.08.4.26h0c.04.19-.07.37-.26.41h0s-.05,0-.07,0h0c-.16,0-.3-.11-.34-.27Zm13.77,0h0c-.18-.03-.32-.2-.29-.39h0c.02-.19.2-.32.38-.29h0c.18.02.31.2.29.39h0c-.03.16-.17.29-.34.29h-.05Zm-10.43-.57c-.02-.19.12-.35.3-.37h0c.19-.03.36.11.38.3h0c.02.19-.12.35-.31.38h-.03c-.17,0-.32-.13-.34-.31Zm7.08.22h.01c-.19,0-.34-.17-.32-.36h0c0-.19.17-.33.36-.32h0c.19,0,.33.18.32.37h0c0,.18-.16.32-.34.32h0s-.02-.01-.03-.01Zm-3.7-.44c-.01-.19.15-.34.34-.34h0c.18-.01.34.15.34.34h0c0,.19-.15.34-.34.34h0c-.19,0-.34-.15-.34-.34Z"/>
            <path class="cls-2" d="m252.25,264.06s-.09,0-.13-.03c-.04-.02-.08-.04-.11-.08-.03-.03-.06-.06-.07-.11-.02-.04-.03-.08-.03-.13,0-.09.04-.17.1-.24.03-.03.07-.06.11-.07.08-.04.18-.04.26,0,.05,0,.08.04.11.07.07.07.1.15.1.24,0,.05,0,.09-.02.13-.02.05-.04.08-.08.11-.03.04-.07.06-.11.08-.04.02-.08.03-.13.03Z"/>
          </g>
        </g>
        <g>
          <g>
            <path class="cls-2" d="m307.08,161.65h0s-2.34-2.52-2.34-2.52c-4.14,3.87-9.66,6.26-15.56,6.26-9.89,0-17.73-6.72-19.51-15.84l-3.5.92s0,0,0,0l-3.2.84c.94,4.78,3.14,9.14,6.39,12.64,10.15,10.93,28.14,10.93,39.86,0l-2.13-2.3Z"/>
            <path class="cls-21" d="m312.07,124.09l-3.06,2.85s0,0,0,0l-2.11,1.97c3.59,3.86,5.61,9.21,5.18,15.11-.42,5.9-3.2,11.25-7.34,15.12l1.83,1.97h0s2.64,2.84,2.64,2.84c5.66-5.29,9.15-12.45,9.68-19.93.54-7.47-1.92-14.64-6.83-19.93Z"/>
            <path class="cls-8" d="m312.07,124.09c-10.15-10.93-28.14-10.93-39.86,0-7.61,7.11-11.15,17.51-9.25,27.22l3.96-1.04s0,0,0,0l2.74-.72c-.34-1.76-.46-3.62-.32-5.53.85-11.8,11.1-21.37,22.9-21.37,5.9,0,11.07,2.39,14.66,6.26l2.7-2.52s0,0,0,0l2.46-2.3Z"/>
          </g>
          <g>
            <path class="cls-2" d="m340.8,161.65h0s2.7-2.52,2.7-2.52c-3.59-3.87-5.6-9.21-5.17-15.12.71-9.89,8.02-18.21,17.32-20.65l-.67-3.44s0,0,0,0l-.62-3.14c-4.87,1.28-9.41,3.8-13.16,7.29-11.72,10.93-13.01,28.92-2.86,39.86l2.46-2.3Z"/>
            <path class="cls-21" d="m378.19,163.95l-2.65-2.85s0,0,0,0l-1.83-1.97c-4.14,3.87-9.65,6.27-15.56,6.27s-11.08-2.39-14.67-6.26l-2.11,1.97h0l-3.05,2.84c4.91,5.29,11.86,8.26,19.34,8.26s14.86-2.97,20.52-8.26Z"/>
            <path class="cls-8" d="m378.19,163.95c11.71-10.93,13-28.92,2.86-39.86-6.6-7.11-16.8-9.89-26.7-7.29l.76,3.88s0,0,0,0l.53,2.69c1.8-.47,3.68-.72,5.58-.72,11.8,0,20.68,9.57,19.84,21.37-.42,5.9-3.2,11.24-7.34,15.11l2.34,2.52s0,0,0,0l2.13,2.3Z"/>
          </g>
        </g>
        <path class="cls-9" d="m425.42,118.35c.57,0,1.09.22,1.47.62.38.4.56.94.52,1.52l-1.24,17.25c-.09,1.23-1.2,2.27-2.43,2.27h-17.25c-.57,0-1.09-.22-1.47-.62-.38-.4-.56-.94-.52-1.52l1.24-17.25c.09-1.23,1.2-2.27,2.43-2.27h17.25m0-.88h-17.25c-1.7,0-3.19,1.39-3.31,3.09l-1.24,17.25c-.12,1.7,1.17,3.09,2.87,3.09h17.25c1.7,0,3.19-1.39,3.31-3.09l1.24-17.25c.12-1.7-1.17-3.09-2.87-3.09h0Z"/>
        <path class="cls-9" d="m423.29,148.03c.57,0,1.09.22,1.47.62.38.4.56.94.52,1.52l-1.24,17.25c-.09,1.23-1.2,2.27-2.43,2.27h-17.25c-.57,0-1.09-.22-1.47-.62-.38-.4-.56-.94-.52-1.52l1.24-17.25c.09-1.23,1.2-2.27,2.43-2.27h17.25m0-.88h-17.25c-1.7,0-3.19,1.39-3.31,3.09l-1.24,17.25c-.12,1.7,1.17,3.09,2.87,3.09h17.25c1.7,0,3.19-1.39,3.31-3.09l1.24-17.25c.12-1.7-1.17-3.09-2.87-3.09h0Z"/>
        <path class="cls-8" d="m398.04,243.48c.48,0,.92.19,1.24.52.31.34.47.79.43,1.28-.08,1.06-1,1.93-2.06,1.93-.48,0-.92-.19-1.24-.52-.31-.34-.47-.79-.43-1.28.08-1.06,1-1.93,2.06-1.93m0-.88c-1.52,0-2.83,1.23-2.94,2.75s1.03,2.75,2.55,2.75,2.83-1.23,2.94-2.75c.11-1.52-1.03-2.75-2.55-2.75h0Z"/>
        <g>
          <polygon class="cls-8" points="398.26 242.61 397.82 242.58 397.89 241.7 398.33 241.73 398.26 242.61"/>
          <path class="cls-8" d="m398.45,239.92l-.44-.03.13-1.81.44.03-.13,1.81Zm.26-3.61l-.44-.03.13-1.81.44.03-.13,1.81Zm.26-3.61l-.44-.03.13-1.81.44.03-.13,1.81Zm.26-3.61l-.44-.03.13-1.81.44.03-.13,1.81Zm.26-3.61l-.44-.03.13-1.81.44.03-.13,1.81Zm.26-3.61l-.44-.03.13-1.81.44.03-.13,1.81Zm.26-3.61l-.44-.03.13-1.81.44.03-.13,1.81Zm.26-3.61l-.44-.03.13-1.81.44.03-.13,1.81Zm.26-3.61l-.44-.03.13-1.81.44.03-.13,1.81Zm.26-3.61l-.44-.03.13-1.81.44.03-.13,1.81Zm.26-3.61l-.44-.03.13-1.81.44.03-.13,1.81Z"/>
          <rect class="cls-8" x="400.67" y="199.52" width=".88" height=".44" transform="translate(173.47 585.7) rotate(-85.94)"/>
        </g>
        <path class="cls-8" d="m419.78,199.78h-158.35c-.89,0-1.71-.35-2.31-.99-.6-.64-.89-1.49-.82-2.38l.78-10.9c.13-1.82,1.72-3.31,3.54-3.31h158.35c.89,0,1.71.35,2.31.99.6.64.89,1.49.83,2.38l-.78,10.9c-.13,1.82-1.72,3.31-3.54,3.31Zm-157.16-16.62c-1.33,0-2.49,1.08-2.59,2.42l-.78,10.9c-.04.63.16,1.22.57,1.66.41.44.98.69,1.61.69h158.35c1.33,0,2.49-1.08,2.59-2.42l.78-10.9c.04-.63-.16-1.22-.57-1.66-.41-.44-.98-.68-1.61-.68h-158.35Z"/>
        <path class="cls-3" d="m416.38,189.22h-150.1c-.82,0-1.44-.67-1.38-1.48h0c.06-.82.77-1.48,1.59-1.48h150.1c.82,0,1.44.67,1.38,1.48h0c-.06.82-.77,1.48-1.59,1.48Z"/>
        <path class="cls-3" d="m391.37,195.48h-125.54c-.82,0-1.44-.67-1.38-1.48h0c.06-.82.77-1.48,1.59-1.48h125.54c.82,0,1.44.67,1.38,1.48h0c-.06.82-.77,1.48-1.59,1.48Z"/>
      </g>
    </g>
  </g>
</svg>