<?xml version="1.0" encoding="UTF-8"?>
<svg id="Layer_2" data-name="Layer 2" xmlns="http://www.w3.org/2000/svg" viewBox="0 0 500 372.06">
  <defs>
    <style>
      .cls-1 {
        fill: #f0f0f0;
      }

      .cls-2, .cls-3, .cls-4, .cls-5, .cls-6, .cls-7, .cls-8, .cls-9 {
        fill: #fff;
      }

      .cls-10 {
        fill: #fafafa;
      }

      .cls-11, .cls-5 {
        opacity: .5;
      }

      .cls-3, .cls-8 {
        opacity: .4;
      }

      .cls-12 {
        fill: #ba4d3c;
      }

      .cls-13, .cls-9 {
        opacity: .6;
      }

      .cls-14 {
        fill: #f5f5f5;
      }

      .cls-4, .cls-15 {
        opacity: .3;
      }

      .cls-16, .cls-17, .cls-7 {
        opacity: .2;
      }

      .cls-18 {
        fill: #e0e0e0;
      }

      .cls-6 {
        opacity: .7;
      }

      .cls-19 {
        fill: #e6e6e6;
      }

      .cls-20 {
        fill: #ce7a63;
      }

      .cls-17, .cls-8, .cls-21 {
        isolation: isolate;
      }

      .cls-22 {
        fill: #b55b52;
      }

      .cls-23 {
        opacity: .1;
      }

      .cls-24 {
        fill: #ebebeb;
      }

      .cls-25, .cls-21 {
        fill: #407bff;
      }

      .cls-26 {
        fill: #a02724;
      }

      .cls-27 {
        fill: #263238;
      }
    </style>
  </defs>
  <g id="Background_Complete" data-name="Background Complete">
    <rect class="cls-24" x="416.78" y="343.54" width="33.12" height=".25"/>
    <rect class="cls-24" x="322.53" y="346.26" width="8.69" height=".25"/>
    <rect class="cls-24" x="396.59" y="334.26" width="19.19" height=".25"/>
    <rect class="cls-24" x="52.46" y="335.94" width="43.19" height=".25"/>
    <rect class="cls-24" x="104.56" y="335.94" width="6.33" height=".25"/>
    <rect class="cls-24" x="131.47" y="340.16" width="93.68" height=".25"/>
    <g>
      <path class="cls-24" d="m238.4,282.85H45.3c-3.15,0-5.71-2.56-5.71-5.71V5.71c0-3.15,2.56-5.71,5.71-5.71h193.1c3.15,0,5.71,2.56,5.71,5.71v271.43c0,3.15-2.56,5.71-5.71,5.71ZM45.3.25c-3.01,0-5.46,2.45-5.46,5.46v271.43c0,3.01,2.45,5.46,5.46,5.46h193.1c3.01,0,5.46-2.45,5.46-5.46V5.71c0-3.01-2.45-5.46-5.46-5.46H45.3Z"/>
      <path class="cls-24" d="m454.7,282.85h-193.1c-3.15,0-5.71-2.56-5.71-5.71V5.71c0-3.15,2.56-5.71,5.71-5.71h193.1c3.15,0,5.71,2.56,5.71,5.71v271.43c0,3.15-2.56,5.71-5.71,5.71ZM261.6.25c-3.01,0-5.46,2.45-5.46,5.46v271.43c0,3.01,2.45,5.46,5.46,5.46h193.1c3.01,0,5.46-2.45,5.46-5.46V5.71c0-3.01-2.45-5.46-5.46-5.46h-193.1Z"/>
    </g>
    <rect class="cls-24" y="327.45" width="500" height=".25"/>
    <g>
      <polygon class="cls-19" points="130.68 63.48 137.97 58.81 141.95 66.51 150.61 66.1 150.21 74.76 157.91 78.74 153.23 86.04 157.91 93.34 150.21 97.32 150.61 105.98 141.95 105.58 137.97 113.28 130.68 108.6 123.38 113.28 119.4 105.58 110.74 105.98 111.14 97.32 103.44 93.34 108.12 86.04 103.44 78.74 111.14 74.76 110.74 66.1 119.4 66.51 123.38 58.81 130.68 63.48"/>
      <path class="cls-10" d="m127.91,97.18l-8.67-8.67c-.99-.99-.99-2.6,0-3.59h0c.99-.99,2.6-.99,3.59,0l5.08,5.08,10.61-10.61c.99-.99,2.6-.99,3.59,0h0c.99.99.99,2.6,0,3.59l-14.2,14.2Z"/>
    </g>
    <g>
      <polygon class="cls-19" points="401.86 140.03 407.58 136.36 410.71 142.4 417.5 142.08 417.18 148.87 423.22 151.99 419.55 157.72 423.22 163.44 417.18 166.56 417.5 173.35 410.71 173.03 407.58 179.07 401.86 175.4 396.14 179.07 393.02 173.03 386.23 173.35 386.54 166.56 380.5 163.44 384.17 157.72 380.5 151.99 386.54 148.87 386.23 142.08 393.02 142.4 396.14 136.36 401.86 140.03"/>
      <path class="cls-10" d="m399.69,166.45l-6.8-6.8c-.78-.78-.78-2.04,0-2.82h0c.78-.78,2.04-.78,2.82,0l3.98,3.98,8.32-8.32c.78-.78,2.04-.78,2.82,0h0c.78.78.78,2.04,0,2.82l-11.14,11.14Z"/>
    </g>
    <g>
      <path class="cls-19" d="m131.41,236.03l11.15,5.69c1.88.96,4.17.56,5.62-.99l8.53-9.16c1.01-1.09,1.46-2.59,1.2-4.05l-4.44-25.15c-.73-4.11-4.65-6.86-8.76-6.13l-14.12,2.49c-4.11.73-6.86,4.65-6.13,8.76l4.44,25.15c.26,1.46,1.19,2.72,2.51,3.4Zm12.7-1.95c1.29-.23,2.52.63,2.75,1.93.23,1.29-.63,2.52-1.93,2.75-1.29.23-2.52-.63-2.75-1.93-.23-1.29.63-2.52,1.93-2.75Z"/>
      <rect class="cls-10" x="131.59" y="223.99" width="21.91" height="2.37" transform="translate(322.02 422.18) rotate(170)"/>
      <rect class="cls-10" x="127.93" y="203.25" width="21.91" height="2.37" transform="translate(311.16 381.65) rotate(170)"/>
    </g>
    <g>
      <path class="cls-1" d="m169.52,73.19l7.67,8.23c1.3,1.39,3.36,1.75,5.05.89l10.03-5.11c1.19-.61,2.03-1.74,2.26-3.05l3.99-22.62c.65-3.7-1.82-7.22-5.51-7.87l-12.7-2.24c-3.7-.65-7.22,1.82-7.87,5.51l-3.99,22.62c-.23,1.32.17,2.66,1.08,3.64Zm11.33,2.26c1.16.2,1.94,1.31,1.73,2.47-.2,1.16-1.31,1.94-2.47,1.73-1.16-.2-1.94-1.31-1.73-2.47.2-1.16,1.31-1.94,2.47-1.73Z"/>
      <rect class="cls-10" x="172.41" y="66.38" width="19.7" height="2.13" transform="translate(350.05 165.51) rotate(-170)"/>
      <rect class="cls-10" x="175.7" y="47.73" width="19.7" height="2.13" transform="translate(359.81 129.07) rotate(-170)"/>
    </g>
    <path class="cls-24" d="m355.38,48.79h0c-2.96-4.23-8.8-5.26-13.03-2.3l-3.96,2.78-2.78-3.96c-2.96-4.23-8.8-5.26-13.03-2.3h0c-4.23,2.96-5.26,8.8-2.3,13.03l13.51,19.3,19.3-13.51c4.23-2.96,5.26-8.8,2.3-13.03Z"/>
    <path class="cls-24" d="m383.12,50.59h0c-1.45-2.07-4.31-2.58-6.38-1.13l-1.94,1.36-1.36-1.94c-1.45-2.07-4.31-2.58-6.38-1.13h0c-2.07,1.45-2.58,4.31-1.13,6.38l6.61,9.45,9.45-6.61c2.07-1.45,2.58-4.31,1.13-6.38Z"/>
    <g>
      <path class="cls-18" d="m87.36,142.41c-13.44,3.85-21.21,17.88-17.36,31.32,2.5,8.73,17.81,23.37,28.24,32.55,4.65,4.09,11.98,1.99,13.75-3.94,3.97-13.31,9.2-33.84,6.69-42.57-3.85-13.44-17.88-21.21-31.32-17.36Zm10.2,35.57c-6.2,1.78-12.68-1.81-14.45-8.01-1.78-6.2,1.81-12.68,8.01-14.45,6.2-1.78,12.68,1.81,14.45,8.01,1.78,6.2-1.81,12.68-8.01,14.45Z"/>
      <path class="cls-14" d="m91.32,141.27c-13.44,3.85-21.21,17.88-17.36,31.32,2.5,8.73,17.81,23.37,28.24,32.55,4.65,4.09,11.98,1.99,13.75-3.94,3.97-13.31,9.2-33.84,6.69-42.57-3.85-13.44-17.88-21.21-31.32-17.36Zm10.2,35.57c-6.2,1.78-12.68-1.81-14.45-8.01-1.78-6.2,1.81-12.68,8.01-14.45,6.2-1.78,12.68,1.81,14.45,8.01s-1.81,12.68-8.01,14.45Z"/>
    </g>
    <g>
      <path class="cls-18" d="m382.91,78.08c-11.7-3.36-23.91,3.41-27.27,15.12-2.18,7.6,2.37,25.47,5.83,37.07,1.54,5.17,7.92,7,11.97,3.43,9.08-8,22.41-20.74,24.59-28.35,3.36-11.7-3.41-23.91-15.12-27.27Zm-8.88,30.97c-5.4-1.55-8.53-7.18-6.98-12.59,1.55-5.4,7.18-8.53,12.59-6.98,5.4,1.55,8.53,7.18,6.98,12.59s-7.18,8.53-12.59,6.98Z"/>
      <path class="cls-14" d="m386.36,79.06c-11.7-3.36-23.91,3.41-27.27,15.12-2.18,7.6,2.37,25.47,5.83,37.07,1.54,5.17,7.92,7,11.97,3.43,9.08-8,22.41-20.74,24.59-28.35,3.36-11.7-3.41-23.91-15.12-27.27Zm-8.88,30.97c-5.4-1.55-8.53-7.18-6.98-12.59,1.55-5.4,7.18-8.53,12.59-6.98,5.4,1.55,8.53,7.18,6.98,12.59-1.55,5.4-7.18,8.53-12.59,6.98Z"/>
    </g>
  </g>
  <g id="Shadow">
    <ellipse id="_Path_" data-name="&amp;lt;Path&amp;gt;" class="cls-14" cx="250" cy="360.74" rx="193.89" ry="11.32"/>
  </g>
  <g id="Device">
    <g>
      <g>
        <path class="cls-25" d="m188.5,132.92h10.7c2.29,0,3.99,1.86,3.78,4.15l-1.97,22.57c-.2,2.29-2.22,4.15-4.51,4.15h-10.7c-2.29,0-3.99-1.86-3.78-4.15l1.97-22.57c.2-2.29,2.22-4.15,4.51-4.15Z"/>
        <path class="cls-17" d="m308.2,128.1h16.72c3.58,0,6.23,2.9,5.91,6.48l-2.06,23.57c-.31,3.58-3.47,6.48-7.05,6.48h-16.72c-3.58,0-6.23-2.9-5.91-6.48l2.06-23.57c.31-3.58,3.47-6.48,7.05-6.48Z"/>
        <path class="cls-17" d="m304.77,167.26h16.72c3.58,0,6.23,2.9,5.91,6.48l-2.06,23.57c-.31,3.58-3.47,6.48-7.05,6.48h-16.72c-3.58,0-6.23-2.9-5.91-6.48l2.06-23.57c.31-3.58,3.47-6.48,7.05-6.48Z"/>
        <path class="cls-25" d="m218.51,83.91h93.16c12.95,0,22.52,10.49,21.39,23.44l-19.88,227.17c-1.13,12.95-12.55,23.44-25.49,23.44h-93.16c-12.95,0-22.52-10.49-21.39-23.44l19.87-227.17c1.13-12.95,12.55-23.44,25.49-23.44Z"/>
        <path class="cls-17" d="m218.51,83.91h93.16c12.95,0,22.52,10.49,21.39,23.44l-19.88,227.17c-1.13,12.95-12.55,23.44-25.49,23.44h-93.16c-12.95,0-22.52-10.49-21.39-23.44l19.87-227.17c1.13-12.95,12.55-23.44,25.49-23.44Z"/>
        <path class="cls-25" d="m215.5,83.91h93.16c12.95,0,22.52,10.49,21.39,23.44l-19.87,227.17c-1.13,12.95-12.55,23.44-25.49,23.44h-93.16c-12.95,0-22.52-10.49-21.39-23.44l19.88-227.17c1.13-12.95,12.55-23.44,25.49-23.44Z"/>
        <path class="cls-2" d="m327.26,107.35l-19.87,227.16c-1,11.4-11.05,20.65-22.45,20.65h-93.16c-11.4,0-19.84-9.24-18.84-20.65l19.87-227.16c1-11.4,11.05-20.65,22.45-20.65h93.16c11.4,0,19.84,9.24,18.84,20.65Z"/>
        <g class="cls-23">
          <path d="m191.77,355.16h35.32l57.06-268.45h-45l-56.58,266.18c2.69,1.45,5.81,2.28,9.2,2.28Z"/>
          <polygon points="305.75 86.71 297.19 86.71 240.12 355.16 248.69 355.16 305.75 86.71"/>
        </g>
        <path class="cls-25" d="m234.53,86.04c-.31,3.65,2.39,6.6,6.04,6.62h41.5c3.65-.01,6.86-2.97,7.19-6.62h-54.73Z"/>
        <path class="cls-25" d="m306.73,94.02h9.42c.79,0,1.37.64,1.3,1.42l-.36,4.11c-.07.79-.76,1.42-1.55,1.42h-9.42c-.79,0-1.37-.64-1.3-1.42l.36-4.11c.07-.79.76-1.42,1.55-1.42Z"/>
        <path class="cls-21" d="m206.15,94.02h12.61c.89,0,1.54.72,1.47,1.61l-.33,3.74c-.08.89-.86,1.61-1.75,1.61h-12.61c-.89,0-1.54-.72-1.47-1.61l.33-3.74c.08-.89.86-1.61,1.75-1.61Z"/>
        <path class="cls-8" d="m206.15,94.02h12.61c.89,0,1.54.72,1.47,1.61l-.33,3.74c-.08.89-.86,1.61-1.75,1.61h-12.61c-.89,0-1.54-.72-1.47-1.61l.33-3.74c.08-.89.86-1.61,1.75-1.61Z"/>
        <path class="cls-25" d="m304.22,95.21h1.48c.29,0,.5.23.48.52l-.31,3.53c-.03.29-.28.52-.57.52h-1.48c-.29,0-.5-.23-.48-.52l.31-3.53c.03-.29.28-.52.57-.52Z"/>
        <path class="cls-2" d="m314.28,95.21h1.48c.29,0,.5.23.48.52l-.31,3.53c-.03.29-.28.52-.57.52h-1.48c-.29,0-.5-.23-.48-.52l.31-3.53c.03-.29.28-.52.57-.52Z"/>
        <path class="cls-2" d="m311.09,95.21h1.48c.29,0,.5.23.48.52l-.31,3.53c-.03.29-.28.52-.57.52h-1.48c-.29,0-.5-.23-.48-.52l.31-3.53c.03-.29.28-.52.57-.52Z"/>
        <g>
          <g>
            <path class="cls-25" d="m327.83,157.99l-2.03,23.23c1.95-.36,3.56-2.05,3.74-4.07l1.32-15.08c.18-2.03-1.13-3.71-3.02-4.07Z"/>
            <path class="cls-17" d="m327.83,157.99l-2.03,23.23c1.95-.36,3.56-2.05,3.74-4.07l1.32-15.08c.18-2.03-1.13-3.71-3.02-4.07Z"/>
          </g>
          <g>
            <path class="cls-25" d="m330.02,132.92l-2.03,23.23c1.95-.36,3.56-2.05,3.74-4.07l1.32-15.08c.18-2.03-1.13-3.71-3.02-4.07Z"/>
            <path class="cls-17" d="m330.02,132.92l-2.03,23.23c1.95-.36,3.56-2.05,3.74-4.07l1.32-15.08c.18-2.03-1.13-3.71-3.02-4.07Z"/>
          </g>
        </g>
      </g>
      <g>
        <path class="cls-25" d="m273.51,102.67h-31.16c-5.21,0-9.81,4.23-10.27,9.44l-1.61,18.45c-.46,5.21,3.4,9.44,8.61,9.44h8.91l-.63,7.18c-.16,1.78,1.92,2.67,3.29,1.41l9.34-8.59h10.24c5.21,0,9.81-4.23,10.27-9.44l1.61-18.45c.46-5.21-3.4-9.44-8.61-9.44Z"/>
        <g>
          <path class="cls-2" d="m264.19,111.48h-14.96c-.04-1.24-.06-1.86-.1-3.1h-8.23c.11.71.17,1.06.28,1.77h5.94c.03.53.05.8.09,1.33.17,2.62.25,3.93.42,6.55.05.71.07,1.06.11,1.77.17,2.62.25,3.93.42,6.55.09,1.4.14,2.1.23,3.5h16.42c.23-.71.34-1.06.56-1.77h-15.63c-.02-.69-.03-1.04-.05-1.73h17c.88-2.62,1.31-3.93,2.19-6.55.24-.71.35-1.06.59-1.77.88-2.62,1.31-3.93,2.19-6.55h-7.48Zm-14.9,1.77h5.3c-.11,1.91-.16,2.87-.27,4.78h-4.87c-.06-1.91-.09-2.87-.15-4.78Zm.36,11.33c-.06-1.91-.09-2.87-.15-4.78h4.72c-.11,1.91-.16,2.87-.27,4.78h-4.29Zm10.17,0h-4.29c.17-1.91.26-2.87.43-4.78h4.72c-.34,1.91-.51,2.87-.86,4.78Zm1.17-6.55h-4.88c.17-1.91.26-2.87.43-4.78h5.3c-.34,1.91-.51,2.87-.86,4.78Zm4.71,6.55h-4.29c.41-1.91.61-2.87,1.01-4.78h4.72c-.58,1.91-.86,2.87-1.44,4.78Zm1.97-6.55h-4.87c.41-1.91.61-2.87,1.01-4.78h5.3c-.58,1.91-.86,2.87-1.44,4.78Z"/>
          <path class="cls-2" d="m249.28,131.51c-1.16,0-2.18.94-2.29,2.1-.1,1.16.76,2.1,1.92,2.1s2.18-.94,2.29-2.1c.1-1.16-.76-2.1-1.92-2.1Z"/>
          <path class="cls-2" d="m264.21,131.51c-1.16,0-2.18.94-2.29,2.1-.1,1.16.76,2.1,1.92,2.1s2.18-.94,2.29-2.1c.1-1.16-.76-2.1-1.92-2.1Z"/>
        </g>
      </g>
    </g>
  </g>
  <g id="Box">
    <g>
      <g>
        <rect class="cls-25" x="260.27" y="233.23" width="35.63" height="35.63"/>
        <rect class="cls-25" x="295.89" y="233.23" width="21.88" height="35.63"/>
        <polygon class="cls-25" points="289.09 224.29 253.46 224.29 260.27 233.23 295.89 233.23 289.09 224.29"/>
        <rect class="cls-4" x="295.89" y="233.23" width="21.88" height="35.63"/>
        <polygon class="cls-3" points="289.09 224.29 253.46 224.29 260.27 233.23 295.89 233.23 289.09 224.29"/>
        <polygon class="cls-25" points="302.34 224.29 324.22 224.29 317.78 233.23 295.89 233.23 302.34 224.29"/>
        <rect class="cls-9" x="260.27" y="233.23" width="35.63" height="35.63"/>
        <polygon class="cls-7" points="302.34 224.29 324.22 224.29 317.78 233.23 295.89 233.23 302.34 224.29"/>
      </g>
      <g>
        <g>
          <g>
            <rect class="cls-25" x="306.35" y="267.97" width="89.8" height="89.8"/>
            <rect class="cls-3" x="306.35" y="267.97" width="89.8" height="89.8"/>
            <rect class="cls-25" x="251.17" y="267.97" width="55.16" height="89.8"/>
            <rect class="cls-9" x="251.17" y="267.97" width="55.16" height="89.8"/>
          </g>
          <polygon class="cls-5" points="268.21 267.97 268.21 292.09 270.4 293.25 272.29 291.67 275.28 293.25 278.12 291.67 280.32 293.25 282.84 291.67 284.27 292.96 284.27 267.97 268.21 267.97"/>
        </g>
        <polygon class="cls-5" points="284.27 357.77 284.27 333.65 282.08 332.5 280.19 334.07 277.2 332.5 274.36 334.07 272.16 332.5 269.64 334.07 268.21 332.78 268.21 357.77 284.27 357.77"/>
        <g>
          <path class="cls-2" d="m342.98,304.59c.51,2.05.76,3.08,1.27,5.13.14.56.21.83.34,1.39.51,2.05.76,3.08,1.27,5.13h13.32c-.06.54-.1.81-.16,1.35h-12.25c.13.55.19.83.32,1.39h12.87c.17-1.1.25-1.65.42-2.74.31-2.05.47-3.08.78-5.13.08-.55.13-.83.21-1.39.31-2.05.47-3.08.78-5.13.06-.42.09-.62.16-1.04h4.65c.14-.55.21-.83.34-1.39h-6.45c-.12.97-.17,1.46-.29,2.43h-17.59Zm16.98,5.13h-3.82c.05-1.5.07-2.25.11-3.74h4.15c-.18,1.5-.27,2.25-.45,3.74Zm-3.98,5.13c.05-1.5.07-2.25.11-3.75h3.7c-.18,1.5-.27,2.25-.45,3.75h-3.36Zm-4.95-3.75h3.7c0,1.5,0,2.25.01,3.75h-3.36c-.14-1.5-.21-2.25-.34-3.75Zm-.47-5.13h4.16c0,1.5,0,2.25.01,3.74h-3.82c-.14-1.5-.21-2.25-.34-3.74Zm-4.6,5.13h3.7c.19,1.5.28,2.25.47,3.75h-3.36c-.32-1.5-.48-2.25-.8-3.75Zm-1.1-5.13h4.15c.19,1.5.28,2.25.47,3.74h-3.82c-.32-1.5-.48-2.25-.8-3.74Z"/>
          <circle class="cls-2" cx="359.16" cy="321.94" r="1.65"/>
          <circle class="cls-2" cx="347.45" cy="321.94" r="1.65"/>
        </g>
        <g class="cls-11">
          <path class="cls-2" d="m266.59,304.59c.51,2.05.76,3.08,1.27,5.13.14.56.21.83.34,1.39.51,2.05.76,3.08,1.27,5.13h13.32c-.06.54-.1.81-.16,1.35h-12.25c.13.55.19.83.32,1.39h12.87c.17-1.1.25-1.65.42-2.74.31-2.05.47-3.08.78-5.13.08-.55.13-.83.21-1.39.31-2.05.47-3.08.78-5.13.06-.42.09-.62.16-1.04h4.65c.14-.55.21-.83.34-1.39h-6.45c-.12.97-.17,1.46-.29,2.43h-17.59Zm16.98,5.13h-3.82l.11-3.74h4.15c-.18,1.5-.27,2.25-.45,3.74Zm-3.98,5.13c.05-1.5.07-2.25.11-3.75h3.7c-.18,1.5-.27,2.25-.45,3.75h-3.36Zm-4.95-3.75h3.7c0,1.5,0,2.25.01,3.75h-3.36c-.14-1.5-.21-2.25-.34-3.75Zm-.47-5.13h4.16c0,1.5,0,2.25.01,3.74h-3.82c-.14-1.5-.21-2.25-.34-3.74Zm-4.6,5.13h3.7c.19,1.5.28,2.25.47,3.75h-3.36c-.32-1.5-.48-2.25-.8-3.75Zm-1.1-5.13h4.15c.19,1.5.28,2.25.47,3.74h-3.82c-.32-1.5-.48-2.25-.8-3.74Z"/>
          <circle class="cls-2" cx="282.77" cy="321.94" r="1.65"/>
          <circle class="cls-2" cx="271.06" cy="321.94" r="1.65"/>
        </g>
      </g>
    </g>
  </g>
  <g id="Character_2" data-name="Character 2">
    <g>
      <g>
        <g>
          <path class="cls-20" d="m363.36,196.52s3.11,22.39,5.91,26.25c2.8,3.86,15.38,14.54,15.38,14.54l7.95-1.16,5.33,5.04-3.86,2.67-4.25-1.91s-3.17.43-7.22.17c-4.06-.25-19.91-10.96-22.84-16.61-2.92-5.64-6.22-26.38-6.22-26.38l9.81-2.62Z"/>
          <path class="cls-25" d="m366.03,202.99l-.79.14c-.55-5.26-2.75-21.25-8.78-17.14-5.79,3.95-4.17,15.15-3.32,19.34l-.96.17.88,2.76,13.33-2.56-.36-2.73Z"/>
          <path class="cls-16" d="m361,192.41l-1.47-3.15-4.62,4.63s-1.31,1.97-2.64,4c.07,2.99.52,5.78.85,7.44l-.96.17.88,2.76,7.52-1.44c1.37-7.82.43-14.42.43-14.42Z"/>
        </g>
        <path class="cls-27" d="m361.46,152.24s15.9,3.43,7.45,10.99l-6.98-6.11-.47-4.87Z"/>
        <polygon class="cls-20" points="383.53 320.13 373.41 344.92 366.39 342.19 372.05 317.55 383.53 320.13"/>
        <polygon class="cls-17" points="372.55 315.8 368.56 333.17 377.21 335.1 384.03 318.37 372.55 315.8"/>
        <path class="cls-27" d="m375.03,344.34c1.29,2.92,2.16,5.34,7.43,8.46,1.15.66-.79,3.7-3.66,2.41-4.74-2.14-3.5-2.18-7.57-3.94-3.41-1.5-5.94-2.42-8.73-3.57-.07-.03-.14-.07-.2-.12,0,0-.01,0-.02-.01-.49-.37-.59-1.07-.22-1.56l4.1-5.61c.18-.26.52-.35.81-.23l6.64,2.86c.61.25,1.11.71,1.41,1.3Z"/>
        <path class="cls-27" d="m406.18,261.87c-1.29,16.01-24.27,68.89-24.27,68.89l-13.64-3.8s10.42-50.81,17.22-59.22c0,0-2.22.04-5.79.07-12.43.11-41.24.09-49.55-2.12-5.93-1.58-18.32-4.75-15.05-24.59l15.36-.53,17.89-.62s59.6.05,57.83,21.92Z"/>
        <path class="cls-17" d="m379.7,267.81c-12.43.11-41.24.09-49.55-2.12-5.93-1.58-18.32-4.75-15.05-24.59l15.36-.53c12.09,1.43,27.89,3.82,38.66,8.45,5.24,2.25,8.88,6.31,9.95,11.09.31,1.4.54,4.77.63,7.7Z"/>
        <polygon class="cls-20" points="359.81 319.25 354.75 344.52 347.14 344.16 348.04 318.89 359.81 319.25"/>
        <polygon class="cls-17" points="359.81 319.25 348.04 318.89 347.52 334.01 356.79 334.33 359.81 319.25"/>
        <path class="cls-27" d="m355.91,345.12c1.24,3.03,2.05,5.52,7.33,8.86,1.14.74-.93,3.79-3.8,2.37-4.76-2.33-3.5-2.32-7.58-4.25-3.45-1.63-6-2.65-8.79-3.91l-.22-.11s0,0,0,0c-.5-.39-.59-1.11-.2-1.61l4.35-5.61c.2-.25.54-.34.83-.2l6.66,3.11c.62.25,1.13.73,1.42,1.34Z"/>
        <path class="cls-27" d="m306.17,241.08s-4.34,15.63,2.84,21.8c10.05,8.64,46.36,6.01,46.36,6.01-6.27,20.08-9.07,59.95-9.07,59.95h13.61s18.54-54.54,15.8-68.65c-2.74-14.1-51.38-19.09-51.38-19.09l-18.17-.02Z"/>
        <polygon class="cls-25" points="367.06 328.54 382.5 332.43 385.65 325.82 368.69 321.01 367.06 328.54"/>
        <polygon class="cls-25" points="344.95 330.73 360.7 331.54 362.33 324.61 344.95 323.8 344.95 330.73"/>
        <path class="cls-25" d="m352.17,219.44c3.96-11.79,9.01-20.76,9.57-30.81-13.69-19.76-40.46-8.08-40.46-8.08-16.2,30.39-15.12,60.53-15.12,60.53,36.81,0,38.92-.63,38.92-.63,0,0,.14-5.21,7.09-21.01Z"/>
        <path class="cls-17" d="m339.81,179.97c.59,3.47,1.82,9.76,3.28,10.67,2.03,1.22,5.02-.49,5.02-.49,0,0,2.43,3.29,5.02,1.1,1.44-1.38,2.57-3.06,3.3-4.92-.76,1.29-1.71,2.45-2.83,3.44-2.6,2.18-5.03-1.09-5.03-1.09,0,0-3,1.69-5.02.49-1.31-.79-2.85-5.77-3.74-9.19Z"/>
        <g>
          <polygon class="cls-25" points="343.11 175.17 346.77 176.42 343.9 178.92 343.11 175.17"/>
          <polygon class="cls-16" points="343.11 175.17 346.77 176.42 343.9 178.92 343.11 175.17"/>
        </g>
        <path class="cls-20" d="m354.71,178.93l1.01,2.95s-5.22,5.46-6.72,5.52c-1.5.06-5.9-10.27-5.9-10.27,5.81-2.63,5.27-5.52,5.27-5.52l6.33,7.32Z"/>
        <path class="cls-17" d="m352.81,184.72c1.54-1.41,2.91-2.84,2.91-2.84l-1.01-2.95-5.65-6.53c-.72,2.84-1.44,8.79,3.75,12.32Z"/>
        <path class="cls-25" d="m357.69,184c-.94,2.2-2.34,4.18-4.09,5.81-2.6,2.18-5.03-1.09-5.03-1.09,0,0-2.99,1.69-5.01.49s-4.56-12.27-4.56-12.27l4.11-1.77,5.66,11.96,7.63-6.31,1.29,3.19Z"/>
        <path class="cls-20" d="m348.16,161.52c0-1.77.45-3.52,1.33-5.06,2.77-4.86,8.95-6.56,13.81-3.79,7.25,3.92,7.45,15.34,5.3,22.03-.58,1.95-1.75,3.67-3.34,4.94-4.32,3.45-10.62,2.75-14.07-1.57-3.57-4.38-3.1-8.87-3.01-16.58l-.02.02Z"/>
        <path class="cls-27" d="m361.68,166.3c.42.03.67.61.57,1.22-.1.61-.48,1.03-.89.98-.41-.04-.67-.61-.57-1.22.09-.62.47-1.02.89-.98Z"/>
        <path class="cls-27" d="m368.61,167.6c.42.04.68.59.58,1.22-.1.62-.48,1.03-.9.98-.42-.04-.66-.6-.57-1.22.1-.61.47-1.03.89-.98Z"/>
        <path class="cls-27" d="m359.82,164.84c.72-.56,1.68-.74,2.55-.48h0s0,0,.01,0c.19.06.39-.04.45-.22h0c.06-.19-.04-.39-.22-.46-1.13-.35-2.36-.11-3.29.64h0c-.15.13-.17.35-.05.5.05.04.1.06.16.08.13.06.27.04.37-.06Z"/>
        <path class="cls-27" d="m370.36,166.79h0c.17-.11.22-.33.12-.5-.57-1.04-1.61-1.74-2.79-1.9h0c-.16,0-.29.12-.33.27,0,0,0,0,0,0-.05.2.08.4.27.44.95.15,1.78.73,2.23,1.58.06.1.17.17.29.18.08,0,.15-.04.2-.09Z"/>
        <path class="cls-12" d="m364.5,174.42c.96.44,2.06.44,3.02,0-.93-1.86-1.6-3.84-2.02-5.87l-1.01,5.88Z"/>
        <path class="cls-27" d="m347.68,166.51c-2.99-10.91,1.85-13.75,7.09-15.7,5.24-1.95,8.14-.08,9.82,1.76.52.57,1.56,2.32-1.8,2.55-2.04.08-4.08-.08-6.08-.47-.81-.15-1.64.18-2.13.84-1.16,1.51-3.04,4.35-3.02,6.84.15,1.91-.56,3.79-1.94,5.12l-1.95-.94Z"/>
        <path class="cls-25" d="m343.9,221.29h.01c.73,0,1.32.6,1.31,1.33s-.6,1.32-1.33,1.31c-.73,0-1.32-.6-1.31-1.33,0-.73.6-1.31,1.32-1.31Z"/>
        <path class="cls-25" d="m341.02,235.24h.02c.73,0,1.32.6,1.31,1.33,0,.73-.6,1.32-1.33,1.31-.73,0-1.32-.6-1.31-1.33,0-.72.59-1.31,1.31-1.31Z"/>
        <path class="cls-20" d="m347.76,164.02c2.11.39,3.13,3.38,3.15,5.34.02,2.11-1.5,3.69-3.37,2.43-1.42-.98-2.42-2.45-2.79-4.14-.41-2.08.9-4.02,3.01-3.63Z"/>
        <g>
          <path class="cls-27" d="m357.44,174.31s1.88.39,6.65,2.59c-1.22,1.18-2.8,1.87-5.24.72-2.43-1.15-1.41-3.31-1.41-3.31Z"/>
          <path class="cls-26" d="m360.51,177.01c-1.17-.56-2.15-.68-2.98-.53.23.41.65.81,1.33,1.14,1.17.55,2.14.68,2.98.53-.23-.41-.64-.81-1.32-1.13Z"/>
          <path class="cls-2" d="m357.68,174.36c0,.37-.01.74.42,1.06.96.53,3.64,1.42,4.39,1.59.47.13.91.15,1.4-.21-3.68-1.69-5.59-2.27-6.21-2.44Z"/>
        </g>
        <g>
          <rect class="cls-27" x="365.32" y="244.89" width="18.1" height="2.91" transform="translate(747.42 494.69) rotate(-179.69)"/>
          <path class="cls-27" d="m342.43,244.79h23.03c.75,0,1.36.61,1.36,1.36v1.54h-24.39v-2.91h0Z" transform="translate(707.93 494.37) rotate(-179.69)"/>
          <path class="cls-4" d="m342.43,244.79h23.03c.75,0,1.36.61,1.36,1.36v1.54h-24.39v-2.91h0Z" transform="translate(707.93 494.37) rotate(-179.69)"/>
          <rect class="cls-27" x="360.25" y="245.76" width="2.91" height="1.03" transform="translate(722.09 494.49) rotate(-179.69)"/>
          <rect class="cls-27" x="355.72" y="245.74" width="2.91" height="1.03" transform="translate(713.02 494.43) rotate(-179.69)"/>
          <polygon class="cls-27" points="370.28 244.87 368.35 244.86 376.05 218.63 377.98 218.64 370.28 244.87"/>
          <polygon class="cls-4" points="370.28 244.87 368.35 244.86 376.05 218.63 377.98 218.64 370.28 244.87"/>
          <polygon class="cls-27" points="369.57 244.87 403.54 245.05 411.24 218.82 377.27 218.64 369.57 244.87"/>
          <polygon class="cls-9" points="369.57 244.87 403.54 245.05 411.24 218.82 377.27 218.64 369.57 244.87"/>
          <path class="cls-27" d="m367.91,244.86c.37,0,34.99.19,35.36.19.6,0,1.08.66,1.07,1.46,0,.8-.49,1.45-1.09,1.45-.6,0-34.77-.19-35.36-.19-.6,0-1.08-.66-1.07-1.46,0-.8.49-1.45,1.09-1.45Z"/>
          <path class="cls-5" d="m367.91,244.86c.37,0,34.99.19,35.36.19.6,0,1.08.66,1.07,1.46,0,.8-.49,1.45-1.09,1.45-.6,0-34.77-.19-35.36-.19-.6,0-1.08-.66-1.07-1.46,0-.8.49-1.45,1.09-1.45Z"/>
          <path class="cls-27" d="m366.82,246.31c0,.8.48,1.46,1.07,1.46.6,0,1.08-.64,1.09-1.45,0-.8-.48-1.46-1.07-1.46-.6,0-1.08.64-1.09,1.45Z"/>
          <path class="cls-4" d="m366.82,246.31c0,.8.48,1.46,1.07,1.46.6,0,1.08-.64,1.09-1.45,0-.8-.48-1.46-1.07-1.46-.6,0-1.08.64-1.09,1.45Z"/>
        </g>
        <path class="cls-16" d="m333.43,220.58c-1.63-2.25-3.36-10.54-4.57-17.4l1.57-.3-.37-2.84-.82.15c-.56-5.37-2.78-21.48-8.8-17.99-1.75,3.41-3.28,6.82-4.63,10.2-.21,3.94.42,7.91.86,10.07l-.99.18.92,2.87,2.12-.41c1.28,6.62,3.12,14.99,4.85,18.32,2.26,4.36,11.97,11.64,18.52,15.19,7.33-1.3,9.02-2.22,9.02-2.22,0,0-.24-.29-.5-.9l-1.18.17s-13.07-11.1-15.98-15.1Z"/>
        <g>
          <path class="cls-20" d="m331.64,193.42s2.14,23.38,4.86,27.51c2.72,4.14,15.25,15.83,15.25,15.83l8.3-.81,5.28,5.49-4.13,2.58-4.32-2.19s-3.31.29-7.5-.17c-4.19-.46-20.12-12.34-22.88-18.34-2.76-6-5.17-27.67-5.17-27.67l10.31-2.24Z"/>
          <path class="cls-25" d="m333.5,198.47l-.82.15c-.57-5.46-2.86-22.07-9.12-17.8-6.01,4.1-4.33,15.74-3.45,20.09l-.99.18.91,2.87,13.84-2.65-.37-2.84Z"/>
        </g>
      </g>
      <g>
        <path class="cls-25" d="m405.29,185.93h-19.64c-3.29,0-5.95,2.66-5.95,5.95v11.63c0,3.29,2.66,5.95,5.95,5.95h5.62v4.52c0,1.12,1.36,1.69,2.15.89l5.42-5.42h6.45c3.29,0,5.95-2.66,5.95-5.95v-11.63c0-3.29-2.66-5.95-5.95-5.95Z"/>
        <g>
          <path class="cls-2" d="m400.54,191.48h-9.43c-.09-.78-.14-1.17-.23-1.95h-5.19c.11.45.17.67.28,1.12h3.74c.05.33.08.5.13.84.25,1.65.38,2.48.63,4.13.07.45.1.67.17,1.12.25,1.65.38,2.48.63,4.13.13.88.2,1.32.34,2.2h10.35c.1-.45.15-.67.26-1.12h-9.85c-.05-.44-.08-.65-.13-1.09h10.71c.41-1.65.61-2.48,1.02-4.13.11-.45.17-.67.28-1.12.41-1.65.61-2.48,1.02-4.13h-4.71Zm-9.29,1.12h3.34c.04,1.2.05,1.81.09,3.01h-3.07c-.14-1.2-.22-1.81-.36-3.01Zm.85,7.14c-.14-1.2-.22-1.81-.36-3.01h2.97c.04,1.2.05,1.81.09,3.01h-2.7Zm6.41,0h-2.7c0-1.2,0-1.81,0-3.01h2.97c-.11,1.2-.17,1.81-.28,3.01Zm.38-4.13h-3.07c0-1.2,0-1.81,0-3.01h3.34c-.11,1.2-.17,1.81-.28,3.01Zm3.33,4.13h-2.7c.15-1.2.23-1.81.38-3.01h2.97c-.26,1.2-.39,1.81-.64,3.01Zm.88-4.13h-3.07c.15-1.2.23-1.81.38-3.01h3.34c-.26,1.2-.39,1.81-.64,3.01Z"/>
          <path class="cls-2" d="m392.24,204.1c-.73,0-1.32.59-1.32,1.32s.59,1.32,1.32,1.32,1.32-.59,1.32-1.32-.59-1.32-1.32-1.32Z"/>
          <circle class="cls-2" cx="401.66" cy="205.43" r="1.32"/>
        </g>
      </g>
    </g>
  </g>
  <g id="Bag">
    <g>
      <path class="cls-27" d="m131.22,278.6l-2.39-.13.57-10.84c.39-7.38,6.7-13.38,14.08-13.38,3.6,0,6.91,1.4,9.33,3.95,2.42,2.55,3.65,5.95,3.47,9.55l-.57,10.84-2.39-.13.57-10.84c.15-2.94-.84-5.7-2.81-7.77-1.96-2.07-4.66-3.21-7.59-3.21-6.12,0-11.37,4.98-11.69,11.11l-.57,10.84Z"/>
      <polygon class="cls-25" points="182.49 273.78 111.82 273.78 109.42 357.63 119.9 355.24 130.38 357.63 184.89 357.63 182.49 273.78"/>
      <polygon class="cls-9" points="182.49 273.78 111.82 273.78 109.42 357.63 119.9 355.24 130.38 357.63 184.89 357.63 182.49 273.78"/>
      <polygon class="cls-25" points="130.38 357.63 119.9 355.24 109.42 357.63 111.82 273.78 127.99 273.78 130.38 357.63"/>
      <polygon class="cls-4" points="130.38 357.63 119.9 355.24 109.42 357.63 111.82 273.78 127.99 273.78 130.38 357.63"/>
      <path class="cls-27" d="m167.53,278.6l-.57-10.84c-.32-6.12-5.56-11.11-11.69-11.11-2.93,0-5.63,1.14-7.59,3.21-1.97,2.07-2.96,4.83-2.81,7.77l.57,10.84-2.39.13-.57-10.84c-.19-3.6,1.04-7,3.47-9.55,2.42-2.55,5.73-3.95,9.33-3.95,7.38,0,13.69,6,14.08,13.38l.57,10.84-2.39.13Z"/>
      <g class="cls-16">
        <path class="cls-2" d="m167.53,278.6l-.57-10.84c-.32-6.12-5.56-11.11-11.69-11.11-2.93,0-5.63,1.14-7.59,3.21-1.97,2.07-2.96,4.83-2.81,7.77l.57,10.84-2.39.13-.57-10.84c-.19-3.6,1.04-7,3.47-9.55,2.42-2.55,5.73-3.95,9.33-3.95,7.38,0,13.69,6,14.08,13.38l.57,10.84-2.39.13Z"/>
      </g>
      <path class="cls-2" d="m140.09,304.41h32.85c.74,0,1.34.6,1.34,1.34v5.3c0,.74-.6,1.34-1.34,1.34h-32.85c-.74,0-1.34-.6-1.34-1.34v-5.3c0-.74.6-1.34,1.34-1.34Z"/>
    </g>
    <g>
      <path class="cls-27" d="m98.74,304.66l-1.6-.08.38-7.27c.26-4.94,4.49-8.97,9.44-8.97,2.41,0,4.63.94,6.25,2.65,1.62,1.71,2.45,3.99,2.32,6.4l-.38,7.27-1.6-.08.38-7.27c.1-1.97-.57-3.82-1.88-5.21-1.32-1.39-3.12-2.15-5.09-2.15-4.1,0-7.62,3.34-7.83,7.45l-.38,7.27Z"/>
      <polygon class="cls-25" points="133.11 301.42 85.73 301.42 84.12 357.63 91.15 356.03 98.18 357.63 134.72 357.63 133.11 301.42"/>
      <polygon class="cls-25" points="98.18 357.63 91.15 356.03 84.12 357.63 85.73 301.42 96.57 301.42 98.18 357.63"/>
      <polygon class="cls-16" points="98.18 357.63 91.15 356.03 84.12 357.63 85.73 301.42 96.57 301.42 98.18 357.63"/>
      <path class="cls-27" d="m123.08,304.66l-.38-7.27c-.21-4.11-3.73-7.45-7.83-7.45-1.97,0-3.77.76-5.09,2.15-1.32,1.39-1.99,3.24-1.88,5.21l.38,7.27-1.6.08-.38-7.27c-.13-2.42.7-4.69,2.32-6.4,1.62-1.71,3.84-2.65,6.25-2.65,4.95,0,9.18,4.02,9.44,8.97l.38,7.27-1.6.08Z"/>
      <g class="cls-16">
        <path class="cls-2" d="m123.08,304.66l-.38-7.27c-.21-4.11-3.73-7.45-7.83-7.45-1.97,0-3.77.76-5.09,2.15-1.32,1.39-1.99,3.24-1.88,5.21l.38,7.27-1.6.08-.38-7.27c-.13-2.42.7-4.69,2.32-6.4,1.62-1.71,3.84-2.65,6.25-2.65,4.95,0,9.18,4.02,9.44,8.97l.38,7.27-1.6.08Z"/>
      </g>
      <rect class="cls-2" x="103.78" y="321.96" width="23.82" height="5.35" rx="1.34" ry="1.34"/>
    </g>
  </g>
  <g id="Character_1" data-name="Character 1">
    <g>
      <polygon class="cls-22" points="171.68 352.15 164.07 351.35 164.45 333.58 172.06 334.37 171.68 352.15"/>
      <polygon class="cls-22" points="236.06 326.64 229.25 330.12 219.01 315.44 225.83 311.97 236.06 326.64"/>
      <path class="cls-27" d="m227.83,329.17l7-4.99c.25-.18.59-.15.8.07l4.75,4.97c.49.52.39,1.41-.21,1.82-2.47,1.7-3.75,2.39-6.83,4.59-1.89,1.35-4.52,3.52-7.13,5.39-2.56,1.82-4.6-.62-3.68-1.63,4.13-4.53,3.87-6.53,4.53-9.08.12-.46.4-.86.77-1.13Z"/>
      <path class="cls-27" d="m163.42,350.39l8.55.89c.31.03.54.27.55.58l.27,6.87c.03.71-.65,1.31-1.36,1.23-2.98-.36-4.39-.69-8.15-1.08-2.31-.24-8.98-.7-12.18-1.03-3.12-.33-3.03-3.51-1.67-3.66,6.1-.66,10.49-1.99,12.67-3.47.39-.27.87-.38,1.32-.33Z"/>
      <g class="cls-16">
        <polygon points="164.45 333.58 164.25 342.74 171.86 343.54 172.06 334.38 164.45 333.58"/>
        <polygon points="225.83 311.97 219.01 315.45 224.29 323.01 231.11 319.53 225.83 311.97"/>
      </g>
      <path class="cls-27" d="m168.09,179.98s-7.89,58.72-8.13,82.06c-.24,24.28,2.84,78.77,2.84,78.77l10.29,1.08s4.17-53.6,5.84-77.4c1.82-25.94,11.9-83.8,11.9-83.8l-22.75-.72Z"/>
      <polygon class="cls-25" points="173.95 342.35 161.87 341.09 161.39 337.15 174.96 338.09 173.95 342.35"/>
      <path class="cls-13" d="m181.03,195.06c-8.11,15.11-2.9,43.3-.53,53.8,1.88-15.6,4.81-34.65,7.07-48.63-.91-7.98-2.8-12.13-6.54-5.16Z"/>
      <path class="cls-27" d="m176.29,180.24s5.1,61.47,9.8,81.3c5.57,23.54,35.75,60.73,35.75,60.73l9.3-4.74s-20.45-41.32-24.88-53.77c-9.47-26.57.58-65.41-7.11-82.8l-22.86-.72Z"/>
      <polygon class="cls-25" points="232.46 317.48 220.92 323.35 217.85 320.35 231.11 312.83 232.46 317.48"/>
      <path class="cls-25" d="m225.14,332.31s-.06,0-.09,0c-.34-.04-.61-.25-.8-.61-.14-.27-.08-.49,0-.62.49-.84,3.25-.97,3.57-.99.08,0,.14.04.17.1.03.07.02.14-.03.2-.65.74-1.86,1.96-2.81,1.93Zm2.24-1.84c-1.1.08-2.57.34-2.83.78-.03.06-.06.14.01.27.13.25.3.39.53.42.52.06,1.36-.48,2.29-1.47Z"/>
      <path class="cls-25" d="m227.56,330.45c-.95-.03-2.68-.54-3-1.26-.07-.15-.13-.46.2-.77.21-.2.47-.28.76-.25,1.11.12,2.39,1.9,2.45,1.98.04.05.04.12.02.18-.03.06-.08.1-.15.11-.08,0-.18.01-.28,0Zm-2.13-1.92c-.16,0-.3.05-.43.16-.17.16-.15.27-.12.35.22.49,1.65.99,2.58,1.04-.46-.57-1.32-1.48-1.98-1.55-.02,0-.04,0-.06,0Z"/>
      <path class="cls-25" d="m160.43,351.43c-.76-.08-1.44-.27-1.8-.66-.23-.25-.3-.56-.23-.91.04-.21.16-.37.36-.45.99-.41,3.86,1.45,4.18,1.67.06.04.09.12.08.2-.02.07-.08.13-.16.14-.66.06-1.59.11-2.42.02Zm-1.19-1.72c-.14-.01-.26,0-.34.03-.08.03-.12.09-.14.18-.05.24,0,.44.15.6.42.46,1.66.67,3.38.56-.99-.61-2.32-1.3-3.04-1.37Z"/>
      <path class="cls-25" d="m162.81,351.4s-.05-.01-.07-.02c-.86-.5-2.49-2.33-2.26-3.18.05-.2.23-.44.73-.44.37,0,.7.14.97.42.87.9.84,2.96.83,3.05,0,.06-.04.12-.09.15-.03.02-.07.03-.11.02Zm-1.49-3.27s-.07,0-.11,0c-.33,0-.37.13-.38.17-.14.51.94,1.93,1.81,2.58-.03-.61-.15-1.86-.72-2.45-.17-.18-.37-.28-.6-.3Z"/>
      <path class="cls-22" d="m164.81,148.75c-2.89,3.82-5.92,7.23-9.48,10.5-1.78,1.63-3.67,3.19-5.98,4.57-1.16.68-2.43,1.35-4.05,1.8-.81.22-1.73.39-2.79.38-.52,0-1.09-.07-1.66-.19-.29-.07-.58-.15-.86-.25-.3-.12-.51-.19-.95-.43-.77-.42-1.4-1.01-1.81-1.55-.42-.54-.71-1.08-.91-1.55-.41-.96-.57-1.77-.69-2.52-.21-1.5-.2-2.79-.15-4.05.12-2.5.52-4.82.96-7.12.92-4.57,2.2-8.93,3.76-13.27l4.14,1.07c-.6,4.35-1.14,8.79-1.47,13.09-.17,2.15-.25,4.29-.16,6.27.04.98.15,1.93.33,2.65.09.35.2.64.26.7.05.1.01-.21-.59-.59-.2-.1-.14-.08-.18-.1-.02-.01-.04-.02-.05-.03-.02-.02-.03-.02,0-.04.06-.02.25-.06.52-.16.52-.2,1.26-.59,1.99-1.09,1.48-1.01,3.02-2.37,4.51-3.8,1.49-1.44,2.92-3.02,4.34-4.62,1.42-1.58,2.82-3.3,4.1-4.88l6.88,5.22Z"/>
      <path class="cls-25" d="m163.14,137.75c-3.14-.86-12.43,11-12.43,11l8.88,9.91s10.42-9.4,10.02-13.61c-.41-4.39-1.9-6.03-6.48-7.29Z"/>
      <g>
        <path class="cls-22" d="m144.44,135.03l-.35-6.23-6.01,4.95s.91,4.83,3.94,5.79l1.87-2.63c.39-.55.58-1.21.54-1.87Z"/>
        <polygon class="cls-22" points="140.18 123.68 135.38 128.09 138.08 133.74 144.09 128.79 140.18 123.68"/>
      </g>
      <g>
        <path class="cls-27" d="m137.74,135.73l-1.38-.5c-.78-.28-1.24-1.09-1.09-1.91l2.11-11.22,3.79,1.38-1.16,10.84c-.12,1.09-1.23,1.79-2.26,1.41Z"/>
        <path class="cls-27" d="m147.73,121.47c.24-.65.46-1.29.68-1.93-.59-1.11-1.77-2.3-3.35-3.44-.5,1.23-1,2.52-1.49,3.85s-.93,2.64-1.34,3.91c1.94.14,3.61-.01,4.78-.48.24-.63.48-1.26.72-1.91Z"/>
        <path class="cls-25" d="m145.22,120.56c.66-1.82,1.1-3.53,1.27-4.82l-12.43-4.53-3.38,9.29,12.44,4.53c.69-1.1,1.45-2.67,2.11-4.47Z"/>
        <path class="cls-9" d="m145.22,120.56c.66-1.82,1.1-3.53,1.27-4.82l-12.43-4.53-3.38,9.29,12.44,4.53c.69-1.1,1.45-2.67,2.11-4.47Z"/>
        <path class="cls-25" d="m137.29,111.53c-.57-.21-13.97-14.03-15.5-14.59-1.63-.6-5.13,4.89-7.81,12.25s-3.53,13.8-1.89,14.4c1.54.56,20.68-1.41,21.25-1.2.67.24,2.09-1.99,3.18-4.99,1.09-3,1.44-5.62.77-5.87Z"/>
        <path class="cls-3" d="m137.29,111.53c-.57-.21-13.97-14.03-15.5-14.59-1.63-.6-5.13,4.89-7.81,12.25s-3.53,13.8-1.89,14.4c1.54.56,20.68-1.41,21.25-1.2.67.24,2.09-1.99,3.18-4.99,1.09-3,1.44-5.62.77-5.87Z"/>
        <path class="cls-25" d="m119.9,111.34c-2.68,7.36-6.18,12.84-7.81,12.25s-.79-7.04,1.89-14.4,6.18-12.84,7.81-12.25c1.63.6.79,7.04-1.89,14.4Z"/>
        <path class="cls-27" d="m115.95,109.9c-.18.49-.35.97-.51,1.45.62.9,1.79,1.89,3.33,2.88.39-.92.77-1.88,1.13-2.89.36-1,.69-1.98.99-2.94-1.81-.23-3.35-.22-4.4.07-.18.47-.37.95-.54,1.43Z"/>
        <path class="cls-6" d="m115.95,109.9c-.18.49-.35.97-.51,1.45.62.9,1.79,1.89,3.33,2.88.39-.92.77-1.88,1.13-2.89.36-1,.69-1.98.99-2.94-1.81-.23-3.35-.22-4.4.07-.18.47-.37.95-.54,1.43Z"/>
      </g>
      <path class="cls-16" d="m160.52,144.72c.46,6.65-1.1,10.61-2.19,12.52l1.26,1.41s5.88-5.3,8.63-9.72c-3.1-4.59-8.19-11.19-7.71-4.2Z"/>
      <circle class="cls-27" cx="195.48" cy="99.35" r="7.55"/>
      <path class="cls-25" d="m194.67,102.79c0,2.62-2.12,4.74-4.74,4.74s-4.74-2.12-4.74-4.74,2.12-4.74,4.74-4.74,4.74,2.12,4.74,4.74Z"/>
      <path class="cls-27" d="m174.84,96.9s-10.03-.82-10.02,16.38c.01,11.78,5.72,17.23,12.73,13.27,0,0,15.46-1.27,17.24-15.42,1.78-14.15-9.15-19.42-19.96-14.24Z"/>
      <path class="cls-25" d="m161.1,138.2s-3.54,1.54,7,45.8c12.3-.89,25.01-1.82,31-2.25-1.44-12.58-2.02-20.35,2.13-46.68,0,0-6.6-.94-13.29-.78-5.23.13-9.52.27-14.07,1.02-6.01.99-12.76,2.89-12.76,2.89Z"/>
      <path class="cls-22" d="m185.38,118.54c-.56,4.59-.84,12.95,2.55,15.75,0,0-.9,4.68-9.32,5.3-9.25.67-4.76-4.27-4.76-4.27,4.96-1.57,4.56-5.31,3.42-8.77l8.1-8.01Z"/>
      <path class="cls-16" d="m182.08,121.81l-4.8,4.73c.27.82.5,1.65.62,2.47,1.91-.42,4.41-2.73,4.46-4.76.03-1.01-.08-1.98-.28-2.44Z"/>
      <path class="cls-22" d="m190.56,110.9c-1.73,7.39-2.31,10.56-6.74,13.75-6.66,4.8-15.36,1.05-15.87-6.71-.46-6.99,2.45-17.9,10.28-19.63,7.71-1.7,14.07,5.2,12.34,12.59Z"/>
      <path class="cls-27" d="m177.81,110.85c-.1.61-.51,1.05-.91.98-.4-.07-.64-.62-.53-1.22.1-.61.51-1.05.91-.98s.64.62.53,1.22Z"/>
      <path class="cls-27" d="m170.94,109.67c-.1.61-.51,1.05-.91.98-.4-.07-.64-.62-.53-1.22.1-.61.51-1.05.91-.98.4.07.64.62.53,1.22Z"/>
      <path class="cls-27" d="m170.58,108.51l-1.39-.67s.55,1.27,1.39.67Z"/>
      <path class="cls-26" d="m173.36,111.13s-1.48,2.44-2.83,3.51c.68.89,2.1.78,2.1.78l.73-4.29Z"/>
      <path class="cls-22" d="m191.42,118.09c-.78,1.37-2.12,2.25-3.37,2.57-1.89.48-2.79-1.21-2.23-2.97.5-1.58,2.09-3.74,3.97-3.44,1.85.29,2.53,2.28,1.63,3.85Z"/>
      <path class="cls-27" d="m180.81,109.92c-.15,0-.29-.1-.34-.26-.49-1.6-2.54-2.29-2.56-2.29-.19-.06-.29-.27-.23-.46.06-.19.27-.29.46-.23.1.03,2.43.81,3.03,2.77.06.19-.05.39-.24.45-.04.01-.08.02-.11.02Z"/>
      <path class="cls-27" d="m169.41,106.14c-.12,0-.24-.07-.31-.18-.1-.17-.04-.4.13-.49,1.74-1,3.24-.25,3.3-.22.18.09.25.31.16.49-.09.18-.31.25-.49.16h0s-1.22-.59-2.61.2c-.06.03-.12.05-.19.05Z"/>
      <path class="cls-27" d="m177.45,109.69l-1.39-.67s.55,1.27,1.39.67Z"/>
      <g>
        <path class="cls-27" d="m173.23,117.31s2.01-.57,7.72-.84c-.59,1.75-1.77,3.21-4.69,3.32-2.93.11-3.03-2.48-3.03-2.48Z"/>
        <path class="cls-26" d="m177.55,118.37c-1.41.05-2.42.43-3.15.98.43.28,1.03.46,1.85.43,1.41-.05,2.41-.42,3.14-.98-.43-.28-1.03-.46-1.84-.43Z"/>
        <path class="cls-2" d="m173.49,117.24c.18.36.36.72.94.81,1.19.02,4.22-.46,5.03-.67.52-.11.96-.31,1.25-.9-4.4.22-6.53.62-7.22.77Z"/>
      </g>
      <path class="cls-27" d="m169.24,105.47s3.84-1.56,5.74-4.49c0,0,.04,5.32,2.17,4.91,2.14-.41-1.09-4.92-1.09-4.92,0,0,5.01,2.22,6.71,6.56,1.7,4.35,3.66,9.07,7.51,7.9,3.86-1.18,3-13.48-2.68-16.55l-8.04-1.44-2.36.34c-1.21.18-2.37.6-3.41,1.24h0c-1.58.97-2.82,2.41-3.55,4.11l-1,2.34Z"/>
      <path class="cls-25" d="m187.91,106.11c-.37-.78-2.14-.72-3.96.14-1.82.86-1.89,1.67-1.52,2.45.37.78,1.04,1.24,2.86.38,1.82-.86,2.99-2.19,2.62-2.97Zm-4.29,2.03c-.26-.56-.21-1.14,1.09-1.75s2.57-.66,2.83-.1c.26.56-.58,1.51-1.87,2.12-1.3.61-1.78.29-2.04-.27Z"/>
      <path class="cls-16" d="m197.8,145.33l-2.35-2.02-1.74.78s-1.41,8.65,4.43,17.45c.15-3.33.47-7.08.99-11.56-.73-2.68-1.33-4.65-1.33-4.65Z"/>
      <path class="cls-27" d="m229.48,169.7l-1.27.13-.6-5.73c-.41-3.9,2.41-7.58,6.28-8.19,1.89-.3,3.74.16,5.22,1.3,1.48,1.14,2.41,2.82,2.61,4.72l.6,5.73-1.27.13-.6-5.73c-.16-1.56-.92-2.92-2.12-3.85-1.2-.92-2.71-1.3-4.25-1.05-3.21.51-5.55,3.56-5.21,6.8l.6,5.73Z"/>
      <path class="cls-22" d="m205.91,144c.17.86.42,1.92.64,2.9.24.99.5,1.99.78,2.97.56,1.97,1.15,3.93,1.86,5.82,1.42,3.77,3.14,7.4,5.39,10.3l.21.27.11.14s-.08-.08-.12-.12c-.17-.16-.41-.26-.55-.31-.3-.09-.29,0-.1,0,.4.03,1.25-.15,2.07-.44,1.69-.59,3.56-1.48,5.36-2.47,3.63-1.98,7.3-4.28,10.85-6.6l2.76,3.26c-3.14,3.23-6.42,6.17-10.12,8.86-1.87,1.32-3.79,2.62-6.12,3.68-1.19.52-2.43,1.04-4.2,1.26-.88.09-1.99.11-3.31-.36-.65-.23-1.35-.64-1.93-1.16-.14-.13-.29-.27-.41-.4l-.16-.17-.32-.35c-1.7-1.86-3.1-3.88-4.29-5.94-1.22-2.06-2.21-4.19-3.09-6.35-.87-2.16-1.65-4.33-2.28-6.54-.31-1.11-.6-2.22-.87-3.34-.27-1.14-.49-2.2-.7-3.48l8.52-1.43Z"/>
      <path class="cls-25" d="m201.22,135.07c3.17.72,8.73,12.18,8.73,12.18l-12.47,8.44s-5.04-8.61-4.03-12.72c1.06-4.28,4.15-8.73,7.77-7.91Z"/>
      <g>
        <path class="cls-22" d="m231.9,156.49l7.24-3.99-1.52,7.63s-4.68,1.48-6.96-.73l1.24-2.9Z"/>
        <polygon class="cls-22" points="245.49 153.52 243.87 159.84 237.62 160.13 239.14 152.5 245.49 153.52"/>
      </g>
      <g>
        <path class="cls-27" d="m248.53,166.68l-1.2-5.64c-.68-3.19-3.84-5.37-7.05-4.86-1.54.24-2.86,1.07-3.72,2.31-.86,1.25-1.15,2.78-.83,4.31l1.2,5.64-1.25.27-1.2-5.64c-.4-1.88-.03-3.76,1.02-5.3,1.06-1.54,2.68-2.55,4.57-2.85,3.87-.61,7.68,2.01,8.5,5.85l1.2,5.64-1.25.27Z"/>
        <g class="cls-15">
          <path class="cls-2" d="m248.53,166.68l-1.2-5.64c-.68-3.19-3.84-5.37-7.05-4.86-1.54.24-2.86,1.07-3.72,2.31-.86,1.25-1.15,2.78-.83,4.31l1.2,5.64-1.25.27-1.2-5.64c-.4-1.88-.03-3.76,1.02-5.3,1.06-1.54,2.68-2.55,4.57-2.85,3.87-.61,7.68,2.01,8.5,5.85l1.2,5.64-1.25.27Z"/>
        </g>
      </g>
      <g>
        <polygon class="cls-25" points="255.99 162.91 218.9 168.78 224.61 212.98 229.91 210.85 235.61 211.23 264.21 206.7 255.99 162.91"/>
        <polygon class="cls-9" points="255.99 162.91 218.9 168.78 224.61 212.98 229.91 210.85 235.61 211.23 264.21 206.7 255.99 162.91"/>
        <polygon class="cls-25" points="235.61 211.23 229.91 210.85 224.61 212.98 218.9 168.78 227.39 167.44 235.61 211.23"/>
        <polygon class="cls-4" points="235.61 211.23 229.91 210.85 224.61 212.98 218.9 168.78 227.39 167.44 235.61 211.23"/>
        <rect class="cls-2" x="235.65" y="183.15" width="18.55" height="3.16" rx="1.51" ry="1.51" transform="translate(-25.88 40.59) rotate(-9)"/>
      </g>
    </g>
  </g>
</svg>