<?xml version="1.0" encoding="UTF-8"?>
<svg id="Layer_2" data-name="Layer 2" xmlns="http://www.w3.org/2000/svg" viewBox="0 0 500 372.61">
  <defs>
    <style>
      .cls-1 {
        fill: #f0f0f0;
      }

      .cls-2, .cls-3, .cls-4, .cls-5, .cls-6, .cls-7, .cls-8, .cls-9, .cls-10 {
        fill: #fff;
      }

      .cls-11 {
        fill: #fafafa;
      }

      .cls-12, .cls-5, .cls-7, .cls-13 {
        opacity: .5;
      }

      .cls-3 {
        opacity: .8;
      }

      .cls-3, .cls-14, .cls-15, .cls-4, .cls-6, .cls-7, .cls-16, .cls-17, .cls-8, .cls-18, .cls-13, .cls-9, .cls-10 {
        isolation: isolate;
      }

      .cls-19 {
        fill: #f5f5f5;
      }

      .cls-14, .cls-16, .cls-20 {
        fill: #407bff;
      }

      .cls-14, .cls-8 {
        opacity: .4;
      }

      .cls-21 {
        fill: #ebb376;
      }

      .cls-15, .cls-18, .cls-10 {
        opacity: .6;
      }

      .cls-15, .cls-22 {
        fill: #263238;
      }

      .cls-4, .cls-16 {
        opacity: .3;
      }

      .cls-23 {
        fill: #e0e0e0;
      }

      .cls-6 {
        opacity: .7;
      }

      .cls-24 {
        fill: #e6e6e6;
      }

      .cls-17, .cls-9 {
        opacity: .2;
      }

      .cls-25 {
        stroke: #263238;
        stroke-linecap: round;
        stroke-linejoin: round;
        stroke-width: .5px;
      }

      .cls-25, .cls-26 {
        fill: none;
      }

      .cls-27 {
        fill: #ebebeb;
      }

      .cls-28 {
        fill: #d58745;
      }

      .cls-26 {
        stroke: #407bff;
        stroke-miterlimit: 10;
      }
    </style>
  </defs>
  <g id="Background_Complete" data-name="Background Complete">
    <g>
      <rect class="cls-27" y="327.45" width="500" height=".25"/>
      <rect class="cls-27" x="416.78" y="343.54" width="33.12" height=".25"/>
      <rect class="cls-27" x="322.53" y="346.26" width="8.69" height=".25"/>
      <rect class="cls-27" x="396.59" y="334.26" width="19.19" height=".25"/>
      <rect class="cls-27" x="52.46" y="335.94" width="43.19" height=".25"/>
      <rect class="cls-27" x="104.56" y="335.94" width="6.33" height=".25"/>
      <rect class="cls-27" x="131.47" y="340.16" width="93.68" height=".25"/>
      <path class="cls-27" d="m237.01,282.85H43.91c-3.15,0-5.71-2.56-5.71-5.71V5.71c0-3.15,2.56-5.71,5.71-5.71h193.1c3.15,0,5.71,2.56,5.71,5.71v271.43c0,3.15-2.56,5.71-5.71,5.71ZM43.91.25c-3.01,0-5.46,2.45-5.46,5.46v271.43c0,3.01,2.45,5.46,5.46,5.46h193.1c3.01,0,5.46-2.45,5.46-5.46V5.71c0-3.01-2.45-5.46-5.46-5.46H43.91Z"/>
      <path class="cls-27" d="m453.31,282.85h-193.1c-3.15,0-5.71-2.56-5.71-5.71V5.71c0-3.15,2.56-5.71,5.71-5.71h193.1c3.15,0,5.71,2.56,5.71,5.71v271.43c0,3.15-2.56,5.71-5.71,5.71ZM260.21.25c-3.01,0-5.46,2.45-5.46,5.46v271.43c0,3.01,2.45,5.46,5.46,5.46h193.1c3.01,0,5.46-2.45,5.46-5.46V5.71c0-3.01-2.45-5.46-5.46-5.46h-193.1Z"/>
    </g>
    <g>
      <g>
        <rect class="cls-11" x="95.51" y="39.44" width="71.25" height="241.71"/>
        <polygon class="cls-19" points="156.15 39.44 151.99 39.44 127.14 281.15 131.3 281.15 156.15 39.44"/>
        <rect class="cls-23" x="95.05" y="40.37" width="70.45" height="2.13"/>
        <rect class="cls-27" x="95.05" y="279.03" width="70.45" height="4.56"/>
        <g>
          <rect class="cls-27" x="97.76" y="283.39" width="66.57" height=".2"/>
          <polygon class="cls-27" points="97.76 40.37 164.33 40.37 164.33 283.39 168.31 283.39 168.31 37.38 93.77 37.38 93.77 283.39 97.76 283.39 97.76 40.37"/>
        </g>
      </g>
      <g>
        <rect class="cls-11" x="174.79" y="39.44" width="71.25" height="241.71"/>
        <polygon class="cls-19" points="226.28 39.44 203.57 39.44 178.72 281.15 201.43 281.15 226.28 39.44"/>
        <rect class="cls-23" x="174.34" y="40.37" width="72.45" height="2.13"/>
        <rect class="cls-27" x="174.34" y="279.03" width="72.45" height="4.56"/>
        <g>
          <rect class="cls-27" x="177.05" y="283.39" width="66.57" height=".2"/>
          <polygon class="cls-27" points="177.05 40.37 243.61 40.37 243.61 283.39 247.6 283.39 247.6 37.38 173.06 37.38 173.06 283.39 177.05 283.39 177.05 40.37"/>
        </g>
      </g>
      <g>
        <rect class="cls-11" x="254.08" y="39.44" width="69.25" height="241.71"/>
        <polygon class="cls-19" points="293.32 39.44 289.16 39.44 264.3 281.15 268.47 281.15 293.32 39.44"/>
        <rect class="cls-23" x="253.63" y="40.37" width="70.45" height="2.13"/>
        <rect class="cls-27" x="253.63" y="279.03" width="70.45" height="4.56"/>
        <g>
          <rect class="cls-27" x="256.34" y="283.39" width="66.57" height=".2"/>
          <polygon class="cls-27" points="256.34 40.37 322.9 40.37 322.9 283.39 326.89 283.39 326.89 37.38 252.35 37.38 252.35 283.39 256.34 283.39 256.34 40.37"/>
        </g>
      </g>
      <g>
        <rect class="cls-11" x="333.37" y="39.44" width="71.25" height="241.71"/>
        <polygon class="cls-19" points="397.65 39.44 374.93 39.44 350.08 281.15 372.8 281.15 397.65 39.44"/>
        <rect class="cls-23" x="332.91" y="40.37" width="70.45" height="2.13"/>
        <rect class="cls-27" x="332.91" y="279.03" width="70.45" height="4.56"/>
        <g>
          <polygon class="cls-27" points="335.62 40.37 402.19 40.37 402.19 283.39 406.18 283.39 406.18 37.38 331.64 37.38 331.64 283.39 335.62 283.39 335.62 40.37"/>
          <rect class="cls-27" x="335.62" y="283.39" width="66.57" height=".2"/>
        </g>
      </g>
      <g>
        <rect class="cls-27" x="118.78" y="225.55" width="30.93" height="53.49"/>
        <polygon class="cls-27" points="143.77 218.07 143.77 231.49 141.34 231.49 127.16 231.49 124.72 231.49 124.72 218.07 143.77 218.07"/>
        <rect class="cls-11" x="143.77" y="227.53" width="3.96" height="3.96" transform="translate(291.51 459.02) rotate(180)"/>
        <rect class="cls-11" x="136.1" y="227.53" width="3.96" height="3.96" transform="translate(276.17 459.02) rotate(180)"/>
        <rect class="cls-11" x="128.43" y="227.53" width="3.96" height="3.96" transform="translate(260.83 459.02) rotate(180)"/>
        <rect class="cls-1" x="120.76" y="227.53" width="3.96" height="3.96" transform="translate(245.48 459.02) rotate(180)"/>
        <rect class="cls-1" x="143.77" y="234.73" width="3.96" height="3.96" transform="translate(291.51 473.41) rotate(180)"/>
        <rect class="cls-1" x="136.1" y="234.73" width="3.96" height="3.96" transform="translate(276.17 473.41) rotate(180)"/>
        <rect class="cls-11" x="128.43" y="234.73" width="3.96" height="3.96" transform="translate(260.83 473.41) rotate(180)"/>
        <rect class="cls-11" x="120.76" y="234.73" width="3.96" height="3.96" transform="translate(245.48 473.41) rotate(180)"/>
        <rect class="cls-1" x="143.77" y="241.92" width="3.96" height="3.96" transform="translate(291.51 487.8) rotate(180)"/>
        <rect class="cls-11" x="136.1" y="241.92" width="3.96" height="3.96" transform="translate(276.17 487.8) rotate(180)"/>
        <rect class="cls-11" x="128.43" y="241.92" width="3.96" height="3.96" transform="translate(260.83 487.8) rotate(180)"/>
        <rect class="cls-11" x="136.1" y="221.31" width="3.96" height="3.96" transform="translate(276.17 446.58) rotate(180)"/>
        <rect class="cls-1" x="128.43" y="221.31" width="3.96" height="3.96" transform="translate(260.83 446.58) rotate(180)"/>
        <rect class="cls-1" x="120.76" y="241.92" width="3.96" height="3.96" transform="translate(245.48 487.8) rotate(180)"/>
        <rect class="cls-11" x="143.77" y="249.12" width="3.96" height="3.96" transform="translate(291.51 502.19) rotate(180)"/>
        <rect class="cls-1" x="136.1" y="249.12" width="3.96" height="3.96" transform="translate(276.17 502.19) rotate(180)"/>
        <rect class="cls-1" x="128.43" y="249.12" width="3.96" height="3.96" transform="translate(260.83 502.19) rotate(180)"/>
        <rect class="cls-11" x="120.76" y="249.12" width="3.96" height="3.96" transform="translate(245.48 502.19) rotate(180)"/>
        <rect class="cls-1" x="143.77" y="256.31" width="3.96" height="3.96" transform="translate(291.51 516.58) rotate(180)"/>
        <rect class="cls-11" x="136.1" y="256.31" width="3.96" height="3.96" transform="translate(276.17 516.58) rotate(180)"/>
        <rect class="cls-11" x="128.43" y="256.31" width="3.96" height="3.96" transform="translate(260.83 516.58) rotate(180)"/>
        <rect class="cls-1" x="120.76" y="256.31" width="3.96" height="3.96" transform="translate(245.48 516.58) rotate(180)"/>
        <rect class="cls-1" x="143.77" y="263.51" width="3.96" height="3.96" transform="translate(291.51 530.98) rotate(180)"/>
        <rect class="cls-11" x="136.1" y="263.51" width="3.96" height="3.96" transform="translate(276.17 530.98) rotate(180)"/>
        <rect class="cls-1" x="128.43" y="263.51" width="3.96" height="3.96" transform="translate(260.83 530.98) rotate(180)"/>
        <rect class="cls-11" x="120.76" y="263.51" width="3.96" height="3.96" transform="translate(245.48 530.98) rotate(180)"/>
        <rect class="cls-11" x="143.77" y="270.7" width="3.96" height="3.96" transform="translate(291.51 545.37) rotate(180)"/>
        <rect class="cls-11" x="136.1" y="270.7" width="3.96" height="3.96" transform="translate(276.17 545.37) rotate(180)"/>
        <rect class="cls-1" x="128.43" y="270.7" width="3.96" height="3.96" transform="translate(260.83 545.37) rotate(180)"/>
        <rect class="cls-1" x="120.76" y="270.7" width="3.96" height="3.96" transform="translate(245.48 545.37) rotate(180)"/>
      </g>
      <g>
        <rect class="cls-1" x="339.89" y="245.03" width="27.71" height="34"/>
        <polygon class="cls-24" points="342.31 248.81 348.75 248.81 350.53 248.81 352.3 248.81 352.3 252.35 350.53 252.35 348.75 252.35 342.31 252.35 342.31 248.81"/>
        <polygon class="cls-11" points="342.31 255.68 348.75 255.68 350.53 255.68 352.3 255.68 352.3 259.22 350.53 259.22 348.75 259.22 342.31 259.22 342.31 255.68"/>
        <polygon class="cls-24" points="342.31 262.55 348.75 262.55 350.53 262.55 352.3 262.55 352.3 266.1 350.53 266.1 348.75 266.1 342.31 266.1 342.31 262.55"/>
        <polygon class="cls-11" points="342.31 269.42 348.75 269.42 351.49 269.42 352.3 269.42 352.3 272.97 351.49 272.97 348.75 272.97 342.31 272.97 342.31 269.42"/>
        <polygon class="cls-11" points="355.2 248.81 361.64 248.81 363.42 248.81 365.19 248.81 365.19 252.35 363.42 252.35 361.64 252.35 355.2 252.35 355.2 248.81"/>
        <polygon class="cls-11" points="355.2 255.68 361.64 255.68 364.15 255.68 365.19 255.68 365.19 259.22 364.15 259.22 361.64 259.22 355.2 259.22 355.2 255.68"/>
        <polygon class="cls-24" points="355.2 262.55 361.64 262.55 363.42 262.55 365.19 262.55 365.19 266.1 363.42 266.1 361.64 266.1 355.2 266.1 355.2 262.55"/>
        <polygon class="cls-11" points="355.2 269.42 361.64 269.42 363.42 269.42 365.19 269.42 365.19 272.97 363.42 272.97 361.64 272.97 355.2 272.97 355.2 269.42"/>
      </g>
      <g>
        <rect class="cls-1" x="208.9" y="257.91" width="25.18" height="21.13"/>
        <rect class="cls-11" x="229.24" y="260.54" width="3.22" height="3.22" transform="translate(461.71 524.31) rotate(180)"/>
        <rect class="cls-11" x="223" y="260.54" width="3.22" height="3.22" transform="translate(449.22 524.31) rotate(180)"/>
        <rect class="cls-11" x="216.76" y="260.54" width="3.22" height="3.22" transform="translate(436.74 524.31) rotate(180)"/>
        <rect class="cls-11" x="210.51" y="260.54" width="3.22" height="3.22" transform="translate(424.25 524.31) rotate(180)"/>
        <rect class="cls-11" x="229.24" y="266.4" width="3.22" height="3.22" transform="translate(461.71 536.02) rotate(180)"/>
        <rect class="cls-11" x="223" y="266.4" width="3.22" height="3.22" transform="translate(449.22 536.02) rotate(180)"/>
        <rect class="cls-11" x="216.76" y="266.4" width="3.22" height="3.22" transform="translate(436.74 536.02) rotate(180)"/>
        <rect class="cls-24" x="210.51" y="266.4" width="3.22" height="3.22" transform="translate(424.25 536.02) rotate(180)"/>
        <rect class="cls-24" x="229.24" y="272.26" width="3.22" height="3.22" transform="translate(461.71 547.74) rotate(180)"/>
        <rect class="cls-24" x="223" y="272.26" width="3.22" height="3.22" transform="translate(449.22 547.74) rotate(180)"/>
        <rect class="cls-11" x="216.76" y="272.26" width="3.22" height="3.22" transform="translate(436.74 547.74) rotate(180)"/>
        <rect class="cls-24" x="210.51" y="272.26" width="3.22" height="3.22" transform="translate(424.25 547.74) rotate(180)"/>
      </g>
      <g>
        <rect class="cls-1" x="180.31" y="242.29" width="25.18" height="36.75"/>
        <rect class="cls-11" x="194.41" y="243.9" width="9.47" height="9.08"/>
        <rect class="cls-11" x="181.92" y="243.9" width="9.47" height="9.08"/>
        <rect class="cls-11" x="194.41" y="255.61" width="9.47" height="9.08"/>
        <rect class="cls-11" x="181.92" y="255.61" width="9.47" height="9.08"/>
        <rect class="cls-11" x="194.41" y="267.32" width="9.47" height="9.08"/>
        <rect class="cls-11" x="181.92" y="267.32" width="9.47" height="9.08"/>
      </g>
    </g>
  </g>
  <g id="Shadow">
    <ellipse id="_Path_" data-name="&amp;lt;Path&amp;gt;" class="cls-19" cx="250" cy="361.29" rx="193.89" ry="11.32"/>
  </g>
  <g id="Plant">
    <g>
      <g>
        <path class="cls-26" d="m395.12,293.67s6.35-5.29,11.79,0c5.44,5.29,6.49,38.08,6.49,38.08"/>
        <path class="cls-26" d="m413.85,338.08s-3.74-38.47,10.35-54.64"/>
        <path class="cls-26" d="m412.51,334.03s2.88-43.8-7.68-53.52"/>
        <path class="cls-26" d="m413.85,334.03s.25-28.94,8.1-33.44c7.85-4.5,11.85,10.18,11.85,10.18"/>
        <path class="cls-26" d="m410.75,334.03s1.28-22.22-4.8-30.16c-6.08-7.94-12.49,3.4-12.49,3.4"/>
        <path class="cls-26" d="m412.87,337s-3.93-51.96,2.58-60.77"/>
      </g>
      <g>
        <path class="cls-20" d="m428.67,304.8s-3.91,1.44-2.75,4.85c1.16,3.41,13.54,9.02,13.54,9.02,0,0,5.18-4.75.42-12.48-4.76-7.73-11.11-3.82-11.22-1.38Z"/>
        <path class="cls-7" d="m428.67,304.8s-3.91,1.44-2.75,4.85c1.16,3.41,13.54,9.02,13.54,9.02,0,0,5.18-4.75.42-12.48-4.76-7.73-11.11-3.82-11.22-1.38Z"/>
      </g>
      <g>
        <path class="cls-20" d="m411.65,298.31s4.17-.17,4.41,3.42c.24,3.59-9.03,13.53-9.03,13.53,0,0-6.61-2.39-5.19-11.36s8.78-7.8,9.82-5.59Z"/>
        <path class="cls-7" d="m411.65,298.31s4.17-.17,4.41,3.42c.24,3.59-9.03,13.53-9.03,13.53,0,0-6.61-2.39-5.19-11.36s8.78-7.8,9.82-5.59Z"/>
      </g>
      <g>
        <path class="cls-20" d="m408.12,281.12s2.78-.3,2.56-1.99c-.22-1.69-10.8-6.05-17.05,1,0,0,4,6.87,9.78,6.96,5.78.09,4.72-5.96,4.72-5.96Z"/>
        <path class="cls-7" d="m408.12,281.12s2.78-.3,2.56-1.99c-.22-1.69-10.8-6.05-17.05,1,0,0,4,6.87,9.78,6.96,5.78.09,4.72-5.96,4.72-5.96Z"/>
      </g>
      <g>
        <path class="cls-20" d="m413.3,277s-2.52,1.22-3.22-.34c-.71-1.56,5.97-10.85,14.99-8.17,0,0,.24,7.94-4.62,11.07s-7.15-2.56-7.15-2.56Z"/>
        <path class="cls-7" d="m413.3,277s-2.52,1.22-3.22-.34c-.71-1.56,5.97-10.85,14.99-8.17,0,0,.24,7.94-4.62,11.07s-7.15-2.56-7.15-2.56Z"/>
      </g>
      <g>
        <path class="cls-20" d="m400.14,303.43s1.92-1.55-.15-2.3-12.23-.54-12.33,9.52c0,0,11.83,1.97,13.29-1.87,1.46-3.83-.81-5.35-.81-5.35Z"/>
        <path class="cls-7" d="m400.14,303.43s1.92-1.55-.15-2.3-12.23-.54-12.33,9.52c0,0,11.83,1.97,13.29-1.87,1.46-3.83-.81-5.35-.81-5.35Z"/>
      </g>
      <g>
        <path class="cls-20" d="m424.27,280.86s-1.92-1.55.15-2.3,12.23-.54,12.33,9.52c0,0-11.83,1.97-13.29-1.87-1.46-3.83.81-5.35.81-5.35Z"/>
        <path class="cls-7" d="m424.27,280.86s-1.92-1.55.15-2.3,12.23-.54,12.33,9.52c0,0-11.83,1.97-13.29-1.87-1.46-3.83.81-5.35.81-5.35Z"/>
      </g>
      <g>
        <path class="cls-20" d="m418.01,288.97s-.17-1.88,1.35-1.14c1.52.74,6.82,6.45,1.33,11.87,0,0-7.39-5.47-6.06-8.32s3.38-2.4,3.38-2.4Z"/>
        <path class="cls-7" d="m418.01,288.97s-.17-1.88,1.35-1.14c1.52.74,6.82,6.45,1.33,11.87,0,0-7.39-5.47-6.06-8.32s3.38-2.4,3.38-2.4Z"/>
      </g>
      <g>
        <path class="cls-20" d="m398.43,291.65s1.15-1.5-.53-1.69c-1.68-.19-9.21,1.82-7.45,9.34,0,0,9.17-.69,9.56-3.81s-1.58-3.84-1.58-3.84Z"/>
        <path class="cls-7" d="m398.43,291.65s1.15-1.5-.53-1.69c-1.68-.19-9.21,1.82-7.45,9.34,0,0,9.17-.69,9.56-3.81s-1.58-3.84-1.58-3.84Z"/>
      </g>
      <polygon class="cls-22" points="429.4 361.92 397.95 361.92 394.55 327.47 432.8 327.47 429.4 361.92"/>
      <polygon class="cls-9" points="429.4 361.92 397.95 361.92 394.55 327.47 432.8 327.47 429.4 361.92"/>
      <rect class="cls-22" x="392.87" y="323.67" width="41.61" height="7.6"/>
      <rect class="cls-8" x="392.87" y="323.67" width="41.61" height="7.6"/>
    </g>
  </g>
  <g id="Trash_bin" data-name="Trash bin">
    <g>
      <g>
        <path class="cls-20" d="m101.45,341.7c.82-1.38-.34-3.46-1.95-3.49.71-1.98,0-4.38-1.65-5.68-.21-.16-.45-.32-.72-.32-.28,0-.54.17-.77.34-1.52,1.09-3.03,2.18-4.55,3.27-.35.25-.71.51-.9.89-.93,1.8,2.42,4.11,1.04,5.59-.4.43-1.03.51-1.53.82-1.08.68-1.21,2.16-1.72,3.33-.5,1.17-2.26,2.08-2.94,1,.5-1.12-1.01-2.09-2.23-2.24-1.2-.14-2.5-.21-3.17-1.36-1.73,1.51-5.61-2.71-5.52-4.41-1.42.11-2.39,1.44-2.71,2.78-.32,1.38-.12,2.83-.15,4.24-.04,2.76-.93,5.46-.88,8.22.04,2.15.87,4.53,2.83,5.39.95.42,2.01.42,3.05.41,7.46-.05,14.92-.1,22.37-.14.54,0,1.1-.01,1.57-.26,1.01-.53,1.22-1.85,1.32-2.99.4-4.86.8-9.72,1.2-14.58-.67-.28-1.35-.55-2.02-.83Z"/>
        <path class="cls-4" d="m101.45,341.7c.82-1.38-.34-3.46-1.95-3.49.71-1.98,0-4.38-1.65-5.68-.21-.16-.45-.32-.72-.32-.28,0-.54.17-.77.34-1.52,1.09-3.03,2.18-4.55,3.27-.35.25-.71.51-.9.89-.93,1.8,2.42,4.11,1.04,5.59-.4.43-1.03.51-1.53.82-1.08.68-1.21,2.16-1.72,3.33-.5,1.17-2.26,2.08-2.94,1,.5-1.12-1.01-2.09-2.23-2.24-1.2-.14-2.5-.21-3.17-1.36-1.73,1.51-5.61-2.71-5.52-4.41-1.42.11-2.39,1.44-2.71,2.78-.32,1.38-.12,2.83-.15,4.24-.04,2.76-.93,5.46-.88,8.22.04,2.15.87,4.53,2.83,5.39.95.42,2.01.42,3.05.41,7.46-.05,14.92-.1,22.37-.14.54,0,1.1-.01,1.57-.26,1.01-.53,1.22-1.85,1.32-2.99.4-4.86.8-9.72,1.2-14.58-.67-.28-1.35-.55-2.02-.83Z"/>
      </g>
      <g>
        <path class="cls-20" d="m102.76,318.05h-34.71l.29,3.51.2,2.5.53,6.52.3,3.74.4,4.98.17,2.14.06.64.2,2.51.28,3.44.17,2.14.18,2.17.2,2.51.16,1.9.17,2.14.07.93h31.86l.07-.93.17-2.13.15-1.92.2-2.51.18-2.16.17-2.14.28-3.45.2-2.5.05-.64.17-2.14.41-4.98.3-3.74.52-6.53.2-2.5.29-3.51h-3.91Zm2.09,2.3h0l-.67-.67h.73l-.06.67Zm-.17,2.13l-.07.85-3.11,3.11-3.56-3.56,3.19-3.19h.75l2.8,2.8Zm-.9,11.11l-2.28,2.28-3.56-3.56,3.56-3.56,2.46,2.46-.19,2.38Zm-33.03-2.38h0l2.46-2.46,3.56,3.56-3.56,3.56-2.27-2.28-.2-2.38Zm29.61-3.62l-3.56,3.56-3.56-3.56,3.56-3.56,3.56,3.56Zm-5.6-7.9h4.08l-2.04,2.04-2.04-2.04Zm.88,12.62l-3.56,3.56-3.56-3.56,3.56-3.56,3.56,3.56Zm-11.84,4.71l3.56-3.56,3.56,3.56-3.56,3.56-3.56-3.56Zm2.41,4.71l-3.56,3.56-3.56-3.56,3.56-3.56,3.56,3.56Zm5.87-3.56l3.56,3.56-3.56,3.56-3.56-3.56,3.56-3.56Zm-4.71-7.02l-3.56-3.56,3.56-3.56,3.56,3.56-3.56,3.56Zm-1.16,1.15l-3.56,3.56-3.56-3.56,3.56-3.56,3.56,3.56Zm-8.28-1.15l-3.56-3.56,3.56-3.56,3.56,3.56-3.56,3.56Zm0,2.31l3.56,3.56-3.56,3.56-3.56-3.56,3.56-3.56Zm3.56,12.99l-3.56,3.56-3.56-3.56,3.56-3.56,3.56,3.56Zm1.15,1.15l3.56,3.56-3.56,3.56-3.56-3.56,3.56-3.56Zm1.16-1.15l3.56-3.56,3.56,3.56-3.56,3.56-3.56-3.56Zm8.28,1.15l3.56,3.56-3.56,3.56-3.56-3.56,3.56-3.56Zm4.71,4.71l3.56,3.56-2.31,2.31h-2.51l-2.31-2.31,3.56-3.56Zm-3.56-5.86l3.56-3.56,3.56,3.56-3.56,3.56-3.56-3.56Zm0-9.44l3.56-3.56,3.56,3.56-3.56,3.56-3.56-3.56Zm2.41-14.14l-3.56,3.56-3.56-3.56,3.19-3.19h.75l3.18,3.19Zm-8.27-1.15l-2.04-2.04h4.07l-2.03,2.04Zm-1.16,1.15l-3.56,3.56-3.56-3.56,3.19-3.19h.75l3.18,3.19Zm-6.24-3.19l-2.04,2.04-2.03-2.04h4.07Zm-6.38,0l3.19,3.19-3.56,3.56-3.1-3.11-.07-.85,2.79-2.8h.75Zm-3.05,0l-.66.66h0l-.06-.66h.72Zm-.22,6.16l1.75,1.75-1.48,1.48-.26-3.23Zm.97,11.95l-.14-1.69h0l.91.91-.78.77h0Zm.17,2.15l1.75-1.76,3.56,3.56-3.56,3.56-1.44-1.44-.32-3.92Zm.53,6.59v-.15s.07.08.07.08l-.07.07h0Zm.62,7.59l-.45-5.46,1.05-1.05,3.56,3.56-3.56,3.56-.6-.6h0Zm.33,4.07l-.07-.82.34-.34,1.16,1.16h-1.44Zm1.44-2.31l3.56-3.56,3.56,3.56-2.31,2.31h-2.51l-2.3-2.31Zm7.12,2.31l1.16-1.16,1.16,1.16h-2.32Zm4.62,0l-2.31-2.31,3.56-3.56,3.56,3.56-2.3,2.31h-2.51Zm4.81,0l1.16-1.16,1.16,1.16h-2.32Zm10.86,0h-1.44l1.16-1.16.34.34-.07.82Zm.33-4.07l-.61.6-3.56-3.56,3.56-3.56,1.05,1.05-.44,5.46Zm.63-7.76l-.02.16-.07-.07.09-.09h0Zm.2-2.5l-1.44,1.44-3.56-3.56,3.56-3.56,1.76,1.76-.32,3.92Zm.49-6.06l-.78-.78.92-.91-.14,1.7Zm.97-11.97l-.26,3.25-1.49-1.49,1.75-1.75h0Z"/>
        <g class="cls-18">
          <path class="cls-2" d="m102.76,318.05h-34.71l.29,3.51.2,2.5.53,6.52.3,3.74.4,4.98.17,2.14.06.64.2,2.51.28,3.44.17,2.14.18,2.17.2,2.51.16,1.9.17,2.14.07.93h31.86l.07-.93.17-2.13.15-1.92.2-2.51.18-2.16.17-2.14.28-3.45.2-2.5.05-.64.17-2.14.41-4.98.3-3.74.52-6.53.2-2.5.29-3.51h-3.91Zm2.09,2.3h0l-.67-.67h.73l-.06.67Zm-.17,2.13l-.07.85-3.11,3.11-3.56-3.56,3.19-3.19h.75l2.8,2.8Zm-.9,11.11l-2.28,2.28-3.56-3.56,3.56-3.56,2.46,2.46-.19,2.38Zm-33.03-2.38h0l2.46-2.46,3.56,3.56-3.56,3.56-2.27-2.28-.2-2.38Zm29.61-3.62l-3.56,3.56-3.56-3.56,3.56-3.56,3.56,3.56Zm-5.6-7.9h4.08l-2.04,2.04-2.04-2.04Zm.88,12.62l-3.56,3.56-3.56-3.56,3.56-3.56,3.56,3.56Zm-11.84,4.71l3.56-3.56,3.56,3.56-3.56,3.56-3.56-3.56Zm2.41,4.71l-3.56,3.56-3.56-3.56,3.56-3.56,3.56,3.56Zm5.87-3.56l3.56,3.56-3.56,3.56-3.56-3.56,3.56-3.56Zm-4.71-7.02l-3.56-3.56,3.56-3.56,3.56,3.56-3.56,3.56Zm-1.16,1.15l-3.56,3.56-3.56-3.56,3.56-3.56,3.56,3.56Zm-8.28-1.15l-3.56-3.56,3.56-3.56,3.56,3.56-3.56,3.56Zm0,2.31l3.56,3.56-3.56,3.56-3.56-3.56,3.56-3.56Zm3.56,12.99l-3.56,3.56-3.56-3.56,3.56-3.56,3.56,3.56Zm1.15,1.15l3.56,3.56-3.56,3.56-3.56-3.56,3.56-3.56Zm1.16-1.15l3.56-3.56,3.56,3.56-3.56,3.56-3.56-3.56Zm8.28,1.15l3.56,3.56-3.56,3.56-3.56-3.56,3.56-3.56Zm4.71,4.71l3.56,3.56-2.31,2.31h-2.51l-2.31-2.31,3.56-3.56Zm-3.56-5.86l3.56-3.56,3.56,3.56-3.56,3.56-3.56-3.56Zm0-9.44l3.56-3.56,3.56,3.56-3.56,3.56-3.56-3.56Zm2.41-14.14l-3.56,3.56-3.56-3.56,3.19-3.19h.75l3.18,3.19Zm-8.27-1.15l-2.04-2.04h4.07l-2.03,2.04Zm-1.16,1.15l-3.56,3.56-3.56-3.56,3.19-3.19h.75l3.18,3.19Zm-6.24-3.19l-2.04,2.04-2.03-2.04h4.07Zm-6.38,0l3.19,3.19-3.56,3.56-3.1-3.11-.07-.85,2.79-2.8h.75Zm-3.05,0l-.66.66h0l-.06-.66h.72Zm-.22,6.16l1.75,1.75-1.48,1.48-.26-3.23Zm.97,11.95l-.14-1.69h0l.91.91-.78.77h0Zm.17,2.15l1.75-1.76,3.56,3.56-3.56,3.56-1.44-1.44-.32-3.92Zm.53,6.59v-.15s.07.08.07.08l-.07.07h0Zm.62,7.59l-.45-5.46,1.05-1.05,3.56,3.56-3.56,3.56-.6-.6h0Zm.33,4.07l-.07-.82.34-.34,1.16,1.16h-1.44Zm1.44-2.31l3.56-3.56,3.56,3.56-2.31,2.31h-2.51l-2.3-2.31Zm7.12,2.31l1.16-1.16,1.16,1.16h-2.32Zm4.62,0l-2.31-2.31,3.56-3.56,3.56,3.56-2.3,2.31h-2.51Zm4.81,0l1.16-1.16,1.16,1.16h-2.32Zm10.86,0h-1.44l1.16-1.16.34.34-.07.82Zm.33-4.07l-.61.6-3.56-3.56,3.56-3.56,1.05,1.05-.44,5.46Zm.63-7.76l-.02.16-.07-.07.09-.09h0Zm.2-2.5l-1.44,1.44-3.56-3.56,3.56-3.56,1.76,1.76-.32,3.92Zm.49-6.06l-.78-.78.92-.91-.14,1.7Zm.97-11.97l-.26,3.25-1.49-1.49,1.75-1.75h0Z"/>
        </g>
      </g>
      <rect class="cls-20" x="65.82" y="316.59" width="43.07" height="4.54" rx="1.64" ry="1.64" transform="translate(174.71 637.73) rotate(180)"/>
      <rect class="cls-20" x="68.93" y="357.38" width="36.86" height="4.54" rx="1.64" ry="1.64"/>
    </g>
  </g>
  <g id="Device">
    <g>
      <g>
        <path class="cls-20" d="m339.07,361.92h-92.83c-5.75,0-10-4.66-9.49-10.4l23.98-274.12c.5-5.75,5.57-10.4,11.31-10.4h92.83c5.75,0,9.99,4.66,9.49,10.4l-23.98,274.12c-.5,5.75-5.57,10.4-11.31,10.4Z"/>
        <path class="cls-8" d="m339.07,361.92h-92.83c-5.75,0-10-4.66-9.49-10.4l23.98-274.12c.5-5.75,5.57-10.4,11.31-10.4h92.83c5.75,0,9.99,4.66,9.49,10.4l-23.98,274.12c-.5,5.75-5.57,10.4-11.31,10.4Z"/>
        <path class="cls-22" d="m329.07,361.92h-92.83c-5.75,0-10-4.66-9.49-10.4l23.98-274.12c.5-5.75,5.57-10.4,11.31-10.4h92.83c5.75,0,9.99,4.66,9.49,10.4l-23.98,274.12c-.5,5.75-5.57,10.4-11.31,10.4Z"/>
        <path class="cls-20" d="m329.07,361.92h-92.83c-5.75,0-10-4.66-9.49-10.4l23.98-274.12c.5-5.75,5.57-10.4,11.31-10.4h92.83c5.75,0,9.99,4.66,9.49,10.4l-23.98,274.12c-.5,5.75-5.57,10.4-11.31,10.4Z"/>
        <path class="cls-8" d="m360.57,76.87l-24.03,274.64c-.2,2.26-1.61,4.01-3.17,4.01h-100.62c-1.44,0-2.38-1.61-2.2-3.68l24.09-275.3c.16-1.8,1.21-3.37,2.46-3.37h25.15c.71,0,1.3.67,1.48,1.63l.72,3.7c.18.96.77,1.62,1.48,1.62h42.82c.71,0,1.41-.63,1.76-1.59l1.37-3.72c.35-.96,1.05-1.64,1.76-1.64h24.79c1.37,0,2.32,1.72,2.14,3.7Z"/>
        <polygon class="cls-20" points="359.4 90.33 338.78 325.98 232.82 325.98 253.43 90.33 359.4 90.33"/>
        <g>
          <g>
            <polygon class="cls-10" points="265.64 84.24 266.95 84.24 267.17 81.72 265.86 81.72 265.64 84.24"/>
            <polygon class="cls-10" points="263.51 84.24 264.82 84.24 265.11 80.88 263.81 80.88 263.51 84.24"/>
            <polygon class="cls-10" points="261.38 84.24 262.69 84.24 263.05 80.04 261.75 80.04 261.38 84.24"/>
            <polygon class="cls-10" points="259.25 84.24 260.55 84.24 261 79.2 259.69 79.2 259.25 84.24"/>
          </g>
          <g>
            <polygon class="cls-10" points="348.02 83.32 347.24 83.32 347.46 80.8 348.24 80.8 348.02 83.32"/>
            <polygon class="cls-10" points="348.47 84.24 354.65 84.24 355.03 79.88 348.85 79.88 348.47 84.24"/>
          </g>
        </g>
        <g>
          <path class="cls-15" d="m307.87,73.53c-.1,1.16-.83,2.1-1.64,2.1s-1.37-.94-1.27-2.1c.1-1.16.83-2.1,1.64-2.1s1.37.94,1.27,2.1Z"/>
          <path class="cls-15" d="m310.81,73.53c-.07.74-.53,1.34-1.05,1.34s-.88-.6-.81-1.34c.06-.74.53-1.34,1.05-1.34s.88.6.81,1.34Z"/>
        </g>
        <polygon class="cls-22" points="359.39 90.33 356.53 123.02 356.04 128.66 353.75 154.85 353.39 158.92 350.14 196.05 349.79 200.12 346.67 235.77 346.22 240.9 338.78 325.98 232.81 325.98 253.43 90.33 359.39 90.33"/>
      </g>
      <g>
        <g>
          <path class="cls-5" d="m254.73,163.13c.11.09.24.13.38.13.2,0,.41-.09.55-.27.24-.29.21-.7-.06-.91l-1.81-1.42,2.05-1.42c.31-.21.41-.62.21-.91-.19-.29-.6-.35-.91-.14l-2.81,1.95c-.18.12-.29.32-.31.53-.02.21.07.4.22.53l2.49,1.94Z"/>
          <path class="cls-5" d="m263.81,160.65l-2.05,1.42c-.31.21-.41.62-.21.91.11.17.3.27.51.27.14,0,.28-.04.4-.13l2.81-1.95c.18-.12.29-.32.31-.53.02-.21-.07-.4-.22-.53l-2.49-1.94c-.27-.21-.69-.15-.93.14-.24.29-.21.7.06.91l1.81,1.42Z"/>
          <path class="cls-5" d="m257.67,163.22c.07.03.14.04.22.04.27,0,.54-.17.66-.44l1.71-3.9c.15-.34,0-.71-.33-.83-.33-.12-.72.06-.87.4l-1.71,3.9c-.15.34,0,.71.33.83Z"/>
          <path class="cls-5" d="m268.59,163.47h3.46c.48,0,.91-.39.95-.87s-.32-.87-.8-.87h-3.46c-.48,0-.91.39-.95.87s.32.87.8.87Z"/>
          <path class="cls-2" d="m280.8,186.06c.04-.48-.32-.87-.8-.87h-30.01c-.48,0-.91.39-.95.87-.04.48.32.87.8.87h30.01c.48,0,.91-.39.95-.87Z"/>
          <path class="cls-5" d="m284.57,186.93h8.83c.48,0,.91-.39.95-.87.04-.48-.32-.87-.8-.87h-8.83c-.48,0-.91.39-.95.87-.04.48.32.87.8.87Z"/>
          <path class="cls-5" d="m250.31,181.41h11.36c.48,0,.91-.39.95-.87s-.32-.87-.8-.87h-11.36c-.48,0-.91.39-.95.87s.32.87.8.87Z"/>
          <path class="cls-2" d="m303.55,180.54c.04-.48-.32-.87-.8-.87h-35.29c-.48,0-.91.39-.95.87s.32.87.8.87h35.29c.48,0,.91-.39.95-.87Z"/>
          <path class="cls-2" d="m250.78,175.9h20.59c.48,0,.91-.39.95-.87.04-.48-.32-.87-.8-.87h-20.59c-.48,0-.91.39-.95.87-.04.48.32.87.8.87Z"/>
          <path class="cls-5" d="m275.31,175.03c-.04.48.32.87.8.87h5.1c.48,0,.91-.39.95-.87.04-.48-.32-.87-.8-.87h-5.1c-.48,0-.91.39-.95.87Z"/>
          <path class="cls-5" d="m251.25,170.38h24.32c.48,0,.91-.39.95-.87.04-.48-.32-.87-.8-.87h-24.32c-.48,0-.91.39-.95.87-.04.48.32.87.8.87Z"/>
          <path class="cls-2" d="m293.63,170.38h18.65c.48,0,.91-.39.95-.87.04-.48-.32-.87-.8-.87h-18.65c-.48,0-.91.39-.95.87-.04.48.32.87.8.87Z"/>
        </g>
        <g>
          <path class="cls-5" d="m332.66,212.76h-54.1c-.48,0-.91.39-.95.87-.04.48.32.87.8.87h54.1c.48,0,.91-.39.95-.87.04-.48-.32-.87-.8-.87Z"/>
          <path class="cls-2" d="m344.54,212.76h-6.69c-.48,0-.91.39-.95.87-.04.48.32.87.8.87h6.69c.48,0,.91-.39.95-.87.04-.48-.32-.87-.8-.87Z"/>
          <path class="cls-2" d="m295.19,208.99h21.78c.48,0,.91-.39.95-.87.04-.48-.32-.87-.8-.87h-21.78c-.48,0-.91.39-.95.87-.04.48.32.87.8.87Z"/>
          <path class="cls-5" d="m332.98,208.99c.48,0,.91-.39.95-.87.04-.48-.32-.87-.8-.87h-12.35c-.48,0-.91.39-.95.87-.04.48.32.87.8.87h12.35Z"/>
          <path class="cls-5" d="m345.01,207.25h-6.57c-.48,0-.91.39-.95.87-.04.48.32.87.8.87h6.57c.48,0,.91-.39.95-.87.04-.48-.32-.87-.8-.87Z"/>
          <path class="cls-2" d="m333.68,201.73h-29.13c-.48,0-.91.39-.95.87-.04.48.32.87.8.87h29.13c.48,0,.91-.39.95-.87.04-.48-.32-.87-.8-.87Z"/>
          <path class="cls-2" d="m345.47,201.73h-6.65c-.48,0-.91.39-.95.87-.04.48.32.87.8.87h6.65c.48,0,.91-.39.95-.87.04-.48-.32-.87-.8-.87Z"/>
          <path class="cls-5" d="m318.02,197.09c.04-.48-.32-.87-.8-.87h-29.7c-.48,0-.91.39-.95.87s.32.87.8.87h29.7c.48,0,.91-.39.95-.87Z"/>
          <path class="cls-5" d="m322.61,196.22c-.48,0-.91.39-.95.87-.04.48.32.87.8.87h11.52c.48,0,.91-.39.95-.87s-.32-.87-.8-.87h-11.52Z"/>
          <path class="cls-2" d="m345.94,196.22h-6.57c-.48,0-.91.39-.95.87s.32.87.8.87h6.57c.48,0,.91-.39.95-.87s-.32-.87-.8-.87Z"/>
          <path class="cls-2" d="m324.57,192.44h5.71c.48,0,.91-.39.95-.87.04-.48-.32-.87-.8-.87h-5.71c-.48,0-.91.39-.95.87-.04.48.32.87.8.87Z"/>
          <path class="cls-5" d="m334.35,192.44h11.91c.48,0,.91-.39.95-.87.04-.48-.32-.87-.8-.87h-11.91c-.48,0-.91.39-.95.87-.04.48.32.87.8.87Z"/>
        </g>
        <g>
          <path class="cls-2" d="m260.17,98.81c.11.09.24.13.38.13.2,0,.41-.09.55-.27.24-.29.21-.7-.06-.91l-1.81-1.42,2.05-1.42c.31-.21.41-.62.21-.91-.19-.29-.6-.35-.91-.14l-2.81,1.95c-.18.12-.29.32-.31.53-.02.21.07.4.22.53l2.49,1.94Z"/>
          <path class="cls-2" d="m269.25,96.33l-2.05,1.42c-.31.21-.41.62-.21.91.11.17.3.26.51.26.14,0,.28-.04.4-.13l2.81-1.95c.18-.12.29-.32.31-.53.02-.21-.07-.4-.22-.53l-2.49-1.94c-.27-.21-.69-.15-.93.14-.24.29-.21.7.06.91l1.81,1.42Z"/>
          <path class="cls-2" d="m263.11,98.9c.07.03.14.04.22.04.27,0,.54-.17.65-.44l1.71-3.9c.15-.34,0-.71-.33-.83-.33-.12-.72.06-.87.4l-1.71,3.9c-.15.34,0,.71.33.83Z"/>
          <path class="cls-5" d="m274.03,99.16h3.46c.48,0,.91-.39.95-.87.04-.48-.32-.87-.8-.87h-3.46c-.48,0-.91.39-.95.87-.04.48.32.87.8.87Z"/>
          <path class="cls-5" d="m318.29,106.07h4.67c.48,0,.91-.39.95-.87.04-.48-.32-.87-.8-.87h-4.67c-.48,0-.91.39-.95.87-.04.48.32.87.8.87Z"/>
          <path class="cls-2" d="m267.77,105.19c-.04.48.32.87.8.87h43.71c.48,0,.91-.39.95-.87.04-.48-.32-.87-.8-.87h-43.71c-.48,0-.91.39-.95.87Z"/>
          <path class="cls-5" d="m256.69,106.07h6.69c.48,0,.91-.39.95-.87.04-.48-.32-.87-.8-.87h-6.69c-.48,0-.91.39-.95.87-.04.48.32.87.8.87Z"/>
          <path class="cls-2" d="m301.52,111.58c.48,0,.91-.39.95-.87.04-.48-.32-.87-.8-.87h-17.41c-.48,0-.91.39-.95.87-.04.48.32.87.8.87h17.41Z"/>
          <path class="cls-2" d="m268.1,111.58h12.35c.48,0,.91-.39.95-.87.04-.48-.32-.87-.8-.87h-12.35c-.48,0-.91.39-.95.87-.04.48.32.87.8.87Z"/>
          <path class="cls-5" d="m256.22,111.58h6.57c.48,0,.91-.39.95-.87.04-.48-.32-.87-.8-.87h-6.57c-.48,0-.91.39-.95.87-.04.48.32.87.8.87Z"/>
          <path class="cls-2" d="m293.26,116.23c.04-.48-.32-.87-.8-.87h-24.76c-.48,0-.91.39-.95.87-.04.48.32.87.8.87h24.76c.48,0,.91-.39.95-.87Z"/>
          <path class="cls-5" d="m255.75,117.1h6.65c.48,0,.91-.39.95-.87.04-.48-.32-.87-.8-.87h-6.65c-.48,0-.91.39-.95.87-.04.48.32.87.8.87Z"/>
          <path class="cls-2" d="m284,122.61h25.33c.48,0,.91-.39.95-.87s-.32-.87-.8-.87h-25.33c-.48,0-.91.39-.95.87s.32.87.8.87Z"/>
          <path class="cls-2" d="m267.24,120.87c-.48,0-.91.39-.95.87s.32.87.8.87h11.52c.48,0,.91-.39.95-.87s-.32-.87-.8-.87h-11.52Z"/>
          <path class="cls-5" d="m255.29,122.61h6.57c.48,0,.91-.39.95-.87s-.32-.87-.8-.87h-6.57c-.48,0-.91.39-.95.87s.32.87.8.87Z"/>
          <path class="cls-2" d="m276.66,126.39h-5.71c-.48,0-.91.39-.95.87-.04.48.32.87.8.87h5.71c.48,0,.91-.39.95-.87.04-.48-.32-.87-.8-.87Z"/>
          <path class="cls-2" d="m266.88,126.39h-11.91c-.48,0-.91.39-.95.87-.04.48.32.87.8.87h11.91c.48,0,.91-.39.95-.87.04-.48-.32-.87-.8-.87Z"/>
          <path class="cls-2" d="m303.81,132.77c-.04.48.32.87.8.87h46.62c.48,0,.91-.39.95-.87.04-.48-.32-.87-.8-.87h-46.62c-.48,0-.91.39-.95.87Z"/>
          <path class="cls-5" d="m291.22,131.9c-.48,0-.91.39-.95.87-.04.48.32.87.8.87h8.83c.48,0,.91-.39.95-.87.04-.48-.32-.87-.8-.87h-8.83Z"/>
          <path class="cls-5" d="m350.91,137.42h-11.36c-.48,0-.91.39-.95.87-.04.48.32.87.8.87h11.36c.48,0,.91-.39.95-.87.04-.48-.32-.87-.8-.87Z"/>
          <path class="cls-2" d="m334.71,138.29c.04-.48-.32-.87-.8-.87h-47.53c-.48,0-.91.39-.95.87-.04.48.32.87.8.87h47.53c.48,0,.91-.39.95-.87Z"/>
          <path class="cls-2" d="m350.45,142.93h-20.59c-.48,0-.91.39-.95.87-.04.48.32.87.8.87h20.59c.48,0,.91-.39.95-.87.04-.48-.32-.87-.8-.87Z"/>
          <path class="cls-5" d="m320.01,142.93c-.48,0-.91.39-.95.87-.04.48.32.87.8.87h5.1c.48,0,.91-.39.95-.87.04-.48-.32-.87-.8-.87h-5.1Z"/>
          <path class="cls-2" d="m349.98,148.45h-40.93c-.48,0-.91.39-.95.87s.32.87.8.87h40.93c.48,0,.91-.39.95-.87s-.32-.87-.8-.87Z"/>
          <path class="cls-2" d="m290.99,148.45h-14.28c-.48,0-.91.39-.95.87-.04.48.32.87.8.87h14.28c.48,0,.91-.39.95-.87.04-.48-.32-.87-.8-.87Z"/>
        </g>
      </g>
      <g>
        <path class="cls-20" d="m344,265.48l-5.38,60.5-.02.21h-105.6l.02-.21,11.42-128.58,5.8,1.52,28.29,7.37,1.57.41,1.93.5,2.38.62,1.48.39,18.95,4.94.12.03c1.38.36,2.73.77,4.05,1.23,9.96,3.47,18.36,9.76,24.44,17.79,2.7,3.57,4.94,7.49,6.65,11.66,2.77,6.7,4.16,14.04,3.9,21.62Z"/>
        <path class="cls-3" d="m344,265.48l-5.38,60.5-.02.21h-105.6l.02-.21,11.42-128.58,5.8,1.52,28.29,7.37,1.57.41,1.93.5,2.38.62,1.48.39,18.95,4.94.12.03c1.38.36,2.73.77,4.05,1.23,9.96,3.47,18.36,9.76,24.44,17.79,2.7,3.57,4.94,7.49,6.65,11.66,2.77,6.7,4.16,14.04,3.9,21.62Z"/>
        <g>
          <polygon class="cls-18" points="285.89 208.21 249.42 208.21 249.59 206.29 250.24 198.92 278.53 206.29 280.1 206.7 282.03 207.2 284.41 207.82 285.89 208.21"/>
          <polygon class="cls-13" points="285.89 208.21 249.42 208.21 249.59 206.29 278.53 206.29 280.1 206.7 282.03 207.2 284.41 207.82 285.89 208.21"/>
          <polygon class="cls-10" points="282.03 207.2 281.94 208.21 249.42 208.21 249.59 206.29 278.53 206.29 280.1 206.7 282.03 207.2"/>
          <path class="cls-2" d="m284.41,207.82c-.04.13-.09.26-.16.39-.42.81-1.28,1.38-2.22,1.38s-1.69-.57-1.96-1.38c-.1-.28-.14-.58-.11-.9.02-.21.07-.42.14-.61l1.93.5,2.38.62Z"/>
          <g>
            <path class="cls-14" d="m296.18,222.31h-46.21c-.99,0-1.73-.81-1.64-1.8h0c.09-.99.97-1.8,1.96-1.8h46.21c.99,0,1.73.81,1.64,1.8h0c-.09.99-.97,1.8-1.96,1.8Z"/>
            <path class="cls-14" d="m309.04,214.95c-.09.99-.97,1.79-1.96,1.79h-56.62c-.99,0-1.73-.8-1.64-1.79.09-1,.97-1.8,1.96-1.8h54.06l.12.03c1.38.36,2.73.77,4.05,1.23.03.17.05.35.03.54Z"/>
          </g>
        </g>
        <g>
          <path class="cls-16" d="m340.1,243.86l-2.58,29.06h-93.85l3.62-40.72h86.16c2.7,3.57,4.94,7.49,6.65,11.66Z"/>
          <path class="cls-7" d="m309.48,239.28h-7.36c-.9,0-1.56-.73-1.48-1.63h0c.08-.9.87-1.63,1.77-1.63h7.36c.9,0,1.56.73,1.48,1.63h0c-.08.9-.87,1.63-1.77,1.63Z"/>
          <path class="cls-7" d="m329.82,244.52h-28.17c-.9,0-1.56-.73-1.48-1.63h0c.08-.9.87-1.63,1.77-1.63h28.17c.9,0,1.56.73,1.48,1.63h0c-.08.9-.87,1.63-1.77,1.63Z"/>
          <g>
            <polygon class="cls-16" points="291.1 269.09 248.44 269.09 251.38 236.03 294.03 236.03 291.1 269.09"/>
            <polygon class="cls-7" points="249.09 261.79 261.66 252.56 268.25 257.77 282.18 247.81 292.15 257.23 291.1 269.09 248.44 269.09 249.09 261.79"/>
            <path class="cls-7" d="m263.37,243.82c-.18,1.95-1.82,3.53-3.66,3.53s-3.18-1.58-3-3.53,1.82-3.53,3.66-3.53,3.18,1.58,3,3.53Z"/>
          </g>
        </g>
        <g>
          <polygon class="cls-16" points="333.44 318.93 239.58 318.93 243.2 278.2 337.06 278.2 333.44 318.93"/>
          <path class="cls-7" d="m305.39,285.29h-7.36c-.9,0-1.56-.73-1.48-1.63h0c.08-.9.87-1.63,1.77-1.63h7.36c.9,0,1.56.73,1.48,1.63h0c-.08.9-.87,1.63-1.77,1.63Z"/>
          <path class="cls-7" d="m325.73,290.52h-28.17c-.9,0-1.56-.73-1.48-1.63h0c.08-.9.87-1.63,1.77-1.63h28.17c.9,0,1.56.73,1.48,1.63h0c-.08.9-.87,1.63-1.77,1.63Z"/>
          <g>
            <polygon class="cls-16" points="287.01 315.09 244.35 315.09 247.29 282.04 289.95 282.04 287.01 315.09"/>
            <polygon class="cls-7" points="245 307.8 257.57 298.56 264.16 303.78 278.09 293.81 288.06 303.23 287.01 315.09 244.35 315.09 245 307.8"/>
            <path class="cls-7" d="m259.29,289.82c-.18,1.95-1.82,3.53-3.66,3.53s-3.18-1.58-3-3.53c.18-1.95,1.82-3.53,3.66-3.53s3.18,1.58,3,3.53Z"/>
          </g>
        </g>
      </g>
      <path class="cls-17" d="m323.99,223.81c-27.68-13.82-71.48,13.38-72.76,13.85-4.41,1.64-9.54-.56-14.18-3.87l3.6-41.21,2.1-.13s59.4,14.59,81.24,31.36Z"/>
      <g>
        <path class="cls-20" d="m179.52,179.67s6.4,3.85,9.88,5.52c1.95.94,9.32-.41,15.25,3.39,5.73,3.67,5.09,7.36,7.52,10.63,7.32,9.87,22.98,9.56,22.98,9.56,0,0,66.71-12.55,100.93,27.26,0,0-25.32-49.38-156.56-56.35Z"/>
        <path class="cls-8" d="m179.52,179.67s6.4,3.85,9.88,5.52c1.95.94,9.32-.41,15.25,3.39,5.73,3.67,5.09,7.36,7.52,10.63,7.32,9.87,22.98,9.56,22.98,9.56,0,0,66.71-12.55,100.93,27.26,0,0-25.32-49.38-156.56-56.35Z"/>
      </g>
    </g>
  </g>
  <g id="Speech_bubble" data-name="Speech bubble">
    <g>
      <path class="cls-20" d="m144.99,85.52h-46.44c-2.64,0-4.78,2.14-4.78,4.78v25.12c0,2.64,2.14,4.78,4.78,4.78h32.31c1.25,2.97,4.79,8.91,13.88,11.66,0,0-5.45-4.94-5.17-11.66h5.42c2.64,0,4.78-2.14,4.78-4.78v-25.12c0-2.64-2.14-4.78-4.78-4.78Z"/>
      <path class="cls-10" d="m144.99,85.52h-46.44c-2.64,0-4.78,2.14-4.78,4.78v25.12c0,2.64,2.14,4.78,4.78,4.78h32.31c1.25,2.97,4.79,8.91,13.88,11.66,0,0-5.45-4.94-5.17-11.66h5.42c2.64,0,4.78-2.14,4.78-4.78v-25.12c0-2.64-2.14-4.78-4.78-4.78Z"/>
      <g class="cls-12">
        <g>
          <path d="m99.47,93.89c0-1.85.97-2.96,2.32-2.96s2.33,1.11,2.33,2.96-.98,2.96-2.33,2.96-2.32-1.11-2.32-2.96Zm4.03,0c0-1.56-.7-2.41-1.71-2.41s-1.71.86-1.71,2.41.7,2.41,1.71,2.41,1.71-.86,1.71-2.41Z"/>
          <path d="m106.57,90.98v5.82h-.6v-5.29h-1.37v-.53h1.97Z"/>
          <path d="m107.96,93.89c0-1.85.97-2.96,2.32-2.96s2.33,1.11,2.33,2.96-.98,2.96-2.33,2.96-2.32-1.11-2.32-2.96Zm4.03,0c0-1.56-.7-2.41-1.71-2.41s-1.71.86-1.71,2.41.7,2.41,1.71,2.41,1.71-.86,1.71-2.41Z"/>
          <path d="m113.46,93.89c0-1.85.97-2.96,2.32-2.96s2.33,1.11,2.33,2.96-.98,2.96-2.33,2.96-2.32-1.11-2.32-2.96Zm4.03,0c0-1.56-.7-2.41-1.71-2.41s-1.71.86-1.71,2.41.7,2.41,1.71,2.41,1.71-.86,1.71-2.41Z"/>
          <path d="m120.56,90.98v5.82h-.6v-5.29h-1.37v-.53h1.97Z"/>
          <path d="m123.56,90.98v5.82h-.6v-5.29h-1.37v-.53h1.97Z"/>
          <path d="m126.56,90.98v5.82h-.6v-5.29h-1.37v-.53h1.97Z"/>
          <path d="m127.95,93.89c0-1.85.97-2.96,2.32-2.96s2.33,1.11,2.33,2.96-.98,2.96-2.33,2.96-2.32-1.11-2.32-2.96Zm4.03,0c0-1.56-.7-2.41-1.71-2.41s-1.71.86-1.71,2.41.7,2.41,1.71,2.41,1.71-.86,1.71-2.41Z"/>
          <path d="m133.45,93.89c0-1.85.97-2.96,2.32-2.96s2.33,1.11,2.33,2.96-.98,2.96-2.33,2.96-2.32-1.11-2.32-2.96Zm4.03,0c0-1.56-.7-2.41-1.71-2.41s-1.71.86-1.71,2.41.7,2.41,1.71,2.41,1.71-.86,1.71-2.41Z"/>
          <path d="m140.55,90.98v5.82h-.6v-5.29h-1.37v-.53h1.97Z"/>
          <path d="m143.55,90.98v5.82h-.6v-5.29h-1.37v-.53h1.97Z"/>
        </g>
        <g>
          <path d="m101.08,99.4v5.82h-.6v-5.29h-1.37v-.53h1.97Z"/>
          <path d="m102.47,102.31c0-1.85.97-2.96,2.32-2.96s2.33,1.11,2.33,2.96-.98,2.96-2.33,2.96-2.32-1.11-2.32-2.96Zm4.03,0c0-1.56-.7-2.41-1.71-2.41s-1.71.86-1.71,2.41.7,2.41,1.71,2.41,1.71-.86,1.71-2.41Z"/>
          <path d="m107.97,102.31c0-1.85.97-2.96,2.32-2.96s2.33,1.11,2.33,2.96-.98,2.96-2.33,2.96-2.32-1.11-2.32-2.96Zm4.03,0c0-1.56-.7-2.41-1.71-2.41s-1.71.86-1.71,2.41.7,2.41,1.71,2.41,1.71-.86,1.71-2.41Z"/>
          <path d="m115.07,99.4v5.82h-.6v-5.29h-1.37v-.53h1.97Z"/>
          <path d="m118.07,99.4v5.82h-.6v-5.29h-1.37v-.53h1.97Z"/>
          <path d="m121.07,99.4v5.82h-.6v-5.29h-1.37v-.53h1.97Z"/>
          <path d="m122.45,102.31c0-1.85.97-2.96,2.32-2.96s2.33,1.11,2.33,2.96-.98,2.96-2.33,2.96-2.32-1.11-2.32-2.96Zm4.03,0c0-1.56-.7-2.41-1.71-2.41s-1.71.86-1.71,2.41.7,2.41,1.71,2.41,1.71-.86,1.71-2.41Z"/>
          <path d="m127.95,102.31c0-1.85.97-2.96,2.32-2.96s2.33,1.11,2.33,2.96-.98,2.96-2.33,2.96-2.32-1.11-2.32-2.96Zm4.03,0c0-1.56-.7-2.41-1.71-2.41s-1.71.86-1.71,2.41.7,2.41,1.71,2.41,1.71-.86,1.71-2.41Z"/>
          <path d="m135.05,99.4v5.82h-.6v-5.29h-1.37v-.53h1.97Z"/>
          <path d="m138.05,99.4v5.82h-.6v-5.29h-1.37v-.53h1.97Z"/>
          <path d="m139.44,102.31c0-1.85.97-2.96,2.32-2.96s2.33,1.11,2.33,2.96-.98,2.96-2.33,2.96-2.32-1.11-2.32-2.96Zm4.03,0c0-1.56-.7-2.41-1.71-2.41s-1.71.86-1.71,2.41.7,2.41,1.71,2.41,1.71-.86,1.71-2.41Z"/>
        </g>
        <g>
          <path d="m99.47,110.74c0-1.85.97-2.96,2.32-2.96s2.33,1.11,2.33,2.96-.98,2.96-2.33,2.96-2.32-1.11-2.32-2.96Zm4.03,0c0-1.56-.7-2.41-1.71-2.41s-1.71.86-1.71,2.41.7,2.41,1.71,2.41,1.71-.86,1.71-2.41Z"/>
          <path d="m104.98,110.74c0-1.85.97-2.96,2.32-2.96s2.33,1.11,2.33,2.96-.98,2.96-2.33,2.96-2.32-1.11-2.32-2.96Zm4.03,0c0-1.56-.7-2.41-1.71-2.41s-1.71.86-1.71,2.41.7,2.41,1.71,2.41,1.71-.86,1.71-2.41Z"/>
          <path d="m112.07,107.83v5.82h-.6v-5.29h-1.37v-.53h1.97Z"/>
          <path d="m115.07,107.83v5.82h-.6v-5.29h-1.37v-.53h1.97Z"/>
          <path d="m116.46,110.74c0-1.85.97-2.96,2.32-2.96s2.33,1.11,2.33,2.96-.98,2.96-2.33,2.96-2.32-1.11-2.32-2.96Zm4.03,0c0-1.56-.7-2.41-1.71-2.41s-1.71.86-1.71,2.41.7,2.41,1.71,2.41,1.71-.86,1.71-2.41Z"/>
          <path d="m121.96,110.74c0-1.85.97-2.96,2.32-2.96s2.33,1.11,2.33,2.96-.98,2.96-2.33,2.96-2.32-1.11-2.32-2.96Zm4.03,0c0-1.56-.7-2.41-1.71-2.41s-1.71.86-1.71,2.41.7,2.41,1.71,2.41,1.71-.86,1.71-2.41Z"/>
          <path d="m129.06,107.83v5.82h-.6v-5.29h-1.37v-.53h1.97Z"/>
          <path d="m132.06,107.83v5.82h-.6v-5.29h-1.37v-.53h1.97Z"/>
          <path d="m135.06,107.83v5.82h-.6v-5.29h-1.37v-.53h1.97Z"/>
          <path d="m136.45,110.74c0-1.85.97-2.96,2.32-2.96s2.33,1.11,2.33,2.96-.98,2.96-2.33,2.96-2.32-1.11-2.32-2.96Zm4.03,0c0-1.56-.7-2.41-1.71-2.41s-1.71.86-1.71,2.41.7,2.41,1.71,2.41,1.71-.86,1.71-2.41Z"/>
          <path d="m143.55,107.83v5.82h-.6v-5.29h-1.37v-.53h1.97Z"/>
        </g>
      </g>
    </g>
  </g>
  <g id="Character">
    <g>
      <path class="cls-21" d="m185.49,184.44s1.82-2.01,3.67-2.93c1.84-.92,4.75-1.06,4.75-1.06l.77,5.25s-2.48,1.92-3.83,2.49-4.4.3-4.4.3l-.95-4.06Z"/>
      <path class="cls-21" d="m154.76,172.49s6.88,9.88,9.49,11.6c2.61,1.72,21.24.34,21.24.34l.95,4.06s-19.12,3.5-23.15,1.35c-4.02-2.15-14.09-13.29-14.09-13.29l5.56-4.06Z"/>
      <path class="cls-17" d="m185.49,184.44s1.82-2.01,3.67-2.93c1.84-.92,4.75-1.06,4.75-1.06l.77,5.25s-2.48,1.92-3.83,2.49-4.4.3-4.4.3l-.95-4.06Z"/>
      <path class="cls-17" d="m154.76,172.49s6.88,9.88,9.49,11.6c2.61,1.72,21.24.34,21.24.34l.95,4.06s-19.12,3.5-23.15,1.35c-4.02-2.15-14.09-13.29-14.09-13.29l5.56-4.06Z"/>
      <g>
        <path class="cls-25" d="m181.2,147.7s-1.81-.39-2.9.75"/>
        <path class="cls-28" d="m179.59,151.87s.76,1.77,1.67,2.85c0,0-.63.84-1.77.59l.1-3.45Z"/>
        <g>
          <path class="cls-22" d="m180.87,150.18c-.03.54-.35.95-.7.93s-.62-.47-.59-1.01c.03-.54.35-.95.7-.93.36.02.62.47.59,1.01Z"/>
          <path class="cls-22" d="m180.13,149.19l1.19-.39s-.64.95-1.19.39Z"/>
        </g>
        <path class="cls-21" d="m164.94,160.16c.06.07.12.13.19.18.88.83,1.92,1.65,3.15,2.12,3.46,1.32,5.97,1.17,7.79-.23h0c2.57-2.12,3.72-6.34,4.12-11.57.19-2.4.14-4.51-.3-6.21,0-.02,0-.08,0-.09-.02-.07-.04-.16-.06-.23-.67-2.38-2.09-4.07-4.61-5.04-.87-.33-1.87-.59-3.02-.77-10.1-1.5-14.23,15-7.27,21.85Z"/>
        <path class="cls-17" d="m165.13,160.34c.88.83,1.94,1.51,3.17,1.98,3.46,1.32,5.99,1.05,7.81-.38-1.81.15-4.19-.03-6.34-1.41-1.36-.86-3.01-.75-4.64-.19Z"/>
        <path class="cls-22" d="m168.6,135.14s7-.78,10.37,2.46c3.93,3.78,5.13,7.29-.74,11.68,0,0-10.85-5.25-14.74-4.99s-6.74.99-6.74.99c.24-7.61,8.28-12.19,11.85-10.14Z"/>
        <path class="cls-21" d="m170.06,162.87s-4.43,2.04-1.87,6.64l-14.61-4.09s6.93-3.02,7.49-7.9c0,0,7.68-.62,9,5.35Z"/>
        <path class="cls-22" d="m170.06,136.81s-1.71-11.47-10.55-11.21c-8.84.26-9.89,9.49-4.35,13.45,5.54,3.96,14.24,4.48,14.9-2.24Z"/>
        <path class="cls-22" d="m157.53,139.32s-7.48-1.45-7.76,5.14c0,0,1.04-1.96,2.88-2.5,0,0-2.59,1.31-.9,4.74,0,0-.54-2.13,2.81-2.91,3.35-.79,11.8.94,11.01-3.55s-8.04-.92-8.04-.92Z"/>
        <path class="cls-25" d="m168.74,136.55s.66-13.45-10.42-12.79"/>
        <path class="cls-25" d="m160.9,155.06s-6.98-5.35-4.45-11.27"/>
        <path class="cls-25" d="m156.75,139.22s-6.74-1.38-8.19,3.12"/>
        <path class="cls-22" d="m179.91,144.38s-.42,7.17-7.56,9.29c0,0-3.9,6.97-8.16,6.49-5.81-.66-9.78-9.6-6.62-17.72,4.1-10.53,20.72-9.14,22.34,1.94Z"/>
        <path class="cls-21" d="m176.03,152.1c.15-1.11-.48-3.09-2.24-3.07-1.82.02-3.41,4.27.83,5.85.61.23,1.09-.47,1.41-2.78Z"/>
      </g>
      <path class="cls-21" d="m184.65,354.63l4.74-1.29c-1.74-23.92-6.43-52.78-10.42-74.42-.63-3.39-1.23-6.6-1.81-9.59-.28-1.42-.54-2.78-.8-4.1-1.27-6.49-2.34-11.61-3-14.78-.49-2.31-.76-3.58-.76-3.58l-17.05,4.95,1.42,4.3,4.69,14.19.53,1.62,3.1,9.37,5.27,15.95c.73,24.39,14.09,57.39,14.09,57.39Z"/>
      <path class="cls-21" d="m143.29,353.48l4.9-.47c2.56-25.94,2.66-58.24,2.31-80.68-.06-3.48-.12-6.73-.19-9.67,0-.15-.01-.29-.01-.44-.14-5.84-.29-10.49-.4-13.43-.1-2.3-.14-3.56-.14-3.56l-17.65,1.97,1.1,7.34,1.61,10.79.32,2.11,1.1,7.35,2.95,19.72c-3.43,24.16,4.12,58.96,4.12,58.96Z"/>
      <path class="cls-17" d="m134.8,265.34l15.5-2.68c0-.15-.01-.29-.01-.44-.14-5.84-.29-10.49-.4-13.43l-16.7,5.75,1.61,10.79Z"/>
      <path class="cls-17" d="m175.08,258.75l-16.32,2.77-1.79-5.4,16.39-5.66c.42,2.02,1.01,4.83,1.71,8.29Z"/>
      <path class="cls-20" d="m132.79,200.61s-10.58,24.73-.69,60.58l19.28-2.2v-8.53l2.99,7.78,20.51-3.8c-5.94-29.09-11.3-42.29-11.3-42.29l-1.44-14.64-29.35,3.11Z"/>
      <g>
        <path class="cls-22" d="m140.96,352.48c.01-.62,7.58-.13,7.58-.13,0,0,4.65,4.73,9.17,5.8,4.52,1.06,1.99,3.78-3.06,3.78h-12.5c-3.59,0-1.35-3.06-1.2-9.44Z"/>
        <path class="cls-20" d="m152.52,354.28c-1.06,0-2.74-.77-3.13-.96-.03-.01-.05-.03-.07-.05h0s-.02-.03-.03-.04c-.02-.05-.03-.1,0-.15.03-.07.66-1.84,1.69-2.27.33-.14.65-.13.98.03.34.16.51.38.5.64-.02.4-.56.8-1.18,1.12.64-.06,1.29-.05,1.7.19.21.12.35.3.4.51.11.45-.04.69-.18.81-.16.13-.39.18-.67.18Zm-2.44-1.09c1.11.47,2.5.89,2.86.6.03-.03.13-.1.05-.4-.03-.11-.1-.2-.22-.26-.54-.31-1.84-.12-2.69.07Zm1.35-2.08c-.1,0-.2.02-.31.06-.56.23-1.04,1.05-1.3,1.63,1.12-.43,2.2-1.01,2.22-1.35,0-.11-.17-.2-.27-.25-.12-.06-.23-.08-.35-.08Z"/>
      </g>
      <g>
        <path class="cls-22" d="m183.3,352.48c.01-.62,7.58-.13,7.58-.13,0,0,4.65,4.73,9.17,5.8,4.52,1.06,1.99,3.78-3.06,3.78h-12.5c-3.59,0-1.35-3.06-1.2-9.44Z"/>
        <path class="cls-20" d="m194.86,354.28c-1.06,0-2.74-.77-3.13-.96-.03-.01-.05-.03-.07-.05h0s-.02-.03-.03-.04c-.02-.05-.03-.1,0-.15.03-.07.66-1.84,1.69-2.27.33-.14.65-.13.98.03.34.16.51.38.5.64-.02.4-.56.8-1.18,1.12.64-.06,1.29-.05,1.7.19.21.12.35.3.4.51.11.45-.04.69-.18.81-.16.13-.39.18-.67.18Zm-2.44-1.09c1.11.47,2.5.89,2.86.6.03-.03.13-.1.05-.4-.03-.11-.1-.2-.22-.26-.54-.31-1.84-.12-2.69.07Zm1.35-2.08c-.1,0-.2.02-.31.06-.56.23-1.04,1.05-1.3,1.63,1.12-.43,2.2-1.01,2.22-1.35,0-.11-.17-.2-.27-.25-.12-.06-.23-.08-.35-.08Z"/>
      </g>
      <path class="cls-17" d="m151.38,250.45v5.05c-20.15-8.42-15.16-28.55-15.16-28.55,1.29,7.73,10.14,10.59,10.14,10.59l5.02,12.91Z"/>
      <g>
        <path class="cls-22" d="m139.33,206.23l16.26,1.7v-3.69l-15.79-1.56c-.12.9-.32,2.37-.48,3.55Z"/>
        <polygon class="cls-22" points="156.86 204.36 156.86 208.06 163.59 208.76 163.59 205.02 156.86 204.36"/>
        <polygon class="cls-22" points="138.51 202.54 131.68 201.87 130.82 205.34 137.87 206.07 138.51 202.54"/>
      </g>
      <polygon class="cls-17" points="141.37 214.49 149.76 214.49 150.64 222.85 146.01 226.46 141.37 223.59 141.37 214.49"/>
      <path class="cls-17" d="m133.26,213.13l-.46,9.72-2.98,4.1s-.96-.85-1.79-1.71c.24-4.62.77-8.68,1.39-12.11h3.84Z"/>
      <path class="cls-21" d="m207.72,197.97s2.22-1.57,4.21-2.07c2-.5,4.87,0,4.87,0l-.39,5.3s-2.84,1.34-4.28,1.6c-1.44.26-4.37-.66-4.37-.66l-.05-4.17Z"/>
      <g>
        <path class="cls-20" d="m153.02,257.07s.4,2.77,1.05,2.24c.66-.53,21.63-3.81,21.63-3.81v-2.78l-22.68,4.35Z"/>
        <path class="cls-6" d="m153.02,257.07s.4,2.77,1.05,2.24c.66-.53,21.63-3.81,21.63-3.81v-2.78l-22.68,4.35Z"/>
      </g>
      <g>
        <path class="cls-20" d="m131.46,260.69s.35,2.79.95,2.28c.59-.51,19.4-3.12,19.4-3.12v-2.78l-20.34,3.62Z"/>
        <path class="cls-6" d="m131.46,260.69s.35,2.79.95,2.28c.59-.51,19.4-3.12,19.4-3.12v-2.78l-20.34,3.62Z"/>
      </g>
      <path class="cls-22" d="m132.79,200.61l29.98,3.36,14.9-33.59s-10.38-8.94-29.59-6.05c0,0-6.88,3.06-15.29,36.28Z"/>
      <path class="cls-21" d="m180.3,179.67s4.58,11.14,6.76,13.38c2.18,2.24,20.67,4.93,20.67,4.93l.05,4.17s-19.43-.72-22.89-3.69c-3.46-2.97-10.88-16.02-10.88-16.02l6.3-2.76Z"/>
      <path class="cls-22" d="m177.68,170.38c2.23,2.37,4.69,13.13,4.69,13.13h-10.68l-3.51-5.8s1.47-2.42,4.72-4.62c3.12-2.11,4.78-2.71,4.78-2.71Z"/>
    </g>
  </g>
</svg>