<?xml version="1.0" encoding="UTF-8"?>
<svg id="Layer_2" data-name="Layer 2" xmlns="http://www.w3.org/2000/svg" viewBox="0 0 467.16 445.08">
  <defs>
    <style>
      .cls-1 {
        fill: #ff6d6b;
      }

      .cls-2 {
        fill: #fff;
      }

      .cls-3 {
        fill: #ed495c;
      }

      .cls-4 {
        fill: #3b3e7d;
      }

      .cls-5 {
        fill: #18285d;
      }

      .cls-6 {
        fill: #586199;
      }

      .cls-7 {
        fill: #d9e4f5;
      }

      .cls-8 {
        fill: #00a0ff;
      }

      .cls-9 {
        fill: #007eff;
      }

      .cls-10 {
        fill: #b4cae3;
      }

      .cls-11 {
        fill: #fcfbff;
      }

      .cls-12 {
        fill: #f9f9f9;
      }

      .cls-13 {
        fill: #021147;
      }

      .cls-14 {
        fill: #fb9a83;
      }

      .cls-15 {
        fill: #0060e6;
      }

      .cls-16 {
        fill: #c7d9ed;
      }
    </style>
  </defs>
  <g id="OBJECTS">
    <path class="cls-7" d="m463.94,395.51c0,14.51-98.25,26.27-219.46,26.27s-219.46-11.76-219.46-26.27,98.25-26.27,219.46-26.27,219.46,11.76,219.46,26.27Z"/>
    <g>
      <path class="cls-7" d="m128.54,86.05c0,1.04-.42,1.98-1.11,2.67-.68.69-1.63,1.11-2.66,1.11H43.99c-2.07,0-3.77-1.7-3.77-3.78,0-1.04.42-1.98,1.11-2.67.68-.69,1.63-1.11,2.66-1.11h3.82c1.51-3.5,4.99-5.95,9.04-5.95,2.73,0,5.2,1.11,6.98,2.9,2.38-4.04,6.77-6.75,11.79-6.75,1.38,0,2.71.21,3.97.59,2.63-4.94,7.82-8.31,13.81-8.31,7.19,0,13.24,4.86,15.07,11.46,1.32-.66,2.82-1.04,4.41-1.04,4.48,0,8.27,2.99,9.46,7.1h2.43c2.07,0,3.77,1.7,3.77,3.78Z"/>
      <path class="cls-7" d="m407.4,92.84c0,1.04-.42,1.98-1.11,2.67-.68.69-1.63,1.11-2.66,1.11h-80.78c-2.07,0-3.77-1.7-3.77-3.78,0-1.04.42-1.98,1.11-2.67.68-.69,1.63-1.11,2.66-1.11h3.82c1.51-3.5,4.99-5.95,9.04-5.95,2.73,0,5.2,1.11,6.98,2.9,2.38-4.04,6.77-6.75,11.79-6.75,1.38,0,2.71.21,3.97.59,2.63-4.94,7.82-8.31,13.81-8.31,7.19,0,13.24,4.86,15.07,11.46,1.32-.66,2.82-1.04,4.41-1.04,4.48,0,8.27,2.99,9.46,7.1h2.43c2.07,0,3.77,1.7,3.77,3.78Z"/>
      <path class="cls-7" d="m268.02,108.41c0,1.04-.42,1.98-1.11,2.67-.68.69-1.63,1.11-2.66,1.11h-80.78c-2.07,0-3.77-1.7-3.77-3.78,0-1.04.42-1.98,1.11-2.67.68-.69,1.63-1.11,2.66-1.11h3.82c1.51-3.5,4.99-5.95,9.04-5.95,2.73,0,5.2,1.11,6.98,2.9,2.38-4.04,6.77-6.75,11.79-6.75,1.38,0,2.71.21,3.97.59,2.63-4.94,7.82-8.31,13.81-8.31,7.19,0,13.24,4.86,15.07,11.46,1.32-.66,2.82-1.04,4.41-1.04,4.48,0,8.27,2.99,9.46,7.1h2.43c2.07,0,3.77,1.7,3.77,3.78Z"/>
    </g>
    <g>
      <g>
        <g>
          <path class="cls-16" d="m441.59,283.63c-8.53,13.5,3.97,11.66-2.24,21.8-5.66,9.24-18.2,4.32-13.3,22.67,1.07,4.01-1.2,7.68-4.99,10.16-6.23,4.07-13.42,3.23-18.57-.5-.42-.3-.82-.62-1.21-.96-4.07-3.54-6.5-9.04-5.48-15.27.83-5.05,3.11-10.35,8.58-13.49,12.81-7.36,1.05-23.88,12.52-27.31,13.82-4.13,13.17-9.4,21.56-18.59,8.9-9.74,14.7,3.2,3.13,21.49Z"/>
          <path class="cls-10" d="m435.29,278.72c-.24.39-19.84,32.49-32.8,59.03-.42-.3-.82-.62-1.21-.96,13-26.56,32.48-58.47,32.72-58.85.22-.36.68-.47,1.04-.25.36.22.47.68.25,1.04Z"/>
        </g>
        <g>
          <path class="cls-7" d="m452.71,319.75c-14.97,14.05,1.18,15.79-9.81,26.41-10.02,9.68-24.04-.49-23.85,23.94.04,5.34-3.97,9.18-9.48,11.04-9.07,3.05-17.74-.31-22.95-6.61-.42-.51-.82-1.04-1.2-1.59-3.92-5.72-5.18-13.35-1.91-20.77,2.66-6.02,7.21-11.88,15.02-14.03,18.32-5.04,9-29.39,24.38-29.96,18.54-.69,19.41-7.46,32.83-16.19,14.22-9.26,17.26,8.72-3.02,27.76Z"/>
          <path class="cls-16" d="m446.45,311.62c-.42.41-35.16,34.05-59.83,62.91-.42-.51-.82-1.04-1.2-1.59,24.74-28.88,59.26-62.31,59.68-62.72.39-.37,1-.36,1.37.02.37.39.36,1-.02,1.37Z"/>
        </g>
      </g>
      <g>
        <g>
          <path class="cls-16" d="m44.19,170.64c9.29,12.99-3.29,11.87,3.48,21.64,6.18,8.9,18.41,3.27,14.57,21.87-.84,4.07,1.63,7.6,5.56,9.86,6.46,3.7,13.58,2.45,18.51-1.56.4-.32.79-.67,1.16-1.03,3.86-3.77,5.98-9.4,4.6-15.56-1.11-4.99-3.7-10.16-9.33-12.98-13.21-6.62-2.42-23.78-14.05-26.55-14.04-3.34-13.68-8.63-22.59-17.33-9.44-9.22-14.49,4.04-1.9,21.64Z"/>
          <path class="cls-10" d="m50.2,165.38c.26.37,21.66,31.3,36.11,57.06.4-.32.79-.67,1.16-1.03-14.5-25.78-35.77-56.52-36.03-56.89-.24-.34-.71-.43-1.05-.19-.34.24-.43.71-.19,1.05Z"/>
        </g>
        <g>
          <path class="cls-7" d="m36.19,212.15c16.14,12.69.2,15.83,12.08,25.46,10.83,8.77,23.91-2.58,25.85,21.77.42,5.33,4.75,8.8,10.4,10.17,9.3,2.25,17.65-1.85,22.29-8.58.38-.54.73-1.11,1.06-1.69,3.41-6.04,4-13.75.09-20.86-3.17-5.77-8.22-11.21-16.18-12.67-18.69-3.42-11.53-28.49-26.89-27.73-18.53.93-19.99-5.74-34.11-13.27-14.97-7.98-16.44,10.19,5.43,27.4Z"/>
          <path class="cls-16" d="m41.72,203.5c.45.37,37.99,30.85,65.09,57.46.38-.54.73-1.11,1.06-1.69-27.16-26.61-64.47-56.91-64.92-57.28-.42-.34-1.03-.27-1.37.14-.34.42-.27,1.03.14,1.37Z"/>
        </g>
      </g>
      <g>
        <g>
          <path class="cls-16" d="m367,126.62c-9.29,12.99,3.29,11.87-3.48,21.64-6.18,8.9-18.41,3.27-14.57,21.87.84,4.07-1.63,7.6-5.56,9.86-6.46,3.7-13.58,2.45-18.51-1.56-.4-.32-.79-.67-1.16-1.03-3.86-3.77-5.98-9.4-4.6-15.56,1.11-4.99,3.7-10.16,9.33-12.98,13.21-6.62,2.42-23.78,14.05-26.55,14.04-3.34,13.68-8.63,22.59-17.33,9.44-9.22,14.49,4.04,1.9,21.64Z"/>
          <path class="cls-10" d="m360.99,121.37c-.26.37-21.66,31.3-36.11,57.06-.4-.32-.79-.67-1.16-1.03,14.5-25.78,35.77-56.52,36.03-56.89.24-.34.71-.43,1.05-.19.34.24.43.71.19,1.05Z"/>
        </g>
        <g>
          <path class="cls-7" d="m396.94,144.3c-16.14,12.69-.2,15.83-12.08,25.46-10.83,8.77-23.91-2.58-25.85,21.77-.42,5.33-4.75,8.8-10.4,10.17-9.3,2.25-17.65-1.85-22.29-8.58-.38-.54-.73-1.11-1.06-1.69-3.41-6.04-4-13.75-.09-20.86,3.17-5.77,8.22-11.21,16.18-12.67,18.69-3.42,11.53-28.49,26.89-27.73,18.53.93,19.99-5.74,34.11-13.27,14.97-7.98,16.44,10.19-5.43,27.4Z"/>
          <path class="cls-16" d="m391.41,135.65c-.45.37-37.99,30.85-65.09,57.46-.38-.54-.73-1.11-1.06-1.69,27.16-26.61,64.47-56.91,64.92-57.28.42-.34,1.03-.27,1.37.14.34.42.27,1.03-.14,1.37Z"/>
        </g>
      </g>
      <path class="cls-7" d="m162.59,158.74c-6.31-4.32-22.13,6.34-30.39,19.29l7.34-20.55c2.65-2.3,7.3-5.53,14.57-8.11,11.3-4,22.62-10.27,16.29-14.61-5.93-4.06-20.23,5.09-28.8,16.94l9.42-26.39c1.75-1.35,4.42-2.99,8.23-4.34,7.12-2.52,14.25-6.48,10.27-9.21-3.46-2.37-11.44,2.4-16.89,9.05l3.05-8.55c1.4-2.48,3.38-6.04,6.51-9.27,7.25-7.5,12.74-15.94,7.14-17.17-5.6-1.22-14.76,13.48-16.2,26.76l-1.57,4.4c1.22-9.66-2.25-21.36-7.1-21.77-4.81-.41-1.79,7.17,2.12,13.63,2.98,4.92,3.8,8.82,4.02,10.84l-7.42,20.79c1.89-15.31-3.61-33.77-11.28-34.42-7.64-.65-2.85,11.37,3.36,21.62,4.69,7.75,6.01,13.91,6.37,17.13l-8.9,24.93c1.58-15.13-3.83-33.48-11.38-33.54-5.82-.05-4.04,8.17,2.91,19.76,4.72,7.88,6.23,14.96,6.72,18.68l-4.19,11.74c.7.5,1.43.76,2.16.77l1.67-4.67c2.36-2.28,7.26-6.15,15.69-9.14,11.3-4,22.62-10.27,16.29-14.61Z"/>
      <path class="cls-7" d="m82.59,376.14h3.5l-.12-.11c-1.27-3.02-3.1-9-2.83-17.94.36-11.98-1.38-24.8-7.71-20.48-6.32,4.32-2.11,22.92,6.96,35.32l-16.49-14.28c-1.18-3.31-2.51-8.81-2.28-16.51.36-11.98-1.38-24.8-7.71-20.48-5.93,4.05-2.58,20.7,5.36,32.98l-21.18-18.34c-.62-2.12-1.18-5.2-1.06-9.24.23-7.55-.87-15.63-4.86-12.9-3.46,2.37-1.91,11.54,2.31,19.03l-6.86-5.95c-1.81-2.2-4.4-5.34-6.28-9.43-4.37-9.48-10.24-17.65-13.41-12.88-3.17,4.77,7.21,18.64,19.07,24.8l3.53,3.06c-8.56-4.64-20.72-5.64-22.87-1.28-2.13,4.34,6.03,4.27,13.47,2.96,5.66-.99,9.6-.35,11.56.18l16.69,14.45c-13.58-7.31-32.78-8.87-36.17-1.96-3.38,6.88,9.56,6.77,21.37,4.7,8.92-1.56,15.14-.56,18.28.27l20.01,17.33c-13.53-6.95-32.6-8.56-35.39-1.55-2.15,5.41,6.15,6.72,19.48,4.45,9.06-1.55,16.2-.39,19.85.51l3.8,3.29Z"/>
    </g>
    <g>
      <g>
        <path class="cls-9" d="m431.23,135.09c-2.64,0-4.78-2.15-4.78-4.78s2.15-4.78,4.78-4.78,4.78,2.14,4.78,4.78-2.14,4.78-4.78,4.78Zm0-1.5c1.81,0,3.28-1.47,3.28-3.28s-1.47-3.28-3.28-3.28-3.28,1.47-3.28,3.28,1.47,3.28,3.28,3.28Z"/>
        <path class="cls-15" d="m436.09,159.39c-2.64,0-4.78-2.15-4.78-4.78s2.14-4.78,4.78-4.78,4.78,2.14,4.78,4.78-2.14,4.78-4.78,4.78Zm0-1.5c1.81,0,3.28-1.47,3.28-3.28s-1.47-3.28-3.28-3.28-3.28,1.47-3.28,3.28,1.47,3.28,3.28,3.28Z"/>
        <g>
          <g>
            <path class="cls-9" d="m450.63,166.12c0-.41-.34-.75-.75-.75h-3.31c-.41,0-.75.34-.75.75s.34.75.75.75h3.31c.41,0,.75-.34.75-.75Z"/>
            <path class="cls-9" d="m456.42,166.12c0-.41-.34-.75-.75-.75h-3.31c-.41,0-.75.34-.75.75s.34.75.75.75h3.31c.41,0,.75-.34.75-.75Z"/>
          </g>
          <g>
            <path class="cls-9" d="m451.88,170.76v-2.97c0-.41-.34-.75-.75-.75s-.75.34-.75.75v2.97c0,.41.34.75.75.75s.75-.34.75-.75Z"/>
            <path class="cls-9" d="m451.88,164.45v-2.97c0-.41-.34-.75-.75-.75s-.75.34-.75.75v2.97c0,.41.34.75.75.75s.75-.34.75-.75Z"/>
          </g>
        </g>
        <g>
          <g>
            <path class="cls-15" d="m445.24,140.58c0-.41-.34-.75-.75-.75h-3.31c-.41,0-.75.34-.75.75s.34.75.75.75h3.31c.41,0,.75-.34.75-.75Z"/>
            <path class="cls-15" d="m451.03,140.58c0-.41-.34-.75-.75-.75h-3.31c-.41,0-.75.34-.75.75s.34.75.75.75h3.31c.41,0,.75-.34.75-.75Z"/>
          </g>
          <g>
            <path class="cls-15" d="m446.48,145.23v-2.97c0-.41-.34-.75-.75-.75s-.75.34-.75.75v2.97c0,.41.34.75.75.75s.75-.34.75-.75Z"/>
            <path class="cls-15" d="m446.48,138.91v-2.97c0-.41-.34-.75-.75-.75s-.75.34-.75.75v2.97c0,.41.34.75.75.75s.75-.34.75-.75Z"/>
          </g>
        </g>
      </g>
      <g>
        <path class="cls-9" d="m34.91,291.08c0,2.64-2.14,4.78-4.78,4.78s-4.78-2.15-4.78-4.78,2.14-4.78,4.78-4.78,4.78,2.15,4.78,4.78Zm-8.06,0c0,1.81,1.47,3.28,3.28,3.28s3.28-1.47,3.28-3.28-1.47-3.28-3.28-3.28-3.28,1.47-3.28,3.28Z"/>
        <path class="cls-15" d="m39.77,266.78c0,2.64-2.14,4.78-4.78,4.78s-4.78-2.15-4.78-4.78,2.14-4.78,4.78-4.78,4.78,2.15,4.78,4.78Zm-8.06,0c0,1.81,1.47,3.28,3.28,3.28s3.28-1.47,3.28-3.28-1.47-3.28-3.28-3.28-3.28,1.47-3.28,3.28Z"/>
        <g>
          <g>
            <path class="cls-9" d="m49.54,255.26c0,.41-.34.75-.75.75h-3.31c-.41,0-.75-.34-.75-.75s.34-.75.75-.75h3.31c.41,0,.75.34.75.75Z"/>
            <path class="cls-9" d="m55.32,255.26c0,.41-.34.75-.75.75h-3.31c-.41,0-.75-.34-.75-.75s.34-.75.75-.75h3.31c.41,0,.75.34.75.75Z"/>
          </g>
          <g>
            <path class="cls-9" d="m50.78,250.62v2.97c0,.41-.34.75-.75.75s-.75-.34-.75-.75v-2.97c0-.41.34-.75.75-.75s.75.34.75.75Z"/>
            <path class="cls-9" d="m50.78,256.93v2.97c0,.41-.34.75-.75.75s-.75-.34-.75-.75v-2.97c0-.41.34-.75.75-.75s.75.34.75.75Z"/>
          </g>
        </g>
        <g>
          <g>
            <path class="cls-15" d="m44.14,280.8c0,.41-.34.75-.75.75h-3.31c-.41,0-.75-.34-.75-.75s.34-.75.75-.75h3.31c.41,0,.75.34.75.75Z"/>
            <path class="cls-15" d="m49.93,280.8c0,.41-.34.75-.75.75h-3.31c-.41,0-.75-.34-.75-.75s.34-.75.75-.75h3.31c.41,0,.75.34.75.75Z"/>
          </g>
          <g>
            <path class="cls-15" d="m45.38,276.16v2.97c0,.41-.34.75-.75.75s-.75-.34-.75-.75v-2.97c0-.41.34-.75.75-.75s.75.34.75.75Z"/>
            <path class="cls-15" d="m45.38,282.47v2.97c0,.41-.34.75-.75.75s-.75-.34-.75-.75v-2.97c0-.41.34-.75.75-.75s.75.34.75.75Z"/>
          </g>
        </g>
      </g>
      <g>
        <g>
          <path class="cls-9" d="m268.45,121.77l-.16,5.7,5.34.15c.23,1.36.69,2.68,1.36,3.92l-3.78,3.57,3.91,4.15,3.62-3.42c1.42,1.03,3,1.74,4.65,2.12l-.15,5.34,5.7.16.16-5.5c1.12-.25,2.21-.66,3.25-1.21l3.57,3.78,4.15-3.91-3.42-3.62c1.03-1.42,1.74-3,2.12-4.65l4.67.13.16-5.7-4.83-.14c-.32-1.43-.88-2.82-1.7-4.09l3.62-3.42-3.91-4.15-3.78,3.57c-1.4-.86-2.93-1.43-4.51-1.7l.16-5.37-5.7-.16-.17,5.82c-1.19.34-2.34.85-3.41,1.54l-3.42-3.62-4.15,3.91,3.57,3.78c-.62,1-1.08,2.07-1.4,3.17l-5.5-.16Zm14.23-.1c2.1-1.98,5.41-1.88,7.39.21,1.98,2.1,1.88,5.41-.21,7.39-2.1,1.98-5.41,1.88-7.39-.21-1.98-2.1-1.88-5.41.21-7.39Z"/>
          <path class="cls-15" d="m287.15,133.71c4.61-.5,7.94-4.63,7.45-9.24-.5-4.61-4.63-7.94-9.24-7.45-4.61.5-7.94,4.63-7.45,9.24s4.63,7.94,9.24,7.45Zm-4.47-12.03c2.1-1.98,5.41-1.88,7.39.21,1.98,2.1,1.88,5.41-.21,7.39-2.1,1.98-5.41,1.88-7.39-.21-1.98-2.1-1.88-5.41.21-7.39Z"/>
        </g>
        <g>
          <path class="cls-9" d="m305.95,124.2l-.09,3.31,3.1.09c.13.79.4,1.56.79,2.28l-2.2,2.07,2.27,2.41,2.1-1.99c.82.6,1.74,1.01,2.7,1.23l-.09,3.1,3.31.09.09-3.2c.65-.15,1.28-.38,1.89-.7l2.07,2.2,2.41-2.27-1.99-2.1c.6-.82,1.01-1.74,1.23-2.7l2.71.08.1-3.31-2.81-.08c-.19-.83-.51-1.64-.99-2.38l2.1-1.99-2.27-2.41-2.2,2.07c-.81-.5-1.7-.83-2.62-.99l.09-3.12-3.31-.09-.1,3.38c-.69.2-1.36.49-1.98.89l-1.99-2.1-2.41,2.27,2.07,2.2c-.36.58-.63,1.2-.81,1.84l-3.2-.09Zm8.26-.06c1.22-1.15,3.14-1.09,4.29.12,1.15,1.22,1.09,3.14-.12,4.29-1.22,1.15-3.14,1.09-4.29-.12-1.15-1.22-1.09-3.14.12-4.29Z"/>
          <path class="cls-15" d="m316.81,131.13c2.68-.29,4.61-2.69,4.33-5.37-.29-2.68-2.69-4.61-5.37-4.33-2.68.29-4.61,2.69-4.33,5.37.29,2.68,2.69,4.61,5.37,4.33Zm-2.6-6.99c1.22-1.15,3.14-1.09,4.29.12,1.15,1.22,1.09,3.14-.12,4.29-1.22,1.15-3.14,1.09-4.29-.12-1.15-1.22-1.09-3.14.12-4.29Z"/>
        </g>
      </g>
    </g>
    <path class="cls-15" d="m41.49,250.75h0s.02.01.02.01h0Z"/>
    <polygon class="cls-15" points="41.48 250.77 41.42 250.86 41.44 250.77 41.48 250.77"/>
    <g>
      <path class="cls-4" d="m409.7,154.53v246.34c0,2.28-1.85,4.13-4.14,4.13H68.5c-1.06,0-2.03-.4-2.76-1.06-.84-.76-1.37-1.85-1.37-3.08v-246.34c0-2.28,1.85-4.14,4.13-4.14h337.06c1.36,0,2.57.66,3.33,1.68.51.69.81,1.54.81,2.46Z"/>
      <path class="cls-5" d="m409.7,154.53v246.34c0,2.28-1.85,4.13-4.14,4.13H68.5c-1.06,0-2.03-.4-2.76-1.06l343.15-251.87c.51.69.81,1.54.81,2.46Z"/>
      <path class="cls-2" d="m78.74,160.22h316.58c2.51,0,4.56,2.04,4.56,4.56v225.86c0,2.51-2.04,4.55-4.55,4.55H78.74c-2.51,0-4.55-2.04-4.55-4.55v-225.86c0-2.51,2.04-4.56,4.56-4.56Z"/>
      <g>
        <path class="cls-7" d="m399.88,164.77v15.85H74.18v-15.85c0-2.52,2.04-4.56,4.55-4.56h316.59c2.52,0,4.56,2.04,4.56,4.56Z"/>
        <path class="cls-2" d="m129.39,170.95h0c0,1.5,1.21,2.71,2.71,2.71h237.4c1.5,0,2.71-1.21,2.71-2.71h0c0-1.5-1.21-2.71-2.71-2.71h-237.4c-1.5,0-2.71,1.21-2.71,2.71Z"/>
        <path class="cls-4" d="m92.29,170.95v2.01c0,.58-.62.94-1.12.65l-1.74-1-1.74-1c-.5-.29-.5-1.01,0-1.29l1.74-1,1.74-1c.5-.29,1.12.07,1.12.65v2.01Z"/>
        <path class="cls-4" d="m101.33,170.95v2.01c0,.58.62.94,1.12.65l1.74-1,1.74-1c.5-.29.5-1.01,0-1.29l-1.74-1-1.74-1c-.5-.29-1.12.07-1.12.65v2.01Z"/>
      </g>
    </g>
    <g>
      <g>
        <g>
          <rect class="cls-7" x="99.09" y="189.72" width="283.87" height="148.39" rx="8.47" ry="8.47"/>
          <path class="cls-10" d="m382.96,198.19v6.17H99.09v-6.17c0-4.68,3.79-8.47,8.47-8.47h266.93c4.68,0,8.47,3.79,8.47,8.47Z"/>
          <g>
            <path class="cls-4" d="m355.69,196.9c0,1.59-1.28,2.87-2.87,2.87s-2.87-1.28-2.87-2.87,1.29-2.87,2.87-2.87,2.87,1.28,2.87,2.87Z"/>
            <path class="cls-15" d="m364.88,196.9c0,1.59-1.28,2.87-2.87,2.87s-2.87-1.28-2.87-2.87,1.29-2.87,2.87-2.87,2.87,1.28,2.87,2.87Z"/>
            <path class="cls-9" d="m374.06,196.9c0,1.59-1.29,2.87-2.87,2.87s-2.87-1.28-2.87-2.87,1.28-2.87,2.87-2.87,2.87,1.28,2.87,2.87Z"/>
          </g>
        </g>
        <g>
          <rect class="cls-9" x="106.79" y="212.72" width="69.6" height="49.81"/>
          <polygon class="cls-5" points="176.39 249.35 173 243.66 161.79 224.78 139.38 262.54 176.39 262.54 176.39 249.35"/>
          <polygon class="cls-4" points="134.74 262.54 106.79 262.54 120.76 240.02 134.74 217.5 148.71 240.02 162.68 262.54 134.74 262.54"/>
          <polygon class="cls-2" points="125.68 232.1 134.74 238.88 143.8 232.1 134.74 217.5 125.68 232.1"/>
          <polygon class="cls-2" points="154.16 237.63 161.79 243.66 169.43 237.63 161.79 224.78 154.16 237.63"/>
        </g>
        <g>
          <rect class="cls-9" x="299.54" y="276.9" width="69.6" height="49.81"/>
          <polygon class="cls-5" points="369.14 313.53 365.75 307.83 354.55 288.96 332.13 326.71 369.14 326.71 369.14 313.53"/>
          <polygon class="cls-4" points="327.49 326.71 299.54 326.71 313.51 304.19 327.49 281.68 341.46 304.19 355.43 326.71 327.49 326.71"/>
          <polygon class="cls-2" points="318.43 296.28 327.49 303.06 336.55 296.28 327.49 281.68 318.43 296.28"/>
          <polygon class="cls-2" points="346.91 301.81 354.55 307.83 362.18 301.81 354.55 288.96 346.91 301.81"/>
        </g>
        <g>
          <path class="cls-10" d="m173.23,274.66h-63.29c-1.74,0-3.16-1.41-3.16-3.16h0c0-1.74,1.41-3.16,3.16-3.16h63.29c1.74,0,3.16,1.41,3.16,3.16h0c0,1.74-1.41,3.16-3.16,3.16Z"/>
          <path class="cls-10" d="m173.23,287.75h-63.29c-1.74,0-3.16-1.41-3.16-3.16h0c0-1.74,1.41-3.16,3.16-3.16h63.29c1.74,0,3.16,1.41,3.16,3.16h0c0,1.74-1.41,3.16-3.16,3.16Z"/>
          <path class="cls-10" d="m173.23,300.84h-63.29c-1.74,0-3.16-1.41-3.16-3.16h0c0-1.74,1.41-3.16,3.16-3.16h63.29c1.74,0,3.16,1.41,3.16,3.16h0c0,1.74-1.41,3.16-3.16,3.16Z"/>
          <path class="cls-10" d="m173.23,313.93h-63.29c-1.74,0-3.16-1.41-3.16-3.16h0c0-1.74,1.41-3.16,3.16-3.16h63.29c1.74,0,3.16,1.41,3.16,3.16h0c0,1.74-1.41,3.16-3.16,3.16Z"/>
          <path class="cls-10" d="m173.23,327.02h-63.29c-1.74,0-3.16-1.41-3.16-3.16h0c0-1.74,1.41-3.16,3.16-3.16h63.29c1.74,0,3.16,1.41,3.16,3.16h0c0,1.74-1.41,3.16-3.16,3.16Z"/>
        </g>
        <g>
          <path class="cls-10" d="m188.43,215.88h0c0,1.74,1.41,3.16,3.16,3.16h92.27c1.74,0,3.16-1.41,3.16-3.16h0c0-1.74-1.41-3.16-3.16-3.16h-92.27c-1.74,0-3.16,1.41-3.16,3.16Z"/>
          <rect class="cls-10" x="188.43" y="226.22" width="98.58" height="6.31" rx="3.16" ry="3.16"/>
          <path class="cls-10" d="m188.43,242.88h0c0,1.74,1.41,3.16,3.16,3.16h92.27c1.74,0,3.16-1.41,3.16-3.16h0c0-1.74-1.41-3.16-3.16-3.16h-92.27c-1.74,0-3.16,1.41-3.16,3.16Z"/>
          <path class="cls-10" d="m188.43,256.37h0c0,1.74,1.41,3.16,3.16,3.16h92.27c1.74,0,3.16-1.41,3.16-3.16h0c0-1.74-1.41-3.16-3.16-3.16h-92.27c-1.74,0-3.16,1.41-3.16,3.16Z"/>
          <rect class="cls-10" x="188.43" y="266.71" width="98.58" height="6.31" rx="3.16" ry="3.16"/>
          <path class="cls-10" d="m188.43,283.37h0c0,1.74,1.41,3.16,3.16,3.16h92.27c1.74,0,3.16-1.41,3.16-3.16h0c0-1.74-1.41-3.16-3.16-3.16h-92.27c-1.74,0-3.16,1.41-3.16,3.16Z"/>
          <path class="cls-10" d="m188.43,296.87h0c0,1.74,1.41,3.16,3.16,3.16h92.27c1.74,0,3.16-1.41,3.16-3.16h0c0-1.74-1.41-3.16-3.16-3.16h-92.27c-1.74,0-3.16,1.41-3.16,3.16Z"/>
          <path class="cls-10" d="m188.43,310.36h0c0,1.74,1.41,3.16,3.16,3.16h92.27c1.74,0,3.16-1.41,3.16-3.16h0c0-1.74-1.41-3.16-3.16-3.16h-92.27c-1.74,0-3.16,1.41-3.16,3.16Z"/>
          <path class="cls-10" d="m188.43,323.86h0c0,1.74,1.41,3.16,3.16,3.16h92.27c1.74,0,3.16-1.41,3.16-3.16h0c0-1.74-1.41-3.16-3.16-3.16h-92.27c-1.74,0-3.16,1.41-3.16,3.16Z"/>
        </g>
        <g>
          <path class="cls-10" d="m330.43,215.88h0c0,1.74,1.41,3.16,3.16,3.16h31.45c1.74,0,3.16-1.41,3.16-3.16h0c0-1.74-1.41-3.16-3.16-3.16h-31.45c-1.74,0-3.16,1.41-3.16,3.16Z"/>
          <path class="cls-10" d="m330.43,229.38h0c0,1.74,1.41,3.16,3.16,3.16h31.45c1.74,0,3.16-1.41,3.16-3.16h0c0-1.74-1.41-3.16-3.16-3.16h-31.45c-1.74,0-3.16,1.41-3.16,3.16Z"/>
          <path class="cls-10" d="m330.43,242.88h0c0,1.74,1.41,3.16,3.16,3.16h31.45c1.74,0,3.16-1.41,3.16-3.16h0c0-1.74-1.41-3.16-3.16-3.16h-31.45c-1.74,0-3.16,1.41-3.16,3.16Z"/>
          <path class="cls-10" d="m330.43,256.37h0c0,1.74,1.41,3.16,3.16,3.16h31.45c1.74,0,3.16-1.41,3.16-3.16h0c0-1.74-1.41-3.16-3.16-3.16h-31.45c-1.74,0-3.16,1.41-3.16,3.16Z"/>
          <path class="cls-10" d="m330.43,269.87h0c0,1.74,1.41,3.16,3.16,3.16h31.45c1.74,0,3.16-1.41,3.16-3.16h0c0-1.74-1.41-3.16-3.16-3.16h-31.45c-1.74,0-3.16,1.41-3.16,3.16Z"/>
        </g>
        <circle class="cls-10" cx="312.33" cy="225.51" r="12.79"/>
        <circle class="cls-10" cx="312.33" cy="258.82" r="12.79"/>
      </g>
      <g>
        <path class="cls-9" d="m239.8,0v134.11c0,.68.55,1.23,1.23,1.23s1.23-.55,1.23-1.23V0h-2.46Z"/>
        <g>
          <path class="cls-5" d="m252.41,170.63c-.09,5.94-4.92,10.92-10.85,11.19-6.52.3-11.92-4.91-11.92-11.37,0-.44.04-.87.09-1.3,1.85,1.31,3.71,2.64,5.64,3.84,1.08,2.4,3.66,4,6.54,3.6,2.64-.36,4.79-2.46,5.23-5.09.57-3.46-1.74-6.51-4.91-7.14h0c-2.15,0-3.89-1.75-3.89-3.9v-1.34h3.89c5.77.61,10.28,5.55,10.18,11.51Z"/>
          <path class="cls-8" d="m241.03,191.52c-.68,0-1.23-.55-1.23-1.23v-13.65c0-.68.55-1.23,1.23-1.23s1.23.55,1.23,1.23v13.65c0,.68-.55,1.23-1.23,1.23Z"/>
          <path class="cls-15" d="m247.78,152.83h-13.33v-12.65c0-2.63,2.13-4.76,4.76-4.76h3.82c2.63,0,4.76,2.13,4.76,4.76v12.65Z"/>
          <path class="cls-9" d="m247.78,152.83c1.52,4.31-1.51,7.22-3.44,7.22h-6.01c-2.85,0-4.86-3.61-3.89-7.22h13.33Z"/>
        </g>
      </g>
    </g>
    <g>
      <path class="cls-7" d="m148.37,438.03c0,3.89-33.21,7.04-74.18,7.04S0,441.92,0,438.03s33.21-7.04,74.18-7.04,74.18,3.15,74.18,7.04Z"/>
      <g>
        <g>
          <path class="cls-9" d="m12.52,438.03h116.05v-138.92L17.76,431.76l-5.24,6.27Zm98.64-17.41h-61.42l61.42-73.52v73.52Z"/>
          <g>
            <rect class="cls-4" x="121.06" y="326.08" width="5.92" height="1.37"/>
            <rect class="cls-4" x="121.06" y="333.98" width="5.92" height="1.37"/>
            <rect class="cls-4" x="121.06" y="341.88" width="5.92" height="1.37"/>
            <rect class="cls-4" x="121.06" y="349.78" width="5.92" height="1.37"/>
            <rect class="cls-4" x="121.06" y="357.69" width="5.92" height="1.37"/>
            <rect class="cls-4" x="121.06" y="365.59" width="5.92" height="1.37"/>
            <rect class="cls-4" x="121.06" y="373.49" width="5.92" height="1.37"/>
            <rect class="cls-4" x="121.06" y="381.4" width="5.92" height="1.37"/>
            <rect class="cls-4" x="121.06" y="389.3" width="5.92" height="1.37"/>
            <rect class="cls-4" x="121.06" y="397.2" width="5.92" height="1.37"/>
            <rect class="cls-4" x="121.06" y="405.11" width="5.92" height="1.37"/>
            <rect class="cls-4" x="121.06" y="413.01" width="5.92" height="1.37"/>
            <rect class="cls-4" x="121.06" y="420.91" width="5.92" height="1.37"/>
            <rect class="cls-4" x="121.06" y="428.81" width="5.92" height="1.37"/>
          </g>
        </g>
        <polygon class="cls-15" points="12.52 438.03 128.57 438.03 128.57 431.76 17.76 431.76 12.52 438.03"/>
      </g>
    </g>
    <g>
      <path class="cls-7" d="m432.06,437.54c0,2.21-17.4,4-38.86,4s-38.86-1.79-38.86-4,17.4-4,38.86-4,38.86,1.79,38.86,4Z"/>
      <g>
        <g>
          <g>
            <g>
              <polygon class="cls-14" points="365.33 420.7 364.93 427.89 370.77 428.02 371.48 420.46 365.33 420.7"/>
              <g>
                <path class="cls-9" d="m367.24,426.88s3.01-.68,3.83-.63c.82.05,6.1,6.42,7.94,6.85,3.34.79,3.14,6.04,1.09,6.22-5.95.53-15.99-2.36-15.99-2.36,0,0-.68-6.78-.19-8.88.49-2.1,1.65-.65,3.32-1.21Z"/>
                <g>
                  <path class="cls-11" d="m371.93,432.82c-.11.02-.22,0-.31-.07-.18-.13-.22-.39-.09-.57.04-.06,1.11-1.51,2.37-1.98,1.68-.63,2.82.41,2.87.46.17.15.17.41.02.58-.15.17-.41.17-.58.02-.03-.03-.83-.73-2.03-.29-1.03.38-1.98,1.68-1.99,1.69-.06.09-.16.14-.26.16Z"/>
                  <path class="cls-11" d="m370.84,431.54c-.11.02-.22,0-.31-.07-.18-.13-.22-.39-.09-.57.04-.06,1.11-1.51,2.37-1.98,1.68-.63,2.82.41,2.87.46.17.15.17.41.02.58-.15.17-.41.18-.58.02-.03-.03-.83-.73-2.03-.29-1.03.38-1.98,1.68-1.99,1.69-.06.09-.16.14-.26.16Z"/>
                  <path class="cls-11" d="m373.47,433.94c-.11.02-.22,0-.31-.07-.18-.13-.22-.39-.09-.57.04-.06,1.11-1.51,2.37-1.98,1.68-.63,2.82.41,2.87.46.17.15.17.41.02.58-.15.17-.41.17-.58.02-.03-.03-.83-.73-2.03-.29-1.03.38-1.98,1.68-1.99,1.69-.06.09-.16.14-.26.16Z"/>
                </g>
              </g>
            </g>
            <path class="cls-4" d="m386.79,333.02s-.12,1.69-.34,4.49c-.06.74-.12,1.56-.19,2.45-.76,9.4-2.22,26.41-3.81,38.47-2.24,16.91-9.29,44.71-9.29,44.71l-7.28-.25-.72-.03-1.73-.06s1.21-17.58,2.76-32.85c1.02-10.07,1.63-33.89,1.92-48.93.15-7.76.22-13.18.22-13.18l18.47,5.18Z"/>
            <path class="cls-5" d="m386.79,333.02s-.12,1.69-.34,4.49c-.06.74-.12,1.56-.19,2.45-3.36.63-12.59,1.06-18.15,1.06.15-7.76.22-13.18.22-13.18l18.47,5.18Z"/>
            <path class="cls-5" d="m372.25,337.39c0,.58-.68,55.39-6.37,85.5l-.72-.03c5.7-30.03,6.37-84.91,6.38-85.48h.71Z"/>
          </g>
          <g>
            <g>
              <polygon class="cls-14" points="410.98 422.08 410.74 428.57 404.81 428.26 404.68 421.36 410.98 422.08"/>
              <g>
                <path class="cls-9" d="m409.23,428.27s1.29-1.68,2.3-1.6c1.01.09,8.68,6.38,11.34,6.93,2.65.55,2.11,2.5,1.61,3.49-.5.99-21.22-.69-21.22-.69,0,0-.48-6.18.23-8.06.71-1.88,3.67.34,5.76-.07Z"/>
                <g>
                  <path class="cls-11" d="m413.46,432.65c-.09.03-.2.02-.29-.04-.18-.1-.24-.33-.13-.51.03-.06.87-1.46,1.97-1.99,1.47-.71,2.59.13,2.64.16.16.12.19.36.07.52-.12.16-.36.19-.52.07-.03-.02-.81-.59-1.86-.08-.9.44-1.65,1.69-1.65,1.7-.05.09-.13.14-.22.17Z"/>
                  <path class="cls-11" d="m412.36,431.58c-.09.03-.2.02-.29-.04-.18-.1-.24-.33-.13-.51.04-.06.87-1.46,1.97-1.99,1.47-.71,2.59.13,2.64.16.16.12.19.36.07.52-.12.16-.36.19-.52.07-.03-.02-.81-.59-1.86-.08-.9.44-1.65,1.69-1.65,1.7-.05.09-.13.14-.22.17Z"/>
                  <path class="cls-11" d="m414.95,433.52c-.09.03-.2.02-.29-.04-.18-.1-.24-.33-.13-.51.03-.06.87-1.46,1.97-1.99,1.47-.71,2.59.13,2.64.16.16.13.19.36.07.52-.12.16-.36.19-.52.07-.03-.02-.81-.59-1.86-.08-.9.44-1.65,1.69-1.65,1.7-.05.09-.13.14-.22.17Z"/>
                </g>
              </g>
            </g>
            <path class="cls-4" d="m412.06,423.77l-6.03-.45-.72-.05-1.47-.11s-3.71-35.26-4.86-44.66c-1-8.16-5.68-26.5-8.72-37.9-.86-3.24-1.59-5.92-2.07-7.65-.37-1.36-.58-2.14-.58-2.14l20.16-1.95s.06.44.15,1.24c.2,1.63.57,4.76,1.03,8.69,1.26,10.69,3.17,27.34,3.92,35.81,1.9,21.81-.82,49.17-.82,49.17Z"/>
            <path class="cls-5" d="m408.96,338.79l-18.69,1.81c-.86-3.24-1.59-5.92-2.07-7.65l19.73-2.85c.2,1.63.57,4.76,1.03,8.69Z"/>
            <path class="cls-5" d="m406.03,423.32l-.72-.05c-.35-10.9-1.42-38.14-3.61-49.68-2.75-14.55-9.06-35.74-9.12-35.96l.69-.2c.06.21,6.39,21.44,9.14,36.03,2.2,11.62,3.28,38.98,3.62,49.86Z"/>
          </g>
          <g>
            <path class="cls-8" d="m411.05,330.42c-15.02,4.78-30.29,5.69-45.81,2.77-.3-4.22-1.08-18.09-1.68-32.71-.02-.48-.04-.97-.06-1.46-.01-.39-.03-.78-.05-1.17-.01-.28-.02-.56-.03-.85,0-.13-.01-.26-.01-.39-.02-.38-.03-.77-.04-1.15-.01-.32-.03-.64-.04-.96,0-.04,0-.09,0-.13,0-.04,0-.08,0-.12-.01-.33-.02-.67-.04-1,0-.07,0-.13,0-.19-.01-.4-.03-.8-.04-1.2-.01-.28-.02-.55-.03-.82,0-.11,0-.22-.01-.33-.01-.31-.02-.62-.03-.92,0-.09,0-.18,0-.28,0-.28-.02-.56-.02-.85,0-.12,0-.24,0-.36-.01-.4-.03-.8-.03-1.2-.02-.39-.03-.77-.04-1.15,0-.26-.02-.51-.03-.76-.02-.55-.03-1.1-.04-1.64-.32-12.52-.28-22.79.61-24.2,2.09-3.26,12.17-8.5,15.22-10.93l.03.5s2.15,2.51,4.38,2.18c2.02-.29,3.44-2.75,3.68-3.19,1.65,1.02,5.41,2.6,9.07,4.31,3.66,1.7,7.21,3.53,8.44,5.02,1.05,1.29,2.23,11.3,3.31,23.6v.04c.02.23.04.46.06.69v.03c.01.18.03.35.05.54,0,.11.02.22.03.34.02.25.04.51.06.76.03.38.07.76.1,1.15.03.39.06.79.1,1.19,0,.12.02.24.03.36.02.28.04.56.07.84,0,.09.01.18.02.28.02.3.05.61.07.92l.03.33c.02.27.04.54.06.82.03.4.06.8.09,1.2,0,.06,0,.13.02.19.02.33.05.67.07,1,0,.04,0,.08,0,.12,0,.04,0,.09,0,.13.03.32.05.64.07.95.03.38.06.76.08,1.15,0,.13.02.26.03.38.02.28.04.56.06.84.03.39.06.78.09,1.17.03.48.07.97.1,1.45,1.04,14.55,1.81,28.42,2.01,32.69Z"/>
            <g>
              <path class="cls-9" d="m408.14,285.96l-45.01,2.72c0-.12,0-.24,0-.36-.01-.4-.03-.8-.03-1.2-.02-.39-.03-.77-.04-1.15,0-.26-.02-.51-.03-.76l44.83-2.71c.02.25.04.51.06.76.03.38.07.76.1,1.15.03.39.06.79.1,1.19,0,.12.02.24.03.36Z"/>
              <path class="cls-9" d="m408.6,291.79l-45.27,2.74s0-.09,0-.13c0-.04,0-.08,0-.12-.01-.33-.02-.67-.04-1,0-.07,0-.13,0-.19-.01-.4-.03-.8-.04-1.2-.01-.28-.02-.55-.03-.82l45.12-2.73c.02.27.04.54.06.82.03.4.06.8.09,1.2,0,.06,0,.13.02.19.02.33.05.67.07,1,0,.04,0,.08,0,.12,0,.04,0,.09,0,.13Z"/>
              <path class="cls-9" d="m409.04,297.73l-45.47,2.75c-.02-.48-.04-.97-.06-1.46-.01-.39-.03-.78-.05-1.17-.01-.28-.02-.56-.03-.85l45.36-2.74c.02.28.04.56.06.84.03.39.06.78.09,1.17.03.48.07.97.1,1.45Z"/>
            </g>
            <path class="cls-9" d="m402.73,274.76c1.42,1.7,3.58,5.6,4.55,7.41.13.25.24.46.33.61.11.21.17.33.18.34.03.06.08.11.13.14-.03-.37-.06-.73-.09-1.1-.01-.18-.03-.36-.05-.54v-.03c-.2-.37-.44-.8-.7-1.27-1.1-1.98-2.66-4.65-3.81-6.02-.13-.15-.35-.17-.5-.04-.15.13-.17.35-.04.5Z"/>
            <path class="cls-9" d="m372.63,262.76s0,0,.01,0c6.06-.56,10.6-3.37,13.33-5.63,2.96-2.45,4.48-4.73,4.54-4.83.11-.16.06-.38-.1-.49-.16-.11-.38-.06-.49.1-.06.09-6.09,9.1-17.34,10.14-.2.02-.34.19-.32.39.02.19.18.33.37.32Z"/>
            <path class="cls-9" d="m398.83,322.77c.18-.01.33-.16.33-.35,0-.2-.16-.36-.35-.36-10.01-.05-16.26-4.74-19.74-8.67-3.78-4.27-5.22-8.59-5.23-8.63-.06-.19-.26-.29-.45-.23-.19.06-.29.26-.23.45.06.18,1.48,4.48,5.35,8.86,3.58,4.04,10,8.88,20.28,8.93,0,0,.02,0,.02,0Z"/>
            <path class="cls-9" d="m390.38,316.84c.16,0,.29-.12.33-.28.04-.19-.08-.38-.28-.42-8.8-1.82-10.91-8.95-10.93-9.02-.05-.19-.25-.3-.44-.25-.19.05-.3.25-.25.44.02.08.56,1.94,2.24,4.05,1.55,1.95,4.41,4.47,9.23,5.47.03,0,.06,0,.09,0Z"/>
          </g>
          <path class="cls-9" d="m367.36,275.73c-1.2,1.85-2.88,5.99-3.63,7.9-.1.26-.19.48-.25.65-.08.22-.13.35-.13.35-.05.14-.17.22-.31.23h0c0-.18-.01-.36-.02-.54-.1,0-.21.01-.31.02.04-.11.14-.37.28-.74.18-.46.43-1.1.72-1.83.85-2.1,2.08-4.94,3.05-6.43.11-.16.33-.21.49-.1.16.11.21.33.1.49Z"/>
          <g>
            <path class="cls-13" d="m370.58,230.2c.39,6.51,4.67,10.75,11.18,10.36,6.51-.39,10.75-5.49,10.36-11.99-.39-6.51-4.54-11.2-11.05-10.81-7.8.47-10.88,5.94-10.48,12.45Z"/>
            <g>
              <path class="cls-1" d="m372.21,232.91s-1.95-2.3-3.18-.23c-1.22,2.07,1.03,7.85,4.24,6.21l-1.06-5.98Z"/>
              <path class="cls-3" d="m372.44,237.12c-.12,0-.24-.07-.28-.19-.62-1.79-2.55-2.41-2.57-2.42-.15-.05-.23-.2-.18-.35.05-.15.2-.23.35-.18.09.03,2.21.71,2.93,2.77.05.15-.03.3-.17.35-.02,0-.05.01-.07.02Z"/>
              <path class="cls-3" d="m370.48,236.32c-.05,0-.1,0-.15-.04-.13-.08-.18-.25-.11-.38.01-.02.31-.55.99-.9.14-.07.3-.02.38.12.07.14.02.3-.12.38-.52.27-.76.68-.76.68-.05.09-.13.14-.23.14Z"/>
            </g>
            <g>
              <path class="cls-1" d="m390.84,231.79s1.66-2.52,3.13-.61c1.46,1.91-.08,7.91-3.46,6.68l.33-6.07Z"/>
              <path class="cls-3" d="m391.11,235.99c.12,0,.23-.09.26-.22.4-1.85,2.24-2.7,2.26-2.71.14-.06.2-.23.14-.37-.06-.14-.23-.2-.37-.14-.09.04-2.11.97-2.57,3.1-.03.15.06.3.21.33.03,0,.05,0,.08,0Z"/>
              <path class="cls-3" d="m392.96,234.96c.05,0,.1-.02.15-.05.12-.09.15-.27.06-.39-.02-.02-.38-.51-1.09-.78-.14-.05-.3.02-.36.16-.05.14.02.3.16.36.55.21.84.58.84.59.06.08.15.12.24.11Z"/>
            </g>
            <path class="cls-14" d="m386.64,243.1l.35,5.85s-1.57,3.09-3.91,3.43c-2.35.35-4.61-2.3-4.61-2.3l-.37-6.06,8.54-.93Z"/>
            <path class="cls-1" d="m386.64,243.1l.16,2.6c-1.48,1.85-4.27,2.46-8.47,2.1l-.23-3.77,8.54-.93Z"/>
            <path class="cls-14" d="m371.24,232.86c.04.34.09.68.15,1.02.14.87.31,1.76.53,2.64,0,.03.01.06.02.09,1.05,4.27,3.07,8.41,6.96,9.54,8.81,2.56,11.45-5.02,12.42-9.41.11-.49.2-1.03.27-1.6,0-.02,0-.05,0-.07.08-.65.14-1.33.19-2.04.03-.52.06-1.05.08-1.59.05-1.3.05-2.59.04-3.74-.03-2.63-1.75-4.95-4.26-5.74-3.62-1.15-9.06-1.9-13.98,1.29-1.82,1.18-2.88,3.23-2.79,5.39.05,1.19.16,2.66.37,4.22Z"/>
            <path class="cls-13" d="m378.13,233.02c.04.62-.25,1.15-.65,1.18-.4.02-.75-.46-.79-1.09-.04-.62.25-1.15.65-1.17s.75.46.79,1.09Z"/>
            <path class="cls-13" d="m386.95,232.49c.04.62-.25,1.15-.65,1.17-.4.02-.75-.46-.79-1.09-.04-.62.25-1.15.65-1.17.4-.02.75.46.79,1.09Z"/>
            <path class="cls-13" d="m387.96,228.56s-2.32-.76-4.03.1l.23.96s2.55-.37,3.88.07c.09-.38.09-.76-.08-1.14Z"/>
            <path class="cls-13" d="m374.5,229.38s2.22-1.03,4.01-.38l-.12.98s-2.58-.06-3.84.54c-.14-.37-.18-.74-.05-1.14Z"/>
            <path class="cls-1" d="m382.12,237.58c-.46.09-.95-.01-1.03-.03-.15-.03-.25-.18-.22-.33.03-.15.18-.25.33-.22.27.05.89.1,1.12-.1.04-.04.1-.11.09-.28-.08-.98-.93-4.13-.94-4.17-.04-.15.05-.3.2-.34.15-.04.3.05.34.2.04.13.87,3.24.96,4.27.03.39-.13.62-.28.74-.16.14-.36.21-.57.25Z"/>
            <path class="cls-11" d="m378.42,239.48c.3,1.13,1.18,3.19,3.72,3.03,2.55-.15,3.15-2.12,3.32-3.46l-7.04.43Z"/>
            <path class="cls-13" d="m391.85,231.78l-1.26.08c.06-1.27-.49-2.78-.93-3.77-1-2.26.77-3.39-.78-4.46-1.55-1.07-5.21-.35-7.78-.28-2.59.07-6.73.36-7.73.65-1,.29-.34,1.93.11,3.21.45,1.27-1.07,2.81-1.26,4.17-.05.39,0,.96.1,1.58l-1.05.06c-.22-1.63-.33-3.15-.39-4.38-.09-2.16.97-4.21,2.79-5.39,4.92-3.19,10.36-2.44,13.98-1.3,2.51.79,4.23,3.11,4.26,5.74.02,1.25,0,2.67-.05,4.08Z"/>
            <g>
              <path class="cls-11" d="m382.95,233.17c-.11-1.83,1.29-3.4,3.11-3.51,1.83-.11,3.4,1.29,3.51,3.11.11,1.83-1.29,3.4-3.11,3.51-1.83.11-3.4-1.29-3.51-3.11Zm.52-.03c.09,1.54,1.42,2.72,2.97,2.63s2.72-1.42,2.63-2.97c-.09-1.54-1.42-2.72-2.97-2.63-1.54.09-2.72,1.42-2.63,2.97Z"/>
              <path class="cls-11" d="m373.89,233.72c-.11-1.83,1.29-3.4,3.11-3.51,1.83-.11,3.4,1.29,3.51,3.11.11,1.83-1.29,3.4-3.11,3.51-1.83.11-3.4-1.29-3.51-3.11Zm.52-.03c.09,1.54,1.42,2.72,2.97,2.63,1.54-.09,2.72-1.42,2.63-2.97-.09-1.54-1.42-2.72-2.97-2.63-1.54.09-2.72,1.42-2.63,2.97Z"/>
              <path class="cls-11" d="m388.95,231.74c.07,0,.13-.03.18-.09h0s1.43-1.57,3.43-1.23c.14.02.27-.07.3-.21.02-.14-.07-.27-.21-.3-2.29-.39-3.84,1.32-3.91,1.39-.09.11-.09.27.02.37.05.05.12.07.19.07Z"/>
              <path class="cls-11" d="m374.33,232.62c.08,0,.16-.05.21-.13.07-.12.03-.28-.1-.35-.1-.06-2.54-1.43-4.51-.98-.14.03-.23.17-.19.31.03.14.17.23.31.19,1.78-.4,4.12.91,4.14.93.05.03.09.04.14.03Z"/>
              <path class="cls-11" d="m380.29,232.58s.57-.88,1.38-.92c.8-.05,1.4.75,1.41.75l.42-.31s-.77-1.03-1.86-.96c-1.07.06-1.75,1.12-1.78,1.16l.44.28Z"/>
            </g>
          </g>
          <g>
            <path class="cls-14" d="m366.19,327.03l-2.93,4s-1.7-1.06-4-2.91t-.01-.01c-3.51-2.8-8.42-7.42-10.93-12.84-3.14-6.78-2.22-12.27-2.22-12.27.41-4.02,3.11-12.19,5.25-18.26.78-2.2,1.5-4.12,2-5.47l6.55,1.5,2.8,1.73-1.08,2.84-7.23,19.18c.63,5.63,3.49,11.16,6.23,15.32,2.84,4.32,5.56,7.19,5.56,7.19Z"/>
            <path class="cls-1" d="m366.19,327.03l-2.93,4s-1.7-1.06-4-2.91t-.01-.01c-.51-3.02-.2-7.29,1.38-8.26,2.84,4.32,5.56,7.19,5.56,7.19Z"/>
            <path class="cls-14" d="m364.62,322.42c.59.04,3.73.19,3.39-.88-.37-1.19-3.46-2.58-3.46-2.58,0,0-.02-.06.01-.14l-.03-.25-.14-2.55c-.6,0-1.14.12-1.44.21-1.35.42-1.17,3.51-1.17,3.51,0,0-1.71.61-1.64,1.86.06,1.25,1.44,1.44,1.44,1.44,0,0-1.88.94-1.44,2,.44,1.06,1.86,1.37,1.86,1.37,0,0-1.61,1.06-1.05,1.81.56.75,1.87,1.12,1.87,1.12,0,0-1.12,1.52.02,2.35,1.14.83,2.82.65,3.9.27,1.08-.37.89-1.75-1.23-2.75,0,0,1.87.19,2.81-1.37.78-1.3-1.21-1.86-2.91-2.09,1.34.09,3.64.05,4.04-1.22.52-1.67-4.11-2.07-4.83-2.12Z"/>
            <path class="cls-1" d="m362.7,282.5l-1.08,2.84c-2.17.14-6.07.2-10.27-.61.78-2.2,1.5-4.12,2-5.47l6.55,1.5,2.8,1.73Z"/>
            <path class="cls-8" d="m363.6,259.36s-7.98,8-13.8,21.96c4.56,1.48,8.88,2.52,12.9,3.02.53-.93,2.62-6.9,4.2-11.2l-3.3-13.77Z"/>
          </g>
        </g>
        <g>
          <g>
            <g>
              <path class="cls-14" d="m426.25,304.74s-.08.05-.13.08c-2.37,1.54-5.55.61-6.7-1.98l-6.56-12.19-2.03-4.19-1.29-2.67-1.17-2.41-1.06-2.2c-.14-.7-.28-1.44-.41-2.21l3.26-8.47,1.47-1.06s1.79,3.84,4.24,8.56c.37.72.76,1.46,1.16,2.21.2.38.41.77.62,1.15.49.9.99,1.81,1.5,2.7.54.94,1.07,1.87,1.58,2.78.36.64.72,1.26,1.06,1.87.21.36.41.73.61,1.07,1.62,2.85,2.89,5.12,3.37,6.02l.84-.06s3.72,8.25-.36,10.99Z"/>
              <path class="cls-1" d="m417.64,279.36l-6.81,7.09-1.29-2.67-1.17-2.41,7.49-5.38c.37.72.76,1.46,1.16,2.21.2.38.41.77.62,1.15Z"/>
              <path class="cls-14" d="m422.33,297.42s-.87-9.91.91-12.31c1.78-2.4,3.57-3.49,5.55-3.71,1.98-.22,3.86-.26,3.86.57,0,0,4.41-1.36,6.6-.49,2.19.87-5.64,3.09-8,3.51-2.36.42-3.41,1.93-3.3,3.36.12,1.43.16,10.99.16,10.99l-5.78-1.91Z"/>
              <path class="cls-1" d="m421.67,297.31s.03,0,.05,0c.17-.02.3-.17.3-.34.03-4.18.19-7.36.34-9.23-.2-.35-.35-.7-.55-1.06-.16,1.66-.46,5.22-.49,10.29,0,.19.15.35.35.35Z"/>
            </g>
            <g>
              <path class="cls-5" d="m417.99,284.82l29.94-4.3c1.13-.16,1.91-1.21,1.75-2.33v-.02c-.16-1.13-1.21-1.91-2.33-1.75l-29.94,4.3c-1.13.16-1.91,1.21-1.75,2.33v.02c.16,1.13,1.21,1.91,2.33,1.75Z"/>
              <path class="cls-4" d="m449.96,280.22l2.96-24.87c.17-1.4-1.04-2.57-2.43-2.37l-14.07,2.02c-.95.14-1.69.89-1.82,1.84l-3.44,26.08,18.8-2.7Z"/>
              <path class="cls-5" d="m434.6,256.85l-3.41,25.86-1.61.23,3.41-25.86c.13-.95.87-1.7,1.82-1.84l1.61-.23c-.95.14-1.69.89-1.82,1.84Z"/>
              <path class="cls-6" d="m440.06,269.16c-.14,1.63,1.03,2.77,2.61,2.54,1.58-.23,2.97-1.73,3.11-3.37.14-1.63-1.03-2.77-2.61-2.54-1.58.23-2.97,1.73-3.11,3.37Z"/>
            </g>
          </g>
          <path class="cls-8" d="m418.76,276.91l-1.74,1.3-7.48,5.58-.91.68c-.44-1.2-.88-3.07-1.32-5.28-.14-.7-.28-1.44-.41-2.21-1.51-8.51-2.78-20.04-2.78-20.04,0,0,6.94,6.51,14.65,19.98Z"/>
        </g>
      </g>
    </g>
    <g>
      <ellipse class="cls-7" cx="195.63" cy="437.95" rx="38.86" ry="4"/>
      <g>
        <g>
          <polygon class="cls-14" points="176.62 424.05 176.62 431.23 181.76 431.12 182.09 423.52 176.62 424.05"/>
          <g>
            <path class="cls-9" d="m178.02,430.58s-1.17-1.65-2.13-1.6c-.96.05-8.47,5.75-11.01,6.18-2.54.43-2.09,2.3-1.65,3.26.44.96,20.19.09,20.19.09,0,0,.67-5.86.07-7.67-.6-1.81-3.5.2-5.47-.27Z"/>
            <g>
              <path class="cls-11" d="m173.84,434.58c.09.03.19.02.28-.03.17-.09.24-.31.14-.48-.03-.06-.77-1.42-1.8-1.96-1.37-.73-2.46.03-2.51.06-.16.11-.2.33-.08.49.11.16.33.2.49.08.03-.02.79-.53,1.77-.01.84.45,1.5,1.66,1.51,1.68.05.08.12.14.2.17Z"/>
              <path class="cls-11" d="m174.92,433.61c.09.03.19.02.28-.03.17-.09.24-.31.14-.48-.03-.06-.77-1.42-1.8-1.96-1.37-.73-2.46.03-2.51.06-.16.11-.2.33-.08.49.11.16.33.2.49.08.03-.02.79-.53,1.77-.01.84.45,1.5,1.66,1.51,1.68.04.08.12.14.2.17Z"/>
              <path class="cls-11" d="m172.39,435.36c.09.03.19.02.28-.03.17-.09.24-.31.14-.48-.03-.06-.77-1.42-1.8-1.96-1.37-.73-2.46.03-2.51.06-.16.11-.2.33-.08.49.11.16.33.2.49.08.03-.02.79-.53,1.77-.01.84.45,1.5,1.66,1.51,1.68.04.08.12.14.2.17Z"/>
            </g>
          </g>
        </g>
        <path class="cls-4" d="m175.57,425.36l5.23-.44.62-.05,1.27-.11s1.72-38.82,2.33-49.15c.52-8.98,3.81-29.14,5.97-41.68.61-3.56,1.13-6.51,1.48-8.41.26-1.5.42-2.35.42-2.35l-17.62-2.32s-.03.49-.08,1.36c-.1,1.8-.3,5.24-.53,9.56-.64,11.77-1.6,30.09-1.88,39.41-.73,24.01,2.8,54.18,2.8,54.18Z"/>
        <path class="cls-5" d="m174.66,331.77l16.33,2.15c.61-3.56,1.13-6.51,1.48-8.41l-17.28-3.3c-.1,1.8-.3,5.24-.53,9.56Z"/>
        <path class="cls-5" d="m180.8,424.92l.62-.05c-.16-12.01-.39-42,1.02-54.7,1.77-16.01,6.36-39.3,6.41-39.54l-.61-.23c-.05.24-4.65,23.57-6.42,39.62-1.42,12.78-1.19,42.92-1.03,54.9Z"/>
      </g>
      <g>
        <g>
          <polygon class="cls-14" points="217.94 421.75 220.03 428.61 224.91 427.02 223.01 419.65 217.94 421.75"/>
          <g>
            <path class="cls-9" d="m221.41,427.6s-1.67-1.13-2.55-.75c-.88.38-5.92,8.36-8.15,9.65-2.23,1.29-1.15,2.89-.4,3.63.75.75,18.94-6.98,18.94-6.98,0,0-1.42-5.72-2.62-7.2-1.2-1.48-3.21,1.41-5.22,1.66Z"/>
            <g>
              <path class="cls-11" d="m218.91,432.81c.09,0,.18-.05.25-.12.13-.15.11-.37-.03-.5-.05-.04-1.22-1.06-2.38-1.21-1.54-.2-2.3.89-2.33.94-.11.16-.07.38.09.49.16.11.38.07.49-.09.02-.03.56-.78,1.65-.63.94.12,1.99,1.03,2,1.04.07.06.16.09.25.09Z"/>
              <path class="cls-11" d="m219.58,431.52c.09,0,.18-.04.25-.12.13-.15.11-.37-.03-.5-.05-.04-1.22-1.06-2.38-1.21-1.54-.2-2.3.89-2.33.94-.11.16-.07.38.09.49.16.11.38.07.49-.09.02-.03.56-.78,1.65-.63.94.13,1.99,1.03,2,1.04.07.06.16.09.25.09Z"/>
              <path class="cls-11" d="m217.82,434.05c.09,0,.18-.04.25-.12.13-.15.11-.37-.03-.5-.05-.04-1.22-1.06-2.38-1.21-1.54-.2-2.3.89-2.33.94-.11.16-.07.38.09.49.16.11.38.07.49-.09.02-.03.56-.78,1.65-.63.94.13,1.99,1.03,2,1.04.07.06.16.09.25.09Z"/>
            </g>
          </g>
        </g>
        <path class="cls-4" d="m217.41,423.25l4.91-1.84.59-.22,1.19-.45s-8.82-37.84-11.03-47.96c-1.92-8.79-4.19-29.09-5.5-41.75-.37-3.59-.67-6.57-.85-8.5-.15-1.51-.23-2.37-.23-2.37l-17.59,2.52s.1.48.29,1.33c.39,1.76,1.13,5.12,2.07,9.35,2.56,11.51,6.58,29.4,8.82,38.46,5.78,23.32,17.32,51.41,17.32,51.41Z"/>
        <path class="cls-5" d="m191.27,333.38l16.3-2.34c-.37-3.59-.67-6.57-.85-8.5l-17.53,1.49c.39,1.76,1.13,5.12,2.07,9.35Z"/>
        <path class="cls-5" d="m222.32,421.41l.59-.22c-3.39-11.52-11.71-40.34-13.78-52.95-2.62-15.89-4.48-39.56-4.5-39.8l-.65-.06c.02.24,1.89,23.95,4.51,39.88,2.08,12.69,10.43,41.65,13.82,53.14Z"/>
      </g>
      <path class="cls-9" d="m185.8,279.57c-4.83,7.86-18.53,15.16-18.53,15.16-5.21-.85-8.55-2.24-11.88-3.88.85-2.35,1.16-4.7,1.55-7.77,4.85,1.11,9.02,1.62,9.02,1.62,9.89-5.16,20.67-29.23,20.67-29.23,3.59,6.58-.83,24.09-.83,24.09Z"/>
      <g>
        <path class="cls-13" d="m187.38,248.42c-.01.98-.05,2.09-.1,3.27,1.49.39,3.02.64,4.52.9,4.15.71,8.39,1.01,12.58.45,3.07-.41,6.13-1.15,8.69-2.97,1.15-.82,2.11-1.82,2.9-2.95-.66-1.22-1.33-2.81-1.44-6.64-.1-3.45-.28-8.22-.28-8.22-.51-10.34-10.93-12.24-10.93-12.24-12.54-2.54-16.85,7.88-17.19,13.72-.02.4-.03.8-.03,1.21v.03c-.16,2.43,1.34,8.61,1.28,13.43Z"/>
        <g>
          <path class="cls-8" d="m214.21,259.4s-.54,6.75-1.7,13.23c-.41,2.31-.9,4.58-1.47,6.51-.34,1.16-.7,2.44-1.04,3.81-1.57,6.18-3.04,14.22-3.22,21.07-.03,1.29-.02,2.53.05,3.71.51,8.87,3.74,16.63.83,19.73,0,0-24.37,5.61-34.19-2.69-.81-.69-1.15-1.77-.83-2.79,1.39-4.36,5.46-17.19,7.22-23.87,1.51-5.72,2.47-9.96,2.48-13.42,0-.29,0-.58-.02-.86-.05-1.12-.21-2.17-.5-3.16-1.22-4.18-1.47-5.7.15-8.69.35-.64.76-1.78,1.2-3.15,1.59-5.02,3.46-13.35,3.46-13.35l1.88-.44,2.83-.66,1.71-.4,8.61-.74s1.49.67,3.5,1.61c1.13.53,2.42,1.14,3.7,1.76,2.06,1,4.09,2.04,5.34,2.79Z"/>
          <path class="cls-9" d="m212.51,272.63c-.41,2.31-.9,4.58-1.47,6.51-.34,1.16-.7,2.44-1.04,3.81-1.57,6.18-3.04,14.22-3.22,21.07l-8.8-4.39,7.57-8.16,1.94-20.95,5.03,2.12Z"/>
          <g>
            <path class="cls-9" d="m182.32,283.83c.01.28.02.57.02.86,4,3.87,10.98,9.26,19.32,9.81.16.01.31-.11.32-.28.01-.16-.11-.31-.28-.32-8.47-.57-15.53-6.24-19.38-10.07Z"/>
            <path class="cls-9" d="m191.81,270.75c4.23.28,8.44-3.96,8.63-4.14.12-.12.11-.31,0-.42-.12-.12-.31-.11-.42,0-.04.04-4.45,4.49-8.52,3.93-.16-.02-.31.09-.34.26-.02.16.09.31.26.34.13.02.27.03.41.04Z"/>
            <path class="cls-9" d="m198.85,314.25c.15,0,.29-.09.31-.24.03-.16-.08-.32-.24-.35-10.86-1.99-14.12-21.23-14.15-21.42-.03-.16-.18-.27-.34-.25-.16.03-.27.18-.25.34.13.81,3.37,19.85,14.64,21.92.01,0,.02,0,.03,0Z"/>
            <path class="cls-9" d="m194.87,308.23c.1,0,.2-.04.26-.12.1-.13.06-.32-.07-.42-5.58-3.98-6.09-9.32-6.1-9.38-.01-.16-.16-.29-.32-.27-.16.01-.29.16-.27.32.02.23.53,5.67,6.34,9.81.05.03.1.05.15.05Z"/>
          </g>
        </g>
        <g>
          <g>
            <g>
              <path class="cls-1" d="m190.35,235.94s-1.65-2.41-3.12-.61c-1.47,1.8.06,7.52,3.44,6.38l-.31-5.77Z"/>
              <path class="cls-2" d="m189.21,241.23c-.02.33-.31.58-.64.56-.33-.02-.58-.31-.56-.64.02-.33.31-.58.64-.56.33.02.58.31.56.64Z"/>
              <path class="cls-3" d="m190.06,239.94c-.12,0-.23-.09-.25-.21-.39-1.76-2.23-2.59-2.25-2.59-.14-.06-.2-.22-.14-.35.06-.13.23-.19.37-.13.09.04,2.11.94,2.56,2.97.03.14-.06.28-.21.31-.03,0-.05,0-.08,0Z"/>
              <path class="cls-3" d="m188.22,238.94c-.05,0-.1-.02-.15-.05-.12-.09-.15-.25-.06-.37.02-.02.38-.48,1.1-.73.14-.05.3.02.36.16.05.14-.02.29-.16.34-.55.19-.84.55-.84.55-.06.07-.15.11-.24.11Z"/>
            </g>
            <path class="cls-14" d="m203.5,248.57l-.41,6.17s-3.4,2.94-5.9,2.99c-2.5.05-3.16-2.94-3.16-2.94l.43-6.39,9.05.17Z"/>
            <path class="cls-1" d="m203.46,249.24l-.18,2.74c-1.79,1.74-4.8,2.2-9.14,1.26l.28-4.16,9.05.17Z"/>
            <path class="cls-14" d="m189.09,238.48c.03.67.08,1.35.16,2.03.49,4.51,2.99,9.52,6.5,10.57,7.58,2.26,11.18-3.57,12.7-7.95.17-.49-.05-1.07.1-1.65.35-1.37,1.01-2.91,1.25-4.46.16-1.07.29-2.13.4-3.09.31-2.7-1.1-5.3-3.49-6.44-3.44-1.64-8.74-3.12-14.03-.47-1.95.98-3.27,2.94-3.46,5.17-.14,1.7-.25,3.94-.14,6.29Z"/>
            <path class="cls-1" d="m198.25,242.56c.14,0,.28-.09.31-.23.04-.16-.06-.32-.22-.36l-1.01-.24,1.67-3.67c.07-.15,0-.33-.15-.4-.15-.07-.33,0-.4.15l-1.97,4.33,1.72.41s.03,0,.05,0Z"/>
            <path class="cls-13" d="m192.55,231.16c-3.1,1.17-2.38,4.81-3.52,6.53-.07.11-.14.13-.21.06-.13-2.4-.02-4.68.13-6.41.2-2.27,1.58-4.27,3.63-5.26,5.57-2.68,11.15-1.17,14.79.51,2.52,1.16,4.01,3.82,3.69,6.57-.11.98-.25,2.06-.42,3.15-.52.26-1.75.32-1.85,1.12-.28,2.11-.48,3.56-.91,3.4-.73-.27-1.02-2.87-.06-4.47,0,0-.61-1.16-3.34-2.43-3.5-1.63-6.83-3.91-6.83-3.91,0,0-1.31-.91-1.77-1.84,0,0-.97,2.09-3.33,2.98Z"/>
            <path class="cls-13" d="m195.08,237.34c-.04.66-.42,1.17-.84,1.14-.42-.03-.72-.58-.68-1.24.04-.66.42-1.17.84-1.14.42.03.72.58.68,1.24Z"/>
            <path class="cls-13" d="m203.27,237.89c-.04.66-.42,1.17-.84,1.14-.42-.03-.72-.58-.68-1.24.04-.66.42-1.17.84-1.14.42.03.72.58.68,1.24Z"/>
            <path class="cls-13" d="m192.49,234.03c.62-.08,1.86-.19,3.17-.06.34.04.6.31.54.59h0c-.05.22-.3.36-.57.32-.89-.13-3.23-.27-4.34-.02-.02-.16.1-.32.26-.46.25-.21.58-.32.95-.37Z"/>
            <path class="cls-13" d="m204.67,234.98c-.6-.17-1.81-.46-3.13-.52-.35-.02-.64.22-.62.5h0c.02.23.24.4.52.4.9,0,3.24.21,4.3.62.04-.16-.05-.33-.19-.49-.21-.24-.53-.41-.88-.5Z"/>
            <path class="cls-2" d="m194.82,244.11c.15,1.06.76,3.04,3.24,3.21,2.49.17,3.3-1.55,3.62-2.75l-6.86-.46Z"/>
            <path class="cls-1" d="m197.9,249.12c-.72-.05-1.32-.48-1.35-.49-.13-.09-.16-.28-.07-.41.09-.13.28-.16.41-.07h0s.5.35,1.05.39c.59.04,1.14-.24,1.15-.24.14-.07.32-.02.4.13.07.14.02.32-.13.4-.03.01-.7.36-1.46.31Z"/>
          </g>
          <g>
            <path class="cls-14" d="m208.88,237.16s2.27-2.41,3.39-.49c1.12,1.92-1,7.24-3.95,5.71l.56-5.22Z"/>
            <path class="cls-2" d="m210.23,242.63c-.02.33-.31.58-.64.56s-.58-.31-.56-.64c.02-.33.31-.58.64-.56.33.02.58.31.56.64Z"/>
            <path class="cls-1" d="m209.1,240.75c.11,0,.22-.06.26-.17.58-1.65,2.36-2.21,2.38-2.21.14-.04.21-.19.17-.32-.04-.14-.18-.21-.32-.17-.08.03-2.05.64-2.72,2.53-.05.13.02.28.16.33.02,0,.05.01.07.01Z"/>
            <path class="cls-1" d="m210.91,240.02s.1,0,.14-.03c.12-.07.17-.23.1-.35-.01-.02-.29-.51-.91-.84-.12-.07-.28-.02-.35.11-.07.13-.02.28.11.35.48.26.7.63.7.64.04.08.12.13.21.13Z"/>
          </g>
        </g>
      </g>
      <g>
        <rect class="cls-15" x="150.19" y="266.45" width="53.59" height="53.59" rx="6.94" ry="6.94"/>
        <rect class="cls-9" x="147.86" y="266.45" width="53.59" height="53.59" rx="6.94" ry="6.94"/>
        <g>
          <path class="cls-2" d="m189.9,278.78c-3.48-3.52-9.18-3.56-12.7-.07l-3.51,3.47c-1.12,1.1-.48,3.01,1.08,3.22.02,0,.03,0,.05,0,.58.08,1.16-.12,1.58-.53l3.49-3.45c2.02-2,5.3-1.99,7.31.04,2,2.03,1.99,5.3-.04,7.31l-6.9,6.82c-2.03,2-5.3,1.98-7.31-.05-.08-.08-.16-.17-.24-.26-.61-.71-1.63-.91-2.43-.43h-.02s-.04.03-.04.03c-.99.6-1.21,1.94-.46,2.82.15.18.3.35.47.51,3.48,3.52,9.18,3.56,12.7.07l6.9-6.82c3.52-3.48,3.55-9.18.07-12.71Z"/>
          <path class="cls-2" d="m171.44,303.64l-3.02,2.98c-2.06,2.03-5.47,2.08-7.46-.01-1.94-2.03-1.9-5.26.1-7.24l6.9-6.82c2.02-2,5.3-1.98,7.31.04.35.35.63.74.86,1.15.48.87,1.57,1.21,2.46.77.01,0,.02-.01.04-.02.98-.48,1.35-1.67.82-2.63-.39-.7-.88-1.36-1.47-1.96-3.48-3.52-9.18-3.55-12.7-.07l-6.9,6.82c-3.52,3.48-3.56,9.18-.07,12.7,3.48,3.52,9.18,3.56,12.7.07l3.12-3.08c1.16-1.14.43-3.12-1.2-3.23h-.05c-.53-.04-1.06.15-1.44.53Z"/>
        </g>
      </g>
      <path class="cls-14" d="m145.43,283.79s3.28.29,4.33,1.42c1.05,1.13-3.44,1.44-3.44,1.44,0,0,5.42-.33,5.75.95s-4.93,1.75-4.93,1.75c0,0,3.71.34,4.06,1.29.35.96-3.48,1.46-3.48,1.46,0,0,2.91.56,3.26,1.26.34.7-2.83,1.5-4.54,1.32-1.7-.18-.99-2.37-.99-2.37,0,0-.83-1.86-.26-2.62,0,0-1-1.63-.65-2.67,0,0-1.22-2.72.89-3.24Z"/>
      <path class="cls-14" d="m182.04,313.99l-1.23.52c-1.1.46-2.21.16-3.11-.61-.4-.34-1.03-1.01-1.35-1.2-.9-.53-3.01-1.16-3.61-.95-.61.21-.04,1.26.58,1.56.62.31,1.53.64,2.17,1.17.64.53-2.02,3.26-3.19,4.13-1.18.87-3.78,1.13-3.54,2.31.23,1.18,2.03.62,2.03.62,0,0-.09,1.19,1.68,1.4,0,0,.15,1.07,1.29,1.19,0,0,.4,1.26,1.61,1.13,1.21-.13,4.98-.57,9.89-7.33l-3.2-3.94Z"/>
      <path class="cls-8" d="m214.21,259.4s3.13,26.41.6,36.24c-2.53,9.82-29.39,23.3-29.39,23.3l-3.97-4.7s20.45-15.1,25.05-21.84l.65-20.39s.79-6.41,7.05-12.6Z"/>
    </g>
    <g>
      <path class="cls-7" d="m323.66,438.76c0,2.21-15.77,4-35.21,4s-35.21-1.79-35.21-4,15.77-4,35.21-4,35.21,1.79,35.21,4Z"/>
      <g>
        <g>
          <g>
            <path class="cls-4" d="m266.04,328.39h44.79c3.44,0,6.24,2.79,6.24,6.24v97.9c0,3.44-2.79,6.23-6.23,6.23h-44.8c-3.44,0-6.23-2.79-6.23-6.23v-97.9c0-3.44,2.79-6.23,6.23-6.23Z"/>
            <path class="cls-5" d="m317.07,383.48v49.04c0,3.44-2.79,6.24-6.23,6.24h-44.8c-3.44,0-6.23-2.79-6.23-6.24v-49.04h57.26Z"/>
            <path class="cls-12" d="m312.01,345.33v76.27c0,1.45-1.19,2.65-2.65,2.65h-41.83c-.56,0-1.07-.18-1.5-.46-.7-.48-1.16-1.28-1.16-2.18v-76.27c0-1.69,1.37-3.07,3.07-3.07h40.99c1.7,0,3.07,1.38,3.07,3.07Z"/>
          </g>
          <path class="cls-7" d="m312.01,345.33v4.08h-47.13v-4.08c0-1.69,1.37-3.07,3.07-3.07h40.99c1.7,0,3.07,1.38,3.07,3.07Z"/>
          <path class="cls-12" d="m301.28,347.04h-25.69c-.66,0-1.21-.54-1.21-1.21h0c0-.66.54-1.21,1.21-1.21h25.69c.66,0,1.21.54,1.21,1.21h0c0,.66-.54,1.21-1.21,1.21Z"/>
          <circle class="cls-6" cx="288.44" cy="430.6" r="3.15"/>
          <path class="cls-6" d="m302.13,337.63h-25.95c-.85,0-1.54-.7-1.54-1.54h0c0-.85.7-1.54,1.54-1.54h25.95c.85,0,1.54.7,1.54,1.54h0c0,.85-.7,1.54-1.54,1.54Z"/>
        </g>
        <g>
          <g>
            <path class="cls-7" d="m271.83,353.83h33.22c2.14,0,3.88,1.74,3.88,3.88v57.8c0,2.14-1.74,3.88-3.88,3.88h-33.22c-2.14,0-3.88-1.74-3.88-3.88v-57.8c0-2.14,1.74-3.88,3.88-3.88Z"/>
            <path class="cls-10" d="m308.93,357.72v2.58h-40.98v-2.58c0-2.14,1.74-3.88,3.88-3.88h33.22c2.14,0,3.88,1.74,3.88,3.88Z"/>
          </g>
          <g>
            <rect class="cls-9" x="272.48" y="376.71" width="31.91" height="22.84"/>
            <polygon class="cls-5" points="304.4 393.51 302.85 390.89 297.71 382.24 287.43 399.55 304.4 399.55 304.4 393.51"/>
            <polygon class="cls-4" points="285.3 399.55 272.48 399.55 278.89 389.22 285.3 378.9 291.71 389.22 298.11 399.55 285.3 399.55"/>
            <polygon class="cls-2" points="281.14 385.59 285.3 388.7 289.45 385.59 285.3 378.9 281.14 385.59"/>
            <polygon class="cls-2" points="294.21 388.13 297.71 390.89 301.2 388.13 297.71 382.24 294.21 388.13"/>
          </g>
          <rect class="cls-10" x="272.48" y="364.79" width="31.91" height="2.66" rx="1.24" ry="1.24"/>
          <path class="cls-10" d="m273.73,369.43h29.43c.69,0,1.24.56,1.24,1.24v.18c0,.69-.56,1.24-1.24,1.24h-29.43c-.69,0-1.24-.56-1.24-1.24v-.18c0-.69.56-1.24,1.24-1.24Z"/>
          <rect class="cls-10" x="272.48" y="403.81" width="31.91" height="2.66" rx="1.24" ry="1.24"/>
          <path class="cls-10" d="m273.73,408.46h29.43c.69,0,1.24.56,1.24,1.24v.18c0,.69-.56,1.24-1.24,1.24h-29.43c-.69,0-1.24-.56-1.24-1.24v-.18c0-.69.56-1.24,1.24-1.24Z"/>
        </g>
      </g>
    </g>
    <g>
      <g>
        <g>
          <path class="cls-9" d="m60.1,105.33c-.18,0-.35-.03-.53-.03v6.26h5.14c-1.57-3.48-3.87-5.61-4.61-6.24Z"/>
          <path class="cls-9" d="m59.57,124.21h5.86c.48-1.59.75-3.32.78-5.14h-6.64v5.14Z"/>
          <path class="cls-9" d="m62.84,129.31c.9-1.16,1.63-2.47,2.19-3.92h-5.45v6.88c.45-.26,1.85-1.18,3.27-2.97Z"/>
          <path class="cls-9" d="m62.16,105.66c.66.7,1.28,1.47,1.85,2.29.79,1.12,1.46,2.34,1.98,3.61h4.38c-1.88-2.96-4.85-5.08-8.22-5.9Z"/>
          <path class="cls-9" d="m71.06,112.74h-4.62c.57,1.67.89,3.4.95,5.15h5.08c-.12-1.8-.6-3.53-1.4-5.15Z"/>
          <path class="cls-9" d="m65.19,112.74h-5.62v5.15h6.64c-.07-1.76-.41-3.49-1.02-5.15Z"/>
          <path class="cls-9" d="m66.29,125.4c-.61,1.74-1.48,3.31-2.56,4.68-.54.69-1.13,1.33-1.77,1.89,3.73-.84,6.9-3.21,8.79-6.57h-4.47Z"/>
          <path class="cls-9" d="m72.49,119.07h-5.09c-.04,1.8-.29,3.53-.74,5.14h4.69c.72-1.62,1.11-3.35,1.14-5.14Z"/>
          <path class="cls-9" d="m45.51,117.89h5.21c.06-1.75.38-3.48.95-5.15h-4.75c-.82,1.62-1.29,3.35-1.4,5.15Z"/>
          <path class="cls-9" d="m56.18,132c-.65-.57-1.26-1.21-1.81-1.92-1.08-1.37-1.94-2.94-2.56-4.68h-4.61c1.91,3.37,5.22,5.8,8.97,6.6Z"/>
          <path class="cls-9" d="m51.45,124.21c-.45-1.61-.7-3.34-.74-5.14h-5.23c.04,1.78.41,3.51,1.13,5.14h4.83Z"/>
          <path class="cls-9" d="m55.04,108.66c-.63.91-1.19,1.89-1.64,2.91h5v-6.26c-.12,0-.25,0-.38.02-.51.43-1.74,1.55-2.98,3.34Z"/>
          <path class="cls-9" d="m58.4,119.07h-6.5c.04,1.82.3,3.55.78,5.14h5.72v-5.14Z"/>
          <path class="cls-9" d="m58.4,132.2v-6.81h-5.31c1.62,4.23,4.42,6.24,5.31,6.81Z"/>
          <path class="cls-9" d="m55.99,105.62c-3.45.79-6.48,2.93-8.4,5.95h4.52c.53-1.26,1.19-2.49,1.98-3.61.58-.83,1.21-1.62,1.9-2.34Z"/>
          <path class="cls-9" d="m58.4,112.74h-5.48c-.61,1.67-.95,3.39-1.02,5.15h6.5v-5.15Z"/>
        </g>
        <g>
          <path class="cls-10" d="m37.78,139.31h-1.47c-.38,0-.69-.31-.69-.69v-1.47c0-.38.31-.69.69-.69s.69.31.69.69v.78h.78c.38,0,.69.31.69.69s-.31.69-.69.69Z"/>
          <path class="cls-10" d="m77.45,139.31h-2.92c-.38,0-.69-.31-.69-.69s.31-.69.69-.69h2.92c.38,0,.69.31.69.69s-.31.69-.69.69Zm-5.67,0h-2.92c-.38,0-.69-.31-.69-.69s.31-.69.69-.69h2.92c.38,0,.69.31.69.69s-.31.69-.69.69Zm-5.67,0h-2.92c-.38,0-.69-.31-.69-.69s.31-.69.69-.69h2.92c.38,0,.69.31.69.69s-.31.69-.69.69Zm-5.67,0h-2.92c-.38,0-.69-.31-.69-.69s.31-.69.69-.69h2.92c.38,0,.69.31.69.69s-.31.69-.69.69Zm-5.67,0h-2.92c-.38,0-.69-.31-.69-.69s.31-.69.69-.69h2.92c.38,0,.69.31.69.69s-.31.69-.69.69Zm-5.67,0h-2.92c-.38,0-.69-.31-.69-.69s.31-.69.69-.69h2.92c.38,0,.69.31.69.69s-.31.69-.69.69Zm-5.67,0h-2.92c-.38,0-.69-.31-.69-.69s.31-.69.69-.69h2.92c.38,0,.69.31.69.69s-.31.69-.69.69Z"/>
          <path class="cls-10" d="m81.67,139.31h-1.47c-.38,0-.69-.31-.69-.69s.31-.69.69-.69h.78v-.78c0-.38.31-.69.69-.69s.69.31.69.69v1.47c0,.38-.31.69-.69.69Z"/>
          <path class="cls-10" d="m81.67,135.2c-.38,0-.69-.31-.69-.69v-2.81c0-.38.31-.69.69-.69s.69.31.69.69v2.81c0,.38-.31.69-.69.69Zm0-5.45c-.38,0-.69-.31-.69-.69v-2.81c0-.38.31-.69.69-.69s.69.31.69.69v2.81c0,.38-.31.69-.69.69Zm0-5.45c-.38,0-.69-.31-.69-.69v-2.81c0-.38.31-.69.69-.69s.69.31.69.69v2.81c0,.38-.31.69-.69.69Zm0-5.45c-.38,0-.69-.31-.69-.69v-2.81c0-.38.31-.69.69-.69s.69.31.69.69v2.81c0,.38-.31.69-.69.69Zm0-5.45c-.38,0-.69-.31-.69-.69v-2.81c0-.38.31-.69.69-.69s.69.31.69.69v2.81c0,.38-.31.69-.69.69Zm0-5.45c-.38,0-.69-.31-.69-.69v-2.81c0-.38.31-.69.69-.69s.69.31.69.69v2.81c0,.38-.31.69-.69.69Z"/>
          <path class="cls-10" d="m81.67,102.5c-.38,0-.69-.31-.69-.69v-.78h-.78c-.38,0-.69-.31-.69-.69s.31-.69.69-.69h1.47c.38,0,.69.31.69.69v1.47c0,.38-.31.69-.69.69Z"/>
          <path class="cls-10" d="m77.45,101.03h-2.92c-.38,0-.69-.31-.69-.69s.31-.69.69-.69h2.92c.38,0,.69.31.69.69s-.31.69-.69.69Zm-5.67,0h-2.92c-.38,0-.69-.31-.69-.69s.31-.69.69-.69h2.92c.38,0,.69.31.69.69s-.31.69-.69.69Zm-5.67,0h-2.92c-.38,0-.69-.31-.69-.69s.31-.69.69-.69h2.92c.38,0,.69.31.69.69s-.31.69-.69.69Zm-5.67,0h-2.92c-.38,0-.69-.31-.69-.69s.31-.69.69-.69h2.92c.38,0,.69.31.69.69s-.31.69-.69.69Zm-5.67,0h-2.92c-.38,0-.69-.31-.69-.69s.31-.69.69-.69h2.92c.38,0,.69.31.69.69s-.31.69-.69.69Zm-5.67,0h-2.92c-.38,0-.69-.31-.69-.69s.31-.69.69-.69h2.92c.38,0,.69.31.69.69s-.31.69-.69.69Zm-5.67,0h-2.92c-.38,0-.69-.31-.69-.69s.31-.69.69-.69h2.92c.38,0,.69.31.69.69s-.31.69-.69.69Z"/>
          <path class="cls-10" d="m36.31,102.5c-.38,0-.69-.31-.69-.69v-1.47c0-.38.31-.69.69-.69h1.47c.38,0,.69.31.69.69s-.31.69-.69.69h-.78v.78c0,.38-.31.69-.69.69Z"/>
          <path class="cls-10" d="m36.31,135.2c-.38,0-.69-.31-.69-.69v-2.81c0-.38.31-.69.69-.69s.69.31.69.69v2.81c0,.38-.31.69-.69.69Zm0-5.45c-.38,0-.69-.31-.69-.69v-2.81c0-.38.31-.69.69-.69s.69.31.69.69v2.81c0,.38-.31.69-.69.69Zm0-5.45c-.38,0-.69-.31-.69-.69v-2.81c0-.38.31-.69.69-.69s.69.31.69.69v2.81c0,.38-.31.69-.69.69Zm0-5.45c-.38,0-.69-.31-.69-.69v-2.81c0-.38.31-.69.69-.69s.69.31.69.69v2.81c0,.38-.31.69-.69.69Zm0-5.45c-.38,0-.69-.31-.69-.69v-2.81c0-.38.31-.69.69-.69s.69.31.69.69v2.81c0,.38-.31.69-.69.69Zm0-5.45c-.38,0-.69-.31-.69-.69v-2.81c0-.38.31-.69.69-.69s.69.31.69.69v2.81c0,.38-.31.69-.69.69Z"/>
        </g>
        <path class="cls-10" d="m101.22,148.77c-.38,0-.69-.31-.69-.69v-2.93c0-.38.31-.69.69-.69s.69.31.69.69v2.93c0,.38-.31.69-.69.69Zm0-5.69c-.38,0-.69-.31-.69-.69v-2.93c0-.38.31-.69.69-.69s.69.31.69.69v2.93c0,.38-.31.69-.69.69Zm0-5.69c-.38,0-.69-.31-.69-.69v-2.93c0-.38.31-.69.69-.69s.69.31.69.69v2.93c0,.38-.31.69-.69.69Zm0-5.69c-.38,0-.69-.31-.69-.69v-2.93c0-.38.31-.69.69-.69s.69.31.69.69v2.93c0,.38-.31.69-.69.69Zm0-5.69c-.38,0-.69-.31-.69-.69v-2.93c0-.38.31-.69.69-.69s.69.31.69.69v2.93c0,.38-.31.69-.69.69Zm-2.37-3.33h-2.93c-.38,0-.69-.31-.69-.69s.31-.69.69-.69h2.93c.38,0,.69.31.69.69s-.31.69-.69.69Zm-5.69,0h-2.93c-.38,0-.69-.31-.69-.69s.31-.69.69-.69h2.93c.38,0,.69.31.69.69s-.31.69-.69.69Zm-5.69,0h-2.93c-.38,0-.69-.31-.69-.69s.31-.69.69-.69h2.93c.38,0,.69.31.69.69s-.31.69-.69.69Zm-5.69,0h-.06c-.38,0-.69-.31-.69-.69s.31-.69.69-.69h.06c.38,0,.69.31.69.69s-.31.69-.69.69Z"/>
      </g>
      <g>
        <g>
          <path class="cls-10" d="m464.71,234h1.47c.38,0,.69-.31.69-.69v-1.47c0-.38-.31-.69-.69-.69s-.69.31-.69.69v.78h-.78c-.38,0-.69.31-.69.69s.31.69.69.69Z"/>
          <path class="cls-10" d="m424.35,233.31c0-.38.31-.69.69-.69h2.92c.38,0,.69.31.69.69s-.31.69-.69.69h-2.92c-.38,0-.69-.31-.69-.69Zm5.67,0c0-.38.31-.69.69-.69h2.92c.38,0,.69.31.69.69s-.31.69-.69.69h-2.92c-.38,0-.69-.31-.69-.69Zm5.67,0c0-.38.31-.69.69-.69h2.92c.38,0,.69.31.69.69s-.31.69-.69.69h-2.92c-.38,0-.69-.31-.69-.69Zm5.67,0c0-.38.31-.69.69-.69h2.92c.38,0,.69.31.69.69s-.31.69-.69.69h-2.92c-.38,0-.69-.31-.69-.69Zm5.67,0c0-.38.31-.69.69-.69h2.92c.38,0,.69.31.69.69s-.31.69-.69.69h-2.92c-.38,0-.69-.31-.69-.69Zm5.67,0c0-.38.31-.69.69-.69h2.92c.38,0,.69.31.69.69s-.31.69-.69.69h-2.92c-.38,0-.69-.31-.69-.69Zm5.67,0c0-.38.31-.69.69-.69h2.92c.38,0,.69.31.69.69s-.31.69-.69.69h-2.92c-.38,0-.69-.31-.69-.69Z"/>
          <path class="cls-10" d="m420.83,234h1.47c.38,0,.69-.31.69-.69s-.31-.69-.69-.69h-.78v-.78c0-.38-.31-.69-.69-.69s-.69.31-.69.69v1.47c0,.38.31.69.69.69Z"/>
          <path class="cls-10" d="m420.14,229.2v-2.81c0-.38.31-.69.69-.69s.69.31.69.69v2.81c0,.38-.31.69-.69.69s-.69-.31-.69-.69Zm0-5.45v-2.81c0-.38.31-.69.69-.69s.69.31.69.69v2.81c0,.38-.31.69-.69.69s-.69-.31-.69-.69Zm0-5.45v-2.81c0-.38.31-.69.69-.69s.69.31.69.69v2.81c0,.38-.31.69-.69.69s-.69-.31-.69-.69Zm0-5.45v-2.81c0-.38.31-.69.69-.69s.69.31.69.69v2.81c0,.38-.31.69-.69.69s-.69-.31-.69-.69Zm0-5.45v-2.81c0-.38.31-.69.69-.69s.69.31.69.69v2.81c0,.38-.31.69-.69.69s-.69-.31-.69-.69Zm0-5.45v-2.81c0-.38.31-.69.69-.69s.69.31.69.69v2.81c0,.38-.31.69-.69.69s-.69-.31-.69-.69Z"/>
          <path class="cls-10" d="m420.83,197.19c.38,0,.69-.31.69-.69v-.78h.78c.38,0,.69-.31.69-.69s-.31-.69-.69-.69h-1.47c-.38,0-.69.31-.69.69v1.47c0,.38.31.69.69.69Z"/>
          <path class="cls-10" d="m424.35,195.03c0-.38.31-.69.69-.69h2.92c.38,0,.69.31.69.69s-.31.69-.69.69h-2.92c-.38,0-.69-.31-.69-.69Zm5.67,0c0-.38.31-.69.69-.69h2.92c.38,0,.69.31.69.69s-.31.69-.69.69h-2.92c-.38,0-.69-.31-.69-.69Zm5.67,0c0-.38.31-.69.69-.69h2.92c.38,0,.69.31.69.69s-.31.69-.69.69h-2.92c-.38,0-.69-.31-.69-.69Zm5.67,0c0-.38.31-.69.69-.69h2.92c.38,0,.69.31.69.69s-.31.69-.69.69h-2.92c-.38,0-.69-.31-.69-.69Zm5.67,0c0-.38.31-.69.69-.69h2.92c.38,0,.69.31.69.69s-.31.69-.69.69h-2.92c-.38,0-.69-.31-.69-.69Zm5.67,0c0-.38.31-.69.69-.69h2.92c.38,0,.69.31.69.69s-.31.69-.69.69h-2.92c-.38,0-.69-.31-.69-.69Zm5.67,0c0-.38.31-.69.69-.69h2.92c.38,0,.69.31.69.69s-.31.69-.69.69h-2.92c-.38,0-.69-.31-.69-.69Z"/>
          <path class="cls-10" d="m466.18,197.19c.38,0,.69-.31.69-.69v-1.47c0-.38-.31-.69-.69-.69h-1.47c-.38,0-.69.31-.69.69s.31.69.69.69h.78v.78c0,.38.31.69.69.69Z"/>
          <path class="cls-10" d="m465.49,229.2v-2.81c0-.38.31-.69.69-.69s.69.31.69.69v2.81c0,.38-.31.69-.69.69s-.69-.31-.69-.69Zm0-5.45v-2.81c0-.38.31-.69.69-.69s.69.31.69.69v2.81c0,.38-.31.69-.69.69s-.69-.31-.69-.69Zm0-5.45v-2.81c0-.38.31-.69.69-.69s.69.31.69.69v2.81c0,.38-.31.69-.69.69s-.69-.31-.69-.69Zm0-5.45v-2.81c0-.38.31-.69.69-.69s.69.31.69.69v2.81c0,.38-.31.69-.69.69s-.69-.31-.69-.69Zm0-5.45v-2.81c0-.38.31-.69.69-.69s.69.31.69.69v2.81c0,.38-.31.69-.69.69s-.69-.31-.69-.69Zm0-5.45v-2.81c0-.38.31-.69.69-.69s.69.31.69.69v2.81c0,.38-.31.69-.69.69s-.69-.31-.69-.69Z"/>
        </g>
        <g>
          <path class="cls-10" d="m417.96,215.98h-2.93c-.38,0-.69.31-.69.69s.31.69.69.69h2.93c.38,0,.69-.31.69-.69s-.31-.69-.69-.69Z"/>
          <path class="cls-10" d="m411.63,215.98h-.7v1.38h.7c.38,0,.69-.31.69-.69s-.31-.69-.69-.69Z"/>
          <path class="cls-10" d="m420.78,215.98h-.06c-.38,0-.69.31-.69.69s.31.69.69.69h.06c.38,0,.69-.31.69-.69s-.31-.69-.69-.69Z"/>
        </g>
        <g>
          <path class="cls-9" d="m444.13,222.92c-4.92,0-8.93-4-8.93-8.93,0-1.29.28-2.52.78-3.63l.37,3.72c.04.45.42.78.86.78.05,0,.1,0,.15-.01.45-.07.75-.51.71-.96l-.57-5.73c-.05-.48-.48-.82-.95-.77l-5.74.57c-.41.04-.76.36-.8.77-.05.56.41,1,.95.95l2.93-.29c-.77,1.71-1.14,3.63-.95,5.67.49,5.27,4.69,9.54,9.95,10.11,1.3.14,2.55.06,3.74-.22.86-.2,1.18-1.25.58-1.9,0,0-.01-.01-.02-.02-.28-.3-.7-.42-1.1-.33-.63.14-1.29.22-1.97.22Z"/>
          <path class="cls-9" d="m458.87,216.78c-.19-.54-.8-.74-1.26-.47l-3.05,1.8c.51-1.28.8-2.66.8-4.12,0-6.19-5.04-11.23-11.23-11.23-.62,0-1.22.05-1.81.15-.9.15-1.25,1.26-.62,1.92,0,0,.01.01.02.02.26.27.64.39,1.02.33.45-.07.92-.11,1.39-.11,4.92,0,8.93,4,8.93,8.93,0,1.14-.22,2.24-.62,3.24l-1.57-2.66c-.25-.42-.81-.55-1.22-.28-.39.26-.48.8-.24,1.2l2.92,4.94c.16.27.45.42.74.42.15,0,.3-.04.44-.12l4.96-2.93c.35-.21.53-.64.4-1.03Z"/>
        </g>
      </g>
    </g>
  </g>
</svg>